SplineFontDB: 3.2
FontName: SeriousShannsLight
FullName: Serious Shanns Light
FamilyName: Serious Shanns Light
Weight: Light
Copyright: https://github.com/kaBeech/serious-shanns/blob/main/LICENSE
Version: 6.0.0
ItalicAngle: 0
UnderlinePosition: 0
UnderlineWidth: 0
Ascent: 800
Descent: 200
InvalidEm: 0
sfntRevision: 0x00003333
LayerCount: 2
Layer: 0 0 "Back" 1
Layer: 1 0 "Fore" 0
XUID: [1021 329 -1817886000 12366394]
StyleMap: 0x0040
FSType: 0
OS2Version: 3
OS2_WeightWidthSlopeOnly: 0
OS2_UseTypoMetrics: 0
CreationTime: 1532631502
ModificationTime: 315532800
PfmFamily: 49
TTFWeight: 300
TTFWidth: 5
LineGap: 0
VLineGap: 0
Panose: 0 0 0 0 0 0 0 0 0 0
OS2TypoAscent: 613
OS2TypoAOffset: 0
OS2TypoDescent: -188
OS2TypoDOffset: 0
OS2TypoLinegap: 98
OS2WinAscent: 778
OS2WinAOffset: 0
OS2WinDescent: 308
OS2WinDOffset: 0
HheadAscent: 796
HheadAOffset: 0
HheadDescent: -317
HheadDOffset: 0
OS2SubXSize: 317
OS2SubYSize: 293
OS2SubXOff: 0
OS2SubYOff: 37
OS2SupXSize: 317
OS2SupYSize: 293
OS2SupXOff: 0
OS2SupYOff: 171
OS2StrikeYSize: 0
OS2StrikeYPos: 132
OS2CapHeight: 576
OS2XHeight: 485
OS2Vendor: 'NONE'
OS2CodePages: 00000001.00000000
OS2UnicodeRanges: 00000001.00000000.00000000.00000000
MarkAttachClasses: 1
DEI: 91125
LangName: 1033 "" "" "Normal" "FontForge 2.0 : Serious Shanns Light : 1-1-1980" "" "Version 0.2.0"
Encoding: UnicodeBmp
UnicodeInterp: none
NameList: AGL For New Fonts
DisplaySize: -48
AntiAlias: 1
FitToEm: 0
WinInfo: 16 16 4
BeginPrivate: 8
BlueValues 32 [-39 -8 492 523 690 718 765 769]
OtherBlues 11 [-297 -287]
BlueScale 9 0.0333333
BlueShift 2 17
StdHW 4 [67]
StdVW 4 [73]
StemSnapH 4 [67]
StemSnapV 7 [68 73]
EndPrivate
BeginChars: 65537 105

StartChar: .notdef
Encoding: 65536 -1 0
Width: 544
GlyphClass: 1
Flags: MW
HStem: -258 34<102 443 102 477> 705 34<102 443 102 102>
VStem: 68 34<-224 -224 -224 705> 443 34<-224 705 705 705>
LayerCount: 2
Fore
SplineSet
68 739 m 1
 477 739 l 1
 477 -258 l 1
 68 -258 l 1
 68 739 l 1
102 -224 m 1
 443 -224 l 1
 443 705 l 1
 102 705 l 1
 102 -224 l 1
EndSplineSet
EndChar

StartChar: exclam
Encoding: 33 33 2
Width: 544
GlyphClass: 2
Flags: MW
HStem: -15.3799 135.375
VStem: 201 143.001 235 78.001 243 72
LayerCount: 2
Fore
SplineSet
321 738 m 0x90
 321 732 319.666992188 694.669921875 317 626.002929688 c 0
 315 557.3359375 314 507.668945312 314 477.001953125 c 0
 313.666015625 461.66796875 313.499023438 447.583984375 313.499023438 434.75 c 0
 313.499023438 421.916015625 313.666015625 410.33203125 314 399.998046875 c 0
 314.666992188 379.331054688 315 361.6640625 315 346.997070312 c 0x90
 315 332.330078125 314.666992188 322.663085938 314 317.99609375 c 0
 313.111328125 311.331054688 312.666992188 302.1484375 312.666992188 290.44921875 c 0
 312.666992188 284.594726562 312.778320312 278.110351562 313.000976562 270.99609375 c 0xa0
 311.66796875 259.663085938 307.000976562 250.663085938 299.000976562 243.99609375 c 0
 291.66796875 237.329101562 282.66796875 233.99609375 272.000976562 233.99609375 c 2
 269.000976562 233.99609375 l 2
 258.333984375 234.663085938 249.666992188 238.330078125 243 244.997070312 c 0x90
 237.666992188 250.997070312 235 259.330078125 235 269.997070312 c 0xa0
 235 276.6640625 236.333007812 287.997070312 239 303.997070312 c 0
 241 313.330078125 242.333007812 323.330078125 243 333.997070312 c 0
 243.666992188 344.6640625 244 367.331054688 244 401.998046875 c 0
 244 415.998046875 243.333007812 437.331054688 242 465.998046875 c 0
 240.666992188 497.331054688 240 531.6640625 240 568.997070312 c 0
 240.666992188 596.330078125 241.666992188 634.997070312 243 684.997070312 c 0
 243.666992188 710.330078125 244 726.997070312 244 734.997070312 c 0
 244.666992188 750.330078125 248.666992188 761.663085938 256 768.99609375 c 0
 263.333007812 776.329101562 272.666015625 779.99609375 283.999023438 779.99609375 c 2
 286.999023438 779.99609375 l 2
 296.999023438 779.99609375 304.999023438 776.99609375 310.999023438 770.99609375 c 0
 317.666015625 764.329101562 321 753.333007812 321 738 c 0x90
324.999023438 7.9990234375 m 0
 312.33203125 -4.66796875 295.33203125 -12.3349609375 273.999023438 -15.001953125 c 0
 271.33203125 -15.251953125 268.727539062 -15.376953125 266.185546875 -15.376953125 c 0
 248.39453125 -15.376953125 233.666015625 -9.251953125 222 2.998046875 c 0
 208 16.998046875 201 33.998046875 201 53.998046875 c 0
 201 71.3310546875 208.333007812 86.3310546875 223 98.998046875 c 0
 239.666992188 112.998046875 258.333984375 119.998046875 279.000976562 119.998046875 c 0
 297.66796875 119.998046875 313.000976562 113.998046875 325.000976562 101.998046875 c 0
 337.66796875 89.3310546875 344.000976562 73.6640625 344.000976562 54.9970703125 c 0xc0
 344.000976562 36.330078125 337.666015625 20.666015625 324.999023438 7.9990234375 c 0
EndSplineSet
EndChar

StartChar: quotedbl
Encoding: 34 34 3
Width: 544
GlyphClass: 2
Flags: MW
HStem: 444.999 328.002
VStem: 150.001 84 309.003 86.998
LayerCount: 2
Fore
SplineSet
355.000976562 773.000976562 m 0
 365.000976562 773.000976562 374.000976562 770.66796875 382.000976562 766.000976562 c 0
 386.000976562 764.000976562 389.333984375 760.66796875 392.000976562 756.000976562 c 0
 394.66796875 750.66796875 396.000976562 744.66796875 396.000976562 738.000976562 c 2
 396.000976562 696.000976562 l 2
 396.000976562 676.66796875 395.333984375 641.000976562 394.000976562 589.000976562 c 0
 392.66796875 537.000976562 390.66796875 499.333984375 388.000976562 476.000976562 c 0
 386.66796875 466.000976562 382.334960938 458.33203125 375.001953125 452.999023438 c 0
 368.334960938 447.666015625 361.001953125 444.999023438 353.001953125 444.999023438 c 2
 350.001953125 444.999023438 l 2
 339.334960938 445.666015625 329.334960938 449.333007812 320.001953125 456 c 0
 313.334960938 460.666992188 310.001953125 467.333984375 310.001953125 476.000976562 c 0
 310.668945312 477.333984375 311.001953125 479.000976562 311.001953125 481.000976562 c 0
 312.334960938 506.333984375 313.001953125 537.3359375 313.001953125 574.002929688 c 2
 313.001953125 612.000976562 l 2
 311.668945312 665.333984375 310.3359375 709.333984375 309.002929688 744.000976562 c 2
 309.002929688 746.002929688 l 2
 309.002929688 751.3359375 310.334960938 756.000976562 313.001953125 760.000976562 c 0
 315.668945312 764.000976562 319.002929688 766.66796875 323.002929688 768.000976562 c 0
 332.3359375 772.000976562 341.002929688 774.002929688 349.002929688 774.002929688 c 0
 351.669921875 773.3359375 353.66796875 773.000976562 355.000976562 773.000976562 c 0
228 476.000976562 m 0
 226.666992188 465.333984375 222.334960938 457.666015625 215.001953125 452.999023438 c 0
 207.001953125 447.666015625 199.334960938 444.999023438 192.001953125 444.999023438 c 2
 190.001953125 444.999023438 l 2
 179.334960938 445.666015625 169.334960938 449.333007812 160.001953125 456 c 0
 153.334960938 460.666992188 150.001953125 467.333984375 150.001953125 476.000976562 c 2
 150.001953125 481.000976562 l 2
 152.001953125 507.66796875 153.001953125 540.000976562 153.001953125 578.000976562 c 0
 152.334960938 588.66796875 152.001953125 600.000976562 152.001953125 612.000976562 c 0
 150.668945312 665.333984375 149.668945312 709.333984375 149.001953125 744.000976562 c 2
 149.001953125 747.000976562 l 2
 149.001953125 751.66796875 150.001953125 756.000976562 152.001953125 760.000976562 c 0
 154.668945312 764.000976562 158.001953125 766.66796875 162.001953125 768.000976562 c 0
 171.14453125 771.4296875 180.532226562 773.14453125 190.1640625 773.14453125 c 0
 191.76953125 773.14453125 193.381835938 773.096679688 195.000976562 773.000976562 c 0
 205.000976562 773.000976562 214.000976562 770.66796875 222.000976562 766.000976562 c 0
 225.333984375 764.000976562 228.333984375 760.66796875 231.000976562 756.000976562 c 0
 233.66796875 750.66796875 235.000976562 744.334960938 235.000976562 737.001953125 c 0
 235.66796875 729.001953125 236.000976562 715.668945312 236.000976562 697.001953125 c 0
 236.000976562 678.334960938 235.333984375 642.66796875 234.000976562 590.000976562 c 0
 232.66796875 537.333984375 230.666992188 499.333984375 228 476.000976562 c 0
EndSplineSet
EndChar

StartChar: numbersign
Encoding: 35 35 4
Width: 544
GlyphClass: 2
Flags: MW
HStem: 200 63.999 454.998 65.002 695.002 20G
LayerCount: 2
Fore
SplineSet
232.005859375 454.998046875 m 1
 193.000976562 263.999023438 l 1
 228.333984375 264.666015625 271.671875 264.998046875 323.004882812 264.998046875 c 2
 331.004882812 264.998046875 l 1
 343.004882812 324.998046875 354.671875 388.331054688 366.004882812 454.998046875 c 1
 232.005859375 454.998046875 l 1
189 200 m 1
 181 200 l 1
 165.666992188 122.666992188 155 70.6669921875 149 44 c 0
 145 32 136.666992188 22.3330078125 124 15 c 0
 116 10.3330078125 108.333007812 7.9990234375 101 7.9990234375 c 0
 97.6669921875 7.33203125 94.333984375 7.6650390625 91.0009765625 8.998046875 c 0
 81.66796875 10.998046875 74.66796875 17.666015625 70.0009765625 28.9990234375 c 0
 67.333984375 35.666015625 66 42.3330078125 66 49 c 0
 66 55.6669921875 67.0009765625 62.6669921875 69.0009765625 70 c 0
 74.333984375 86.6669921875 84.6669921875 129.666992188 100 199 c 1
 58 199 l 2
 42.6669921875 199 31.6669921875 201.666992188 25 207 c 0
 19 211.666992188 16 218 16 226 c 2
 16 228 l 2
 16.6669921875 236.666992188 19.6669921875 243.666992188 25 249 c 0
 31 255.666992188 41.3330078125 259.333984375 56 260.000976562 c 0
 60.6669921875 260.66796875 68.6669921875 261.000976562 80 261.000976562 c 0
 91.3330078125 261.000976562 102.333007812 261.333984375 113 262.000976562 c 1
 151 454.000976562 l 1
 139 454.000976562 l 1
 97 453.000976562 l 1
 94 453.000976562 l 2
 82 452.333984375 72.6669921875 455.000976562 66 461.000976562 c 0
 59.3330078125 466.333984375 56 473.333984375 56 482.000976562 c 2
 56 485.000976562 l 2
 56 493.000976562 59 500.000976562 65 506.000976562 c 0
 71.6669921875 512.66796875 82.3330078125 516.334960938 97 517.001953125 c 0
 109.666992188 517.668945312 129.000976562 518.001953125 155.000976562 518.001953125 c 2
 163.000976562 518.001953125 l 1
 193.000976562 680.001953125 l 2
 197.66796875 694.001953125 204.334960938 703.668945312 213.001953125 709.001953125 c 0
 219.668945312 713.001953125 226.3359375 715.001953125 233.002929688 715.001953125 c 0
 235.669921875 715.001953125 238.669921875 714.668945312 242.002929688 714.001953125 c 0
 254.002929688 711.334960938 263.002929688 705.66796875 269.002929688 697.000976562 c 0
 272.3359375 691.66796875 274.002929688 685.000976562 274.002929688 677.000976562 c 0
 274.669921875 672.333984375 274.336914062 667.666992188 273.00390625 663 c 2
 244.00390625 520 l 1
 377.00390625 520 l 1
 405.00390625 673 l 2
 409.670898438 687 416.337890625 696.666992188 425.004882812 702 c 0
 431.004882812 706 437.337890625 708 444.004882812 708 c 0
 447.337890625 707.333007812 451.004882812 706.666015625 455.004882812 705.999023438 c 0
 467.004882812 703.33203125 476.004882812 697.999023438 482.004882812 689.999023438 c 0
 485.337890625 685.33203125 487.004882812 679.33203125 487.004882812 671.999023438 c 0
 487.004882812 667.33203125 486.337890625 661.999023438 485.004882812 655.999023438 c 0
 477.671875 627.999023438 468.671875 582.999023438 458.004882812 520.999023438 c 1
 470.004882812 520.999023438 l 1
 481.004882812 520.999023438 l 2
 495.004882812 520.999023438 506.337890625 517.33203125 515.004882812 509.999023438 c 0
 523.671875 502.666015625 528.338867188 495.333007812 529.005859375 488 c 0
 528.338867188 479.333007812 525.005859375 471.666015625 519.005859375 464.999023438 c 0
 513.005859375 458.999023438 503.338867188 455.665039062 490.005859375 454.998046875 c 2
 445.005859375 454.998046875 l 1
 413.005859375 263.999023438 l 1
 466.004882812 263.999023438 l 2
 478.671875 263.999023438 487.005859375 261.666015625 491.005859375 256.999023438 c 0
 495.005859375 252.33203125 497.338867188 245.33203125 498.005859375 235.999023438 c 0
 498.005859375 225.33203125 496.005859375 217.33203125 492.005859375 211.999023438 c 0
 487.338867188 205.33203125 478.671875 201.999023438 466.004882812 201.999023438 c 2
 402.004882812 201.999023438 l 1
 388.004882812 121.33203125 378.004882812 67.33203125 372.004882812 39.9990234375 c 0
 367.337890625 28.666015625 359.337890625 19.9990234375 348.004882812 13.9990234375 c 0
 340.671875 9.9990234375 333.338867188 7.9990234375 326.005859375 7.9990234375 c 0
 322.672851562 7.33203125 319.005859375 7.6650390625 315.005859375 8.998046875 c 0
 305.005859375 11.6650390625 297.672851562 17.998046875 293.005859375 27.998046875 c 0
 290.338867188 33.998046875 289.005859375 39.998046875 289.005859375 45.998046875 c 0
 289.005859375 51.998046875 290.005859375 58.6650390625 292.005859375 65.998046875 c 0
 298.672851562 92.6650390625 308.005859375 137.665039062 320.005859375 200.998046875 c 1
 308.005859375 200.998046875 l 1
 189 200 l 1
EndSplineSet
EndChar

StartChar: dollar
Encoding: 36 36 5
Width: 544
GlyphClass: 2
Flags: MW
HStem: -18.9971 64.9971 368 63.0029 653 59<306.996 315.998 306.996 315.998>
VStem: 64.999 72.999 244.998 58 244.998 63.002 423.997 73.999
LayerCount: 2
Fore
SplineSet
419.498046875 245.50390625 m 0xfa
 416.498046875 257.170898438 410.998046875 269.337890625 402.998046875 282.004882812 c 0
 394.998046875 294.671875 383.331054688 306.338867188 367.998046875 317.005859375 c 0
 352.665039062 327.005859375 334.665039062 336.005859375 313.998046875 344.005859375 c 2
 302.998046875 349.005859375 l 1
 302.998046875 335.005859375 l 1
 301.997070312 187.005859375 l 2
 301.330078125 132.338867188 300.663085938 89.671875 299.99609375 59.0048828125 c 1
 312.997070312 65 l 2
 343.6640625 79 369.6640625 98.337890625 390.997070312 123.004882812 c 0
 412.997070312 147.671875 423.997070312 176.004882812 423.997070312 208.004882812 c 0
 423.997070312 221.337890625 422.498046875 233.836914062 419.498046875 245.50390625 c 0xfa
165.99609375 469.002929688 m 0
 182.663085938 451.669921875 205.330078125 439.002929688 233.997070312 431.002929688 c 2
 244.998046875 429.002929688 l 1xf6
 245.665039062 483.002929688 245.997070312 551.002929688 245.997070312 633.002929688 c 2
 245.997070312 646.002929688 l 1
 233.997070312 643.002929688 l 2
 206.6640625 633.669921875 184.331054688 619.336914062 166.998046875 600.00390625 c 0
 147.665039062 581.336914062 137.998046875 558.336914062 137.998046875 531.00390625 c 0
 137.998046875 507.00390625 147.329101562 486.3359375 165.99609375 469.002929688 c 0
168.998046875 -11 m 0
 148.998046875 -5.6669921875 132 2 118 12 c 0
 89.3330078125 30.6669921875 68.3330078125 52.333984375 55 77.0009765625 c 0
 49.6669921875 89.0009765625 47 99.333984375 47 108.000976562 c 0
 47 119.333984375 52.3330078125 127.666992188 63 133 c 0
 70.3330078125 136.333007812 75.666015625 138.333007812 78.9990234375 139 c 0
 82.33203125 139.666992188 84.9990234375 140 86.9990234375 140 c 2
 92.9990234375 140 l 2
 96.9990234375 140 101.166015625 138.166992188 105.499023438 134.5 c 0
 109.83203125 130.833007812 114.665039062 125 119.998046875 117 c 0
 133.998046875 95 150.331054688 77.6669921875 168.998046875 65 c 0
 185.665039062 52.3330078125 206.6640625 46 231.997070312 46 c 2
 233.997070312 46 l 1
 242.998046875 46 l 1
 244.331054688 164 244.998046875 266.666992188 244.998046875 354 c 2
 244.998046875 363 l 1
 236.331054688 363.666992188 228.498046875 364.5 221.498046875 365.5 c 2
 203.998046875 368 l 2
 183.331054688 370.666992188 163.998046875 376.666992188 145.998046875 386 c 0
 127.331054688 395.333007812 112.331054688 406.666015625 100.998046875 419.999023438 c 0
 89.6650390625 433.33203125 80.83203125 447.499023438 74.4990234375 462.499023438 c 0
 68.166015625 477.499023438 64.9990234375 491.999023438 64.9990234375 505.999023438 c 0
 64.9990234375 528.666015625 68.666015625 550.499023438 75.9990234375 571.499023438 c 0
 83.33203125 592.499023438 93.9990234375 611.999023438 107.999023438 629.999023438 c 0
 121.999023438 647.999023438 140.666015625 663.666015625 163.999023438 676.999023438 c 0
 185.999023438 690.33203125 210.997070312 699.665039062 238.997070312 704.998046875 c 2
 244.998046875 705.998046875 l 1xfa
 246.331054688 727.331054688 246.999023438 749.331054688 246.999023438 771.998046875 c 0
 247.666015625 786.665039062 250.166015625 797.83203125 254.499023438 805.499023438 c 0
 258.83203125 813.166015625 265.999023438 816.999023438 275.999023438 816.999023438 c 2
 277.999023438 816.999023438 l 2
 288.666015625 817.666015625 296.333007812 813.999023438 301 805.999023438 c 0
 305.666992188 798.666015625 308 788.333007812 308 775 c 2
 308 713 l 1xf6
 315.998046875 712 l 2
 329.331054688 711.333007812 347.666015625 708 370.999023438 702 c 0
 396.33203125 696 415.33203125 690.666992188 427.999023438 686 c 0
 437.999023438 682.666992188 445.331054688 677 449.998046875 669 c 0
 453.998046875 662.333007812 455.999023438 655.666015625 455.999023438 648.999023438 c 0
 455.999023438 646.999023438 455.666015625 644.666015625 454.999023438 641.999023438 c 0
 454.33203125 635.999023438 452.665039062 631.666015625 449.998046875 628.999023438 c 0
 446.665039062 626.33203125 443.1640625 624.83203125 439.497070312 624.499023438 c 0
 435.830078125 624.166015625 432.331054688 623.999023438 428.998046875 623.999023438 c 0
 415.665039062 623.999023438 400.998046875 627.666015625 384.998046875 634.999023438 c 0
 376.331054688 638.999023438 366.498046875 642.83203125 355.498046875 646.499023438 c 0
 344.498046875 650.166015625 331.331054688 652.333007812 315.998046875 653 c 2
 306.99609375 653 l 1
 302.998046875 423 l 1xfa
 310.998046875 421 l 2
 338.331054688 417.666992188 362.6640625 411 383.997070312 401 c 0
 407.330078125 391 425.830078125 379.666992188 439.497070312 367 c 0
 453.1640625 354.333007812 464.6640625 339.833007812 473.997070312 323.5 c 0
 483.330078125 307.166992188 489.663085938 291 492.99609375 275 c 0
 496.329101562 259 497.99609375 242.333007812 497.99609375 225 c 0
 497.99609375 195.666992188 492.829101562 167.833984375 482.49609375 141.500976562 c 0
 472.163085938 115.16796875 458.163085938 92.3349609375 440.49609375 73.001953125 c 0
 422.829101562 53.6689453125 401.99609375 37.001953125 377.99609375 23.001953125 c 0
 356.663085938 9.001953125 332.99609375 -1.6650390625 306.99609375 -8.998046875 c 2
 299.99609375 -11 l 1
 299.99609375 -17.998046875 l 2
 300.663085938 -57.3310546875 301.330078125 -83.998046875 301.997070312 -97.998046875 c 0
 300.6640625 -109.998046875 296.497070312 -119.165039062 289.497070312 -125.498046875 c 0
 282.497070312 -131.831054688 273.997070312 -134.998046875 263.997070312 -134.998046875 c 2
 262.997070312 -134.998046875 l 1
 261.997070312 -134.998046875 l 2
 253.997070312 -134.998046875 247.997070312 -131.998046875 243.997070312 -125.998046875 c 0
 240.6640625 -120.665039062 238.997070312 -112.998046875 238.997070312 -102.998046875 c 2
 238.997070312 -93.998046875 l 2
 240.330078125 -79.3310546875 240.997070312 -57.6640625 240.997070312 -28.9970703125 c 2
 240.997070312 -18.9970703125 l 1
 231.997070312 -18.9970703125 l 1
 227.997070312 -18.9970703125 l 2
 207.330078125 -18.9970703125 187.665039062 -16.3330078125 168.998046875 -11 c 0
EndSplineSet
EndChar

StartChar: percent
Encoding: 37 37 6
Width: 544
GlyphClass: 2
Flags: MW
HStem: -18.001 57 180.998 54.0323 442 54.999 642.043 52.9575
VStem: 33.001 53.001 49.5039 68.499 209.002 45.998 290.003 49.002 400.001 70.001 460.075 51.9275
LayerCount: 2
Fore
SplineSet
350.00390625 58.9990234375 m 0xf340
 358.670898438 46.9990234375 374.337890625 40.33203125 397.004882812 38.9990234375 c 2
 400.000976562 38.9990234375 l 2xf380
 418.000976562 38.9990234375 432.171875 45.166015625 442.504882812 57.4990234375 c 0
 452.837890625 69.83203125 458.670898438 85.6650390625 460.00390625 104.998046875 c 2
 460.00390625 105.998046875 l 1
 460.00390625 108.998046875 l 2
 460.051757812 110.474609375 460.075195312 111.9296875 460.075195312 113.362304688 c 0
 460.075195312 131.977539062 456.051757812 146.85546875 448.00390625 157.998046875 c 0
 436.670898438 173.331054688 419.337890625 180.998046875 396.004882812 180.998046875 c 0
 378.004882812 180.998046875 364.004882812 173.998046875 354.004882812 159.998046875 c 0
 344.671875 145.998046875 339.671875 128.331054688 339.004882812 106.998046875 c 2
 339.004882812 102.998046875 l 2
 338.953125 101.561523438 338.927734375 100.1484375 338.927734375 98.7587890625 c 0
 338.927734375 82.0966796875 342.619140625 68.8447265625 350.00390625 58.9990234375 c 0xf340
335.001953125 -0.5009765625 m 0
 319.668945312 11.166015625 308.334960938 25.9990234375 301.001953125 43.9990234375 c 0
 293.668945312 61.9990234375 290.00390625 81.33203125 290.00390625 101.999023438 c 2
 290.00390625 103.999023438 l 2
 290.00390625 142.666015625 299.670898438 174.166015625 319.00390625 198.499023438 c 0
 338.336914062 222.83203125 366.336914062 234.999023438 403.00390625 234.999023438 c 0
 404.00390625 235.01953125 404.999023438 235.030273438 405.98828125 235.030273438 c 0
 436.64453125 235.030273438 461.982421875 225.01953125 482.002929688 204.999023438 c 0
 492.002929688 194.33203125 499.669921875 179.999023438 505.002929688 161.999023438 c 0
 509.669921875 147.999023438 512.002929688 132.33203125 512.002929688 114.999023438 c 0xf340
 512.002929688 110.999023438 511.669921875 104.999023438 511.002929688 96.9990234375 c 0
 509.002929688 58.33203125 498.3359375 29.33203125 479.002929688 9.9990234375 c 0
 459.669921875 -8.66796875 430.336914062 -18.0009765625 391.00390625 -18.0009765625 c 2
 388.00390625 -18.0009765625 l 2
 368.00390625 -18.0009765625 350.334960938 -12.16796875 335.001953125 -0.5009765625 c 0
98.0048828125 517.999023438 m 0
 107.337890625 505.999023438 124.670898438 498.999023438 150.00390625 496.999023438 c 2
 151.00390625 496.999023438 l 2
 169.00390625 496.999023438 182.670898438 503.33203125 192.00390625 515.999023438 c 0
 201.336914062 528.666015625 206.669921875 544.999023438 208.002929688 564.999023438 c 0
 208.669921875 566.33203125 209.002929688 567.999023438 209.002929688 569.999023438 c 0
 208.3359375 593.33203125 203.002929688 610.999023438 193.002929688 622.999023438 c 0
 182.3359375 635.666015625 167.3359375 641.999023438 148.002929688 641.999023438 c 0
 147.162109375 642.028320312 146.329101562 642.04296875 145.504882812 642.04296875 c 0
 127.373046875 642.04296875 113.206054688 635.028320312 103.002929688 620.999023438 c 0
 93.669921875 607.666015625 88.0029296875 589.999023438 86.0029296875 567.999023438 c 2
 86.0029296875 562.999023438 l 2xfb
 85.955078125 561.618164062 85.931640625 560.259765625 85.931640625 558.922851562 c 0
 85.931640625 541.545898438 89.95703125 527.904296875 98.0048828125 517.999023438 c 0
156.001953125 195 m 2
 301.001953125 472 l 2
 349.668945312 565.333007812 382.668945312 632.333007812 400.001953125 673 c 0
 408.001953125 685 419.334960938 691 434.001953125 691 c 0
 440.668945312 691 447.3359375 689.333007812 454.002929688 686 c 0
 464.669921875 680.666992188 470.002929688 673.666992188 470.002929688 665 c 0
 470.002929688 657.666992188 466.671875 648.666992188 460.004882812 638 c 0
 434.671875 597.333007812 378.336914062 493.666015625 291.00390625 326.999023438 c 0
 205.00390625 160.33203125 147.336914062 47.33203125 118.00390625 -12.0009765625 c 0
 106.670898438 -32.0009765625 95.00390625 -42.0009765625 83.00390625 -42.0009765625 c 0
 79.00390625 -42.0009765625 74.1708984375 -40.66796875 68.50390625 -38.0009765625 c 0
 62.8369140625 -35.333984375 58.3369140625 -31.833984375 55.00390625 -27.5009765625 c 0
 51.6708984375 -23.16796875 49.837890625 -17.5009765625 49.5048828125 -10.5009765625 c 0xf780
 49.4853515625 -10.08984375 49.4755859375 -9.6728515625 49.4755859375 -9.2509765625 c 0
 49.4755859375 -2.49609375 51.9853515625 5.5869140625 57.0048828125 14.9990234375 c 0
 71.0048828125 43.666015625 104.001953125 103.666992188 156.001953125 195 c 2
82.5009765625 459.5 m 0
 66.16796875 471.166992188 53.8349609375 486 45.501953125 504 c 0
 37.1689453125 522 33.001953125 541.333007812 33.001953125 562 c 2
 33.001953125 564 l 2xfb
 33.001953125 602.666992188 43.6689453125 634.166992188 65.001953125 658.5 c 0
 86.3349609375 682.833007812 116.334960938 695 155.001953125 695 c 0
 155.918945312 695.020507812 156.831054688 695.03125 157.73828125 695.03125 c 0
 185.8515625 695.03125 209.272460938 685.020507812 228.000976562 665 c 0
 237.333984375 654.333007812 244.333984375 640 249.000976562 622 c 0
 253.000976562 608 255.000976562 591.666992188 255.000976562 573 c 0
 255.000976562 526.333007812 245.000976562 492.333007812 225.000976562 471 c 0
 207.000976562 451.666992188 179.000976562 442 141.000976562 442 c 2
 139.000976562 442 l 2
 117.66796875 442 98.833984375 447.833007812 82.5009765625 459.5 c 0
EndSplineSet
EndChar

StartChar: ampersand
Encoding: 38 38 7
Width: 544
GlyphClass: 2
Flags: MW
HStem: -32 74.001 655.001 59.1001
VStem: 24.0029 80.0029 110.003 76.002 345.005 63.1093
LayerCount: 2
Fore
SplineSet
507 11 m 2
 507 3 l 2
 505 -13 500.333007812 -23 493 -27 c 0
 489 -29.6669921875 484.333007812 -31 479 -31 c 0
 474.333007812 -31 468.666015625 -29.3330078125 461.999023438 -26 c 0
 448.666015625 -19.3330078125 436.999023438 -7.3330078125 426.999023438 10 c 0
 424.999023438 13.3330078125 420.999023438 23 414.999023438 39 c 0
 408.999023438 55 403.999023438 67 399.999023438 75 c 2
 392.999023438 90 l 1
 372.33203125 61.3330078125 360.33203125 45 356.999023438 41 c 0
 353.666015625 37.6669921875 348.333007812 32 341 24 c 0
 333.666992188 16 327.333984375 10 322.000976562 6 c 0
 316.66796875 2.6669921875 309.66796875 -2 301.000976562 -8 c 0
 293.000976562 -14 285.000976562 -18.3330078125 277.000976562 -21 c 0
 269.000976562 -23.6669921875 259.66796875 -26 249.000976562 -28 c 0
 237.66796875 -30.6669921875 226.334960938 -32 215.001953125 -32 c 0
 179.668945312 -32 147.3359375 -23 118.002929688 -5 c 0
 88.669921875 13 65.669921875 37 49.0029296875 67 c 0
 32.3359375 97.6669921875 24.0029296875 130.333984375 24.0029296875 165.000976562 c 0
 24.0029296875 219.000976562 34.0029296875 265.333984375 54.0029296875 304.000976562 c 0
 78.0029296875 352.000976562 118.002929688 388.333984375 174.002929688 413.000976562 c 2
 184.002929688 418.000976562 l 1
 174.002929688 434.000976562 164.669921875 449.000976562 156.002929688 463.000976562 c 0
 147.3359375 476.333984375 141.3359375 486.000976562 138.002929688 492.000976562 c 0
 134.669921875 498.000976562 130.669921875 505.333984375 126.002929688 514.000976562 c 0
 121.3359375 522.66796875 118.3359375 530.000976562 117.002929688 536.000976562 c 0
 112.3359375 554.000976562 110.002929688 571.66796875 110.002929688 589.000976562 c 0
 110.002929688 600.333984375 111.669921875 611.333984375 115.002929688 622.000976562 c 0
 117.669921875 632.66796875 122.669921875 643.66796875 130.002929688 655.000976562 c 0
 137.3359375 666.333984375 146.3359375 676.333984375 157.002929688 685.000976562 c 0
 167.669921875 693.66796875 182.002929688 700.66796875 200.002929688 706.000976562 c 0
 217.3359375 711.333984375 237.3359375 714.000976562 260.002929688 714.000976562 c 0
 261.870117188 714.067382812 263.73046875 714.100585938 265.583984375 714.100585938 c 0
 282.263671875 714.100585938 298.403320312 711.400390625 314.002929688 706.000976562 c 0
 332.002929688 700.000976562 348.002929688 691.66796875 362.002929688 681.000976562 c 0
 376.002929688 669.66796875 387.3359375 655.334960938 396.002929688 638.001953125 c 0
 404.002929688 620.668945312 408.002929688 601.3359375 408.002929688 580.002929688 c 0
 408.077148438 577.631835938 408.114257812 575.28515625 408.114257812 572.962890625 c 0
 408.114257812 554.396484375 405.744140625 537.41015625 401.00390625 522.00390625 c 0
 395.670898438 504.00390625 389.00390625 489.336914062 381.00390625 478.00390625 c 0
 373.00390625 466.670898438 363.00390625 455.670898438 351.00390625 445.00390625 c 0
 339.00390625 434.336914062 328.00390625 425.669921875 318.00390625 419.002929688 c 0
 307.336914062 412.3359375 295.00390625 405.668945312 281.00390625 399.001953125 c 2
 272.00390625 395.001953125 l 1
 277.00390625 386.001953125 l 2
 289.670898438 364.668945312 310.337890625 333.668945312 339.004882812 293.001953125 c 0
 367.671875 252.334960938 386.004882812 225.66796875 394.004882812 213.000976562 c 2
 403.004882812 198.000976562 l 1
 413.004882812 217.333984375 420.671875 233.333984375 426.004882812 246.000976562 c 0
 432.004882812 258.66796875 436.671875 268.66796875 440.004882812 276.000976562 c 0
 443.337890625 283.333984375 446.004882812 288.666992188 448.004882812 292 c 0
 458.671875 308 468.338867188 317.666992188 477.005859375 321 c 0
 479.672851562 321.666992188 482.672851562 322 486.005859375 322 c 0
 492.005859375 322 498.338867188 320.333007812 505.005859375 317 c 0
 513.005859375 313.666992188 518.005859375 306.333984375 520.005859375 295.000976562 c 0
 520.672851562 291.66796875 521.005859375 288.66796875 521.005859375 286.000976562 c 0
 521.005859375 276.000976562 518.005859375 264.66796875 512.005859375 252.000976562 c 0
 509.338867188 246.66796875 499.671875 233.66796875 483.004882812 213.000976562 c 0
 466.337890625 192.333984375 452.337890625 173.333984375 441.004882812 156.000976562 c 2
 438.004882812 151.000976562 l 1
 448.671875 133.000976562 468.004882812 99.333984375 496.004882812 50.0009765625 c 0
 503.337890625 38.0009765625 507 25 507 11 c 2
186.004882812 572.000976562 m 0
 186.004882812 554.000976562 190.671875 534.333984375 200.004882812 513.000976562 c 0
 210.004882812 492.333984375 221.671875 474.000976562 235.004882812 458.000976562 c 2
 239.004882812 453.000976562 l 1
 245.004882812 455.000976562 l 2
 260.337890625 459.66796875 273.337890625 464.66796875 284.004882812 470.000976562 c 0
 294.671875 475.333984375 305.004882812 482.333984375 315.004882812 491.000976562 c 0
 325.004882812 499.66796875 332.337890625 510.66796875 337.004882812 524.000976562 c 0
 342.337890625 536.66796875 345.004882812 551.66796875 345.004882812 569.000976562 c 0
 345.004882812 597.000976562 336.337890625 618.333984375 319.004882812 633.000976562 c 0
 301.671875 647.66796875 281.338867188 655.000976562 258.005859375 655.000976562 c 0
 231.338867188 655.000976562 212.005859375 646.000976562 200.005859375 628.000976562 c 0
 190.672851562 614.000976562 186.004882812 595.333984375 186.004882812 572.000976562 c 0
104.005859375 174.000976562 m 0
 104.005859375 136.66796875 114.338867188 105.66796875 135.005859375 81.0009765625 c 0
 155.672851562 55.0009765625 182.672851562 42.0009765625 216.005859375 42.0009765625 c 0
 233.338867188 42.66796875 251.338867188 46.0009765625 270.005859375 52.0009765625 c 0
 276.672851562 54.0009765625 283.672851562 57.66796875 291.005859375 63.0009765625 c 0
 299.005859375 67.66796875 305.005859375 71.66796875 309.005859375 75.0009765625 c 0
 313.005859375 78.333984375 318.005859375 83.333984375 324.005859375 90.0009765625 c 0
 330.005859375 96.66796875 334.005859375 101.334960938 336.005859375 104.001953125 c 0
 338.672851562 106.001953125 342.33984375 110.668945312 347.006835938 118.001953125 c 0
 351.673828125 125.334960938 355.673828125 131.001953125 359.006835938 135.001953125 c 1
 345.006835938 165.001953125 334.006835938 187.334960938 326.006835938 202.001953125 c 0
 317.33984375 218.001953125 301.006835938 243.334960938 277.006835938 278.001953125 c 0
 253.006835938 312.668945312 234.33984375 340.668945312 221.006835938 362.001953125 c 1
 213.006835938 359.001953125 l 2
 192.33984375 349.001953125 174.672851562 337.334960938 160.005859375 324.001953125 c 0
 144.672851562 310.668945312 133.005859375 295.668945312 125.005859375 279.001953125 c 0
 117.672851562 262.334960938 112.33984375 245.66796875 109.006835938 229.000976562 c 0
 105.673828125 212.333984375 104.005859375 194.000976562 104.005859375 174.000976562 c 0
EndSplineSet
EndChar

StartChar: quotesingle
Encoding: 39 39 8
Width: 544
GlyphClass: 2
Flags: MW
HStem: 456 307.126
VStem: 230.001 84
LayerCount: 2
Fore
SplineSet
308 487 m 0
 306.666992188 476.333007812 302.334960938 468.333007812 295.001953125 463 c 0
 287.668945312 458.333007812 280.001953125 456 272.001953125 456 c 2
 270.001953125 456 l 2
 258.668945312 456.666992188 248.668945312 460.333984375 240.001953125 467.000976562 c 0
 233.334960938 472.333984375 230.001953125 479.333984375 230.001953125 488.000976562 c 2
 230.001953125 491.000976562 l 1
 230.001953125 492.000976562 l 2
 231.848632812 519.694335938 232.771484375 551.71875 232.771484375 588.075195312 c 0
 232.771484375 630.48828125 231.514648438 678.796875 229.001953125 733.000976562 c 2
 229.001953125 735.000976562 l 2
 229.001953125 740.333984375 230.001953125 745.000976562 232.001953125 749.000976562 c 0
 234.668945312 753.000976562 238.001953125 755.66796875 242.001953125 757.000976562 c 0
 251.334960938 761.083984375 260.922851562 763.125976562 270.765625 763.125976562 c 0
 272.171875 763.125976562 273.583984375 763.083984375 275.000976562 763.000976562 c 0
 285.000976562 762.333984375 294.000976562 759.666992188 302.000976562 755 c 0
 306.000976562 753 309.333984375 749.666992188 312.000976562 745 c 0
 314.000976562 740.333007812 315.000976562 734 315.000976562 726 c 0
 315.66796875 718 316.000976562 705 316.000976562 687 c 0
 316.000976562 669 315.333984375 637 314.000976562 591 c 0
 312.66796875 545 310.666992188 510.333007812 308 487 c 0
EndSplineSet
EndChar

StartChar: parenleft
Encoding: 40 40 9
Width: 544
GlyphClass: 2
Flags: MW
HStem: -122 64.999 743 61<371.667 385>
VStem: 132.856 78.1449
LayerCount: 2
Fore
SplineSet
411 -93 m 0
 411 -101 407.666992188 -107.666992188 401 -113 c 0
 395 -119 388.333007812 -122 381 -122 c 0
 338.333007812 -121.333007812 299.666015625 -105.666015625 264.999023438 -74.9990234375 c 0
 230.33203125 -44.33203125 201.999023438 -1.33203125 179.999023438 54.0009765625 c 0
 157.999023438 110.000976562 143.33203125 174.333984375 135.999023438 247.000976562 c 0
 133.999023438 267.000976562 132.999023438 292.000976562 132.999023438 322.000976562 c 0
 132.903320312 326.288085938 132.85546875 330.731445312 132.85546875 335.331054688 c 0
 132.85546875 362.921875 134.5703125 396.145507812 137.999023438 435.000976562 c 0
 145.33203125 512.333984375 158.33203125 575.666992188 176.999023438 625 c 0
 184.999023438 647 195.999023438 668.333007812 209.999023438 689 c 0
 223.999023438 709.666992188 239.999023438 728.666992188 257.999023438 746 c 0
 275.33203125 763.333007812 294.999023438 777.333007812 316.999023438 788 c 0
 339.666015625 798.666992188 361.333007812 804 382 804 c 0
 392 804 399.333007812 802 404 798 c 0
 409.333007812 793.333007812 412 785.333007812 412 774 c 0
 412 762.666992188 409.333007812 754.666992188 404 750 c 0
 398 745.333007812 390 743 380 743 c 0
 360.666992188 743 342.666992188 737.333007812 326 726 c 0
 310 715.333007812 296 700.666015625 284 681.999023438 c 0
 260.666992188 647.33203125 243.333984375 604.999023438 232.000976562 554.999023438 c 0
 223.333984375 520.33203125 217.333984375 472.33203125 214.000976562 410.999023438 c 0
 212.000976562 379.666015625 211.000976562 351.666015625 211.000976562 326.999023438 c 0
 211.66796875 301.666015625 212.66796875 279.666015625 214.000976562 260.999023438 c 0
 217.333984375 220.33203125 224.666992188 180.33203125 236 140.999023438 c 0
 246.666992188 101.666015625 259.666992188 67.9990234375 275 39.9990234375 c 0
 289.666992188 11.33203125 306.333984375 -12.0009765625 325.000976562 -30.0009765625 c 0
 344.333984375 -48.0009765625 363.000976562 -57.0009765625 381.000976562 -57.0009765625 c 0
 391.000976562 -57.0009765625 398.66796875 -59.333984375 404.000976562 -64.0009765625 c 0
 408.66796875 -68.66796875 411 -78.3330078125 411 -93 c 0
EndSplineSet
EndChar

StartChar: parenright
Encoding: 41 41 10
Width: 544
GlyphClass: 2
Flags: MW
HStem: -122 65.001 743.001 61
VStem: 333.999 78
LayerCount: 2
Fore
SplineSet
409 247 m 0
 401.666992188 174.333007812 387 110 365 54 c 0
 343 -1.3330078125 314.666992188 -44.3330078125 280 -75 c 0
 244.666992188 -106.333007812 206 -122 164 -122 c 0
 157.333007812 -121.333007812 150.666015625 -118.333007812 143.999023438 -113 c 0
 136.666015625 -107.666992188 132.999023438 -101 132.999023438 -93 c 0
 132.999023438 -78.3330078125 135.666015625 -68.666015625 140.999023438 -63.9990234375 c 0
 145.666015625 -59.33203125 153.333007812 -56.9990234375 164 -56.9990234375 c 0
 182 -56.9990234375 200.333007812 -47.9990234375 219 -29.9990234375 c 0
 237.666992188 -11.33203125 254.666992188 12.0009765625 270 40.0009765625 c 0
 284.666992188 68.0009765625 297.666992188 101.66796875 309 141.000976562 c 0
 320.333007812 180.333984375 327.666015625 220.333984375 330.999023438 261.000976562 c 0
 332.999023438 281.000976562 333.999023438 303.333984375 333.999023438 328.000976562 c 0
 333.999023438 352.66796875 332.999023438 380.334960938 330.999023438 411.001953125 c 0
 327.666015625 471.668945312 321.666015625 519.668945312 312.999023438 555.001953125 c 0
 300.999023438 605.001953125 283.666015625 647.668945312 260.999023438 683.001953125 c 0
 249.666015625 700.334960938 235.666015625 714.66796875 218.999023438 726.000976562 c 0
 202.33203125 737.333984375 184.665039062 743.000976562 165.998046875 743.000976562 c 0
 155.998046875 743.000976562 147.665039062 745.333984375 140.998046875 750.000976562 c 0
 135.665039062 754.000976562 132.998046875 761.66796875 132.998046875 773.000976562 c 0
 132.331054688 780.333984375 132.998046875 786.000976562 134.998046875 790.000976562 c 0
 136.998046875 794.66796875 139.331054688 797.66796875 141.998046875 799.000976562 c 0
 147.998046875 802.333984375 154.998046875 804.000976562 162.998046875 804.000976562 c 0
 184.998046875 804.000976562 206.665039062 798.66796875 227.998046875 788.000976562 c 0
 249.331054688 777.333984375 268.998046875 763.333984375 286.998046875 746.000976562 c 0
 304.998046875 728.66796875 320.998046875 709.66796875 334.998046875 689.000976562 c 0
 348.998046875 667.66796875 359.998046875 646.334960938 367.998046875 625.001953125 c 0
 386.665039062 575.668945312 399.33203125 512.3359375 405.999023438 435.002929688 c 0
 409.999023438 389.669921875 411.999023438 352.002929688 411.999023438 322.002929688 c 0
 411.999023438 292.002929688 411 267 409 247 c 0
EndSplineSet
EndChar

StartChar: asterisk
Encoding: 42 42 11
Width: 544
GlyphClass: 2
Flags: MW
HStem: 303 84<66.3325 69 66 85.999> 315.998 56.999 315.998 69.999
VStem: 339 71.9951
LayerCount: 2
Fore
SplineSet
401 132 m 0x50
 395 128 387.33203125 126.333007812 377.999023438 127 c 0
 369.33203125 127 361.33203125 128.666992188 353.999023438 132 c 0
 346.666015625 135.333007812 341.666015625 140.666015625 338.999023438 147.999023438 c 0
 330.33203125 175.999023438 312.665039062 215.33203125 285.998046875 265.999023438 c 2
 276.998046875 282.999023438 l 1
 268.998046875 265.999023438 l 2
 236.998046875 203.33203125 217.331054688 161.999023438 209.998046875 141.999023438 c 0
 207.998046875 136.666015625 204.665039062 132.333007812 199.998046875 129 c 0
 195.331054688 126.333007812 189.998046875 124.666015625 183.998046875 123.999023438 c 2
 178.998046875 123.999023438 l 2
 166.998046875 123.999023438 156.998046875 126.33203125 148.998046875 130.999023438 c 0
 144.998046875 132.999023438 141.331054688 136.666015625 137.998046875 141.999023438 c 0
 134.665039062 147.999023438 132.33203125 154.666015625 130.999023438 161.999023438 c 2
 130.999023438 164.999023438 l 2
 130.999023438 171.666015625 132.666015625 178.333007812 135.999023438 185 c 2
 211.999023438 309 l 1
 145.33203125 305 98.9990234375 303 72.9990234375 303 c 0
 59.666015625 303 49.3330078125 307.333007812 42 316 c 0
 34.6669921875 324 31 333 31 343 c 2
 31 346 l 2
 31 356 33.6669921875 365.333007812 39 374 c 0
 41.6669921875 378.666992188 45.333984375 382 50.0009765625 384 c 0
 55.333984375 386 60.6669921875 387 66 387 c 2
 69 387 l 2x90
 99.6669921875 384.333007812 151 380.666015625 223 375.999023438 c 1
 214 391.999023438 l 2
 185.333007812 440.666015625 161.666015625 477.999023438 142.999023438 503.999023438 c 0
 136.33203125 515.33203125 132.999023438 526.33203125 132.999023438 536.999023438 c 2
 132.999023438 542.999023438 l 2
 134.33203125 553.666015625 138.665039062 560.666015625 145.998046875 563.999023438 c 1
 145.998046875 564.999023438 l 1
 151.331054688 568.33203125 157.6640625 569.999023438 164.997070312 569.999023438 c 0
 172.330078125 570.666015625 179.997070312 568.666015625 187.997070312 563.999023438 c 0
 195.997070312 559.33203125 201.997070312 552.665039062 205.997070312 543.998046875 c 0
 213.330078125 527.331054688 235.663085938 483.6640625 272.99609375 412.997070312 c 1
 280.99609375 427.997070312 l 2
 307.663085938 473.997070312 327.99609375 512.330078125 341.99609375 542.997070312 c 0
 345.99609375 550.997070312 351.663085938 557.330078125 358.99609375 561.997070312 c 0
 365.928710938 566.50390625 372.681640625 568.756835938 379.254882812 568.756835938 c 0
 385.322265625 568.756835938 391.236328125 566.836914062 396.99609375 562.997070312 c 0
 401.663085938 560.330078125 405.663085938 556.330078125 408.99609375 550.997070312 c 0
 412.329101562 545.6640625 413.99609375 538.6640625 413.99609375 529.997070312 c 0
 413.99609375 521.330078125 411.329101562 512.997070312 405.99609375 504.997070312 c 0
 384.663085938 473.6640625 360.99609375 434.6640625 334.99609375 387.997070312 c 2
 326.99609375 372.997070312 l 1
 343.99609375 372.997070312 l 2x50
 403.329101562 372.997070312 445.662109375 376.6640625 470.995117188 383.997070312 c 0
 474.328125 385.330078125 477.661132812 385.997070312 480.994140625 385.997070312 c 0
 488.327148438 385.997070312 494.66015625 383.6640625 499.993164062 378.997070312 c 0
 508.66015625 370.997070312 513.327148438 362.6640625 513.994140625 353.997070312 c 0
 513.994140625 348.6640625 513.327148438 343.331054688 511.994140625 337.998046875 c 0
 508.661132812 325.331054688 503.328125 316.998046875 495.995117188 312.998046875 c 0
 493.328125 311.665039062 490.661132812 310.998046875 487.994140625 310.998046875 c 0
 484.661132812 310.331054688 481.994140625 310.331054688 479.994140625 310.998046875 c 0
 462.661132812 314.331054688 431.994140625 315.998046875 387.994140625 315.998046875 c 0x30
 381.328125 316.33203125 372.995117188 316.499023438 362.995117188 316.499023438 c 0
 352.995117188 316.499023438 341.328125 316.33203125 327.995117188 315.998046875 c 1
 403.995117188 185.998046875 l 2
 409.328125 174.665039062 411.995117188 164.665039062 411.995117188 155.998046875 c 0
 411.328125 154.665039062 410.995117188 152.998046875 410.995117188 150.998046875 c 0
 410.328125 141.665039062 407 135.333007812 401 132 c 0x50
EndSplineSet
EndChar

StartChar: plus
Encoding: 43 43 12
Width: 544
GlyphClass: 2
Flags: MW
HStem: 367.001 63.999
VStem: 239.997 62.0029
LayerCount: 2
Fore
SplineSet
130 366 m 2
 116 366 106 369.333007812 100 376 c 0
 93.3330078125 382 90 389.666992188 90 399 c 2
 90 402 l 2
 90.6669921875 410.666992188 93.6669921875 418 99 424 c 0
 105 430 114 433 126 433 c 2
 129 433 l 2
 176.333007812 431.666992188 210.330078125 431 230.997070312 431 c 2
 239.997070312 431 l 1
 239.997070312 441 l 2
 239.997070312 474.333007812 239.333007812 510.333007812 238 549 c 2
 238 553 l 2
 238 563.666992188 241 571.333984375 247 576.000976562 c 0
 252.333007812 580.000976562 260.333007812 582.000976562 271 582.000976562 c 2
 275 582.000976562 l 2
 284.333007812 582.000976562 292 580.000976562 298 576.000976562 c 0
 302.666992188 572.66796875 305 565.66796875 305 555.000976562 c 2
 305 550.000976562 l 2
 303 511.333984375 302 474.333984375 302 439.000976562 c 2
 302 430.000976562 l 1
 422 430.000976562 l 2
 434.666992188 430.000976562 443 427.66796875 447 423.000976562 c 0
 451.666992188 417.66796875 454.333984375 410.666992188 455.000976562 402 c 0
 454.333984375 396.666992188 453.666992188 392.000976562 453 388.000976562 c 0
 452.333007812 384.000976562 450.666015625 380 447.999023438 376 c 0
 444.666015625 370.666992188 437.666015625 368.000976562 426.999023438 368.000976562 c 2
 422.999023438 368.000976562 l 2
 411.666015625 369.333984375 395.666015625 370.000976562 374.999023438 370.000976562 c 0
 354.999023438 370.000976562 330.33203125 369.66796875 300.999023438 369.000976562 c 1
 300.999023438 359.000976562 l 1
 300.999023438 295.000976562 l 2
 301.666015625 270.333984375 302 255.333984375 302 250.000976562 c 0
 301.333007812 238.000976562 298.665039062 229.66796875 293.998046875 225.000976562 c 0
 289.331054688 220.333984375 282.6640625 217.666992188 273.997070312 217 c 0
 263.330078125 217.666992188 255.330078125 220 249.997070312 224 c 0
 243.330078125 228.666992188 239.997070312 237.333984375 239.997070312 250.000976562 c 2
 239.997070312 367.000976562 l 1
 230.997070312 367.000976562 l 1
 130 366 l 2
EndSplineSet
EndChar

StartChar: comma
Encoding: 44 44 13
Width: 544
GlyphClass: 2
Flags: MW
VStem: 180 185.998
LayerCount: 2
Fore
SplineSet
216 -207 m 0
 204 -207 194.333007812 -203.333007812 187 -196 c 0
 183 -191.333007812 180.666992188 -185.666015625 180 -178.999023438 c 0
 179.333007812 -177.666015625 179 -176.666015625 179 -175.999023438 c 0
 179.666992188 -171.999023438 182 -165.999023438 186 -157.999023438 c 0
 200 -137.999023438 219.333007812 -93.666015625 244 -24.9990234375 c 0
 269.333007812 43.66796875 284.666015625 91.66796875 289.999023438 119.000976562 c 0
 291.33203125 125.66796875 294.665039062 131.000976562 299.998046875 135.000976562 c 0
 305.998046875 139.000976562 311.998046875 141.000976562 317.998046875 141.000976562 c 2
 319.998046875 141.000976562 l 2
 326.665039062 141.000976562 332.998046875 140.333984375 338.998046875 139.000976562 c 0
 347.665039062 136.333984375 354.665039062 131.333984375 359.998046875 124.000976562 c 0
 363.998046875 119.333984375 365.998046875 113.333984375 365.998046875 106.000976562 c 0
 365.998046875 104.66796875 365.665039062 102.000976562 364.998046875 98.0009765625 c 0
 358.331054688 65.333984375 343.998046875 15.333984375 321.998046875 -51.9990234375 c 0
 309.998046875 -89.33203125 299.998046875 -117.665039062 291.998046875 -136.998046875 c 0
 283.331054688 -155.665039062 276.6640625 -168.33203125 271.997070312 -174.999023438 c 0
 262.6640625 -187.666015625 250.6640625 -196.666015625 235.997070312 -201.999023438 c 0
 227.997070312 -205.33203125 221.333007812 -207 216 -207 c 0
EndSplineSet
EndChar

StartChar: hyphen
Encoding: 45 45 14
Width: 544
GlyphClass: 2
Flags: MW
HStem: 252 68<160.998 172.665> 259 61
VStem: 127.998 289.002
LayerCount: 2
Fore
SplineSet
128 290 m 2x60
 128 301.333007812 131 309.333007812 137 314 c 0
 141.666992188 318 149 320 159 320 c 0
 197 320 242.333007812 320.333007812 295 321 c 0
 347.666992188 322.333007812 377.666992188 323 385 323 c 0
 397.666992188 323 406 320.666992188 410 316 c 0
 414 310.666992188 416.333007812 303.666992188 417 295 c 0
 417 284.333007812 415 276.333007812 411 271 c 0
 406.333007812 264.333007812 397.666015625 261 384.999023438 261 c 0
 376.33203125 261 342.665039062 259.666992188 283.998046875 257 c 0
 225.331054688 253.666992188 184.331054688 252 160.998046875 252 c 0xa0
 150.331054688 252.666992188 142.331054688 255 136.998046875 259 c 0
 130.998046875 264.333007812 127.998046875 273.333007812 127.998046875 286 c 2
 128 290 l 2x60
EndSplineSet
EndChar

StartChar: period
Encoding: 46 46 15
Width: 544
GlyphClass: 2
Flags: MW
HStem: -4 134.053
VStem: 201.001 143.001
LayerCount: 2
Fore
SplineSet
274 -4 m 2
 265 -4 l 2
 264.086914062 -4.03515625 263.182617188 -4.052734375 262.287109375 -4.052734375 c 0
 246.166015625 -4.052734375 232.737304688 1.6318359375 222.000976562 13 c 0
 208.000976562 27.6669921875 201.000976562 44.6669921875 201.000976562 64 c 0
 201.000976562 81.3330078125 208.333984375 96.3330078125 223.000976562 109 c 0
 239.66796875 123 258.334960938 130 279.001953125 130 c 0
 279.984375 130.03515625 280.958007812 130.052734375 281.922851562 130.052734375 c 0
 299.274414062 130.052734375 313.633789062 124.368164062 325.001953125 113 c 0
 337.668945312 100.333007812 344.001953125 84.666015625 344.001953125 65.9990234375 c 0
 344.001953125 47.33203125 337.668945312 31.6650390625 325.001953125 18.998046875 c 0
 313.001953125 6.3310546875 296 -1.3330078125 274 -4 c 2
EndSplineSet
EndChar

StartChar: slash
Encoding: 47 47 16
Width: 544
GlyphClass: 2
Flags: W
LayerCount: 2
Fore
SplineSet
32 -9 m 0
 32 5 35.6669921875 17.6669921875 43 29 c 0
 140.333007812 189 223.666015625 331.333007812 292.999023438 456 c 0
 336.999023438 532.666992188 383.33203125 619.666992188 431.999023438 717 c 0
 436.666015625 725.666992188 442.666015625 732.333984375 449.999023438 737.000976562 c 0
 457.33203125 741.66796875 464.33203125 744.000976562 470.999023438 744.000976562 c 0
 478.33203125 744.000976562 485.999023438 742.333984375 493.999023438 739.000976562 c 0
 502.666015625 733.66796875 508.333007812 726.334960938 511 717.001953125 c 0
 511.666992188 715.001953125 512 712.334960938 512 709.001953125 c 0
 512 704.334960938 509.666992188 695.001953125 505 681.001953125 c 0
 487.666992188 646.334960938 439 562.66796875 359 430.000976562 c 0
 279 297.333984375 230.333007812 214.666992188 213 182 c 0
 205 166.666992188 187.666992188 131.666992188 161 77 c 0
 137 28.3330078125 122 -1.333984375 116 -12.0009765625 c 0
 106.666992188 -28.66796875 94.6669921875 -40.3349609375 80 -47.001953125 c 0
 73.3330078125 -50.3349609375 67.3330078125 -52.001953125 62 -52.001953125 c 0
 56 -52.001953125 50.6669921875 -50.3349609375 46 -47.001953125 c 0
 38.6669921875 -43.001953125 34.333984375 -33.3349609375 33.0009765625 -18.001953125 c 0
 32.333984375 -14.6689453125 32 -11.6669921875 32 -9 c 0
EndSplineSet
EndChar

StartChar: zero
Encoding: 48 48 17
Width: 544
GlyphClass: 2
Flags: MW
HStem: -14.998 65.001 646.003 61.999
VStem: 57.0029 79 413.004 74.998
LayerCount: 2
Fore
SplineSet
58 391 m 0
 58.6669921875 418.333007812 60.333984375 441.83203125 63.0009765625 461.499023438 c 0
 65.66796875 481.166015625 69.3349609375 502.333007812 74.001953125 525 c 0
 78.6689453125 547.666992188 84.001953125 567.666992188 90.001953125 585 c 0
 105.334960938 625.666992188 131.334960938 656.333984375 168.001953125 677.000976562 c 0
 201.334960938 697.66796875 242.001953125 708.000976562 290.001953125 708.000976562 c 0
 313.334960938 708.000976562 335.334960938 703.66796875 356.001953125 695.000976562 c 0
 378.001953125 686.333984375 398.001953125 673.500976562 416.001953125 656.500976562 c 0
 434.001953125 639.500976562 449.001953125 617.000976562 461.001953125 589.000976562 c 0
 473.001953125 561.000976562 480.668945312 529.000976562 484.001953125 493.000976562 c 0
 486.668945312 453.000976562 488.001953125 409.333984375 488.001953125 362.000976562 c 0
 488.001953125 326.000976562 486.834960938 288.16796875 484.501953125 248.500976562 c 0
 482.168945312 208.833984375 478.001953125 178.000976562 472.001953125 156.000976562 c 0
 460.668945312 114.000976562 446.668945312 80.333984375 430.001953125 55.0009765625 c 0
 422.001953125 43.0009765625 413.001953125 33.0009765625 403.001953125 25.0009765625 c 0
 393.001953125 17.0009765625 382.668945312 10.333984375 372.001953125 5.0009765625 c 0
 362.668945312 -0.33203125 351.3359375 -4.4990234375 338.002929688 -7.4990234375 c 0
 324.669921875 -10.4990234375 311.669921875 -12.4990234375 299.002929688 -13.4990234375 c 0
 286.3359375 -14.4990234375 271.002929688 -14.9990234375 253.002929688 -14.9990234375 c 0
 225.669921875 -14.33203125 200.669921875 -8.6650390625 178.002929688 2.001953125 c 0
 152.669921875 12.6689453125 131.002929688 27.501953125 113.002929688 46.501953125 c 0
 95.0029296875 65.501953125 81.169921875 89.001953125 71.5029296875 117.001953125 c 0
 61.8359375 145.001953125 57.0029296875 175.334960938 57.0029296875 208.001953125 c 2
 57.0029296875 214.001953125 l 1
 57.0029296875 309.001953125 l 2
 56.7802734375 316.125976562 56.6689453125 323.918945312 56.6689453125 332.380859375 c 0
 56.6689453125 349.258789062 57.1123046875 368.797851562 58 391 c 0
192.001953125 613.000976562 m 0
 170.668945312 591.000976562 154.334960938 555.998046875 143.001953125 507.998046875 c 0
 139.001953125 490.665039062 136.001953125 470.665039062 134.001953125 447.998046875 c 0
 132.3359375 428.33203125 131.502929688 402.166015625 131.502929688 369.5 c 0
 131.502929688 336.833984375 132.3359375 297.66796875 134.002929688 252.001953125 c 0
 134.669921875 234.001953125 135.169921875 222.501953125 135.502929688 217.501953125 c 0
 135.8359375 212.501953125 136.002929688 209.001953125 136.002929688 207.001953125 c 2
 136.002929688 177.001953125 l 1
 154.002929688 201.001953125 l 1
 236.669921875 323.001953125 311.002929688 448.668945312 377.002929688 578.001953125 c 2
 380.002929688 584.001953125 l 1
 376.002929688 589.001953125 l 2
 364.002929688 607.001953125 349.502929688 621.001953125 332.502929688 631.001953125 c 0
 315.502929688 641.001953125 296.669921875 646.001953125 276.002929688 646.001953125 c 0
 240.002929688 646.001953125 212.001953125 635.000976562 192.001953125 613.000976562 c 0
298.501953125 54.9990234375 m 0
 312.168945312 58.33203125 325.3359375 63.9990234375 338.002929688 71.9990234375 c 0
 363.3359375 88.666015625 383.002929688 119.666015625 397.002929688 164.999023438 c 0
 399.669921875 173.666015625 402.502929688 196.166015625 405.502929688 232.499023438 c 0
 408.502929688 268.83203125 410.669921875 310.33203125 412.002929688 356.999023438 c 0
 412.669921875 369.666015625 413.002929688 381.999023438 413.002929688 393.999023438 c 0
 413.002929688 427.999023438 411.669921875 460.666015625 409.002929688 491.999023438 c 2
 406.002929688 526.999023438 l 1
 390.002929688 494.999023438 l 1
 324.002929688 349.666015625 246.669921875 227.666015625 158.002929688 128.999023438 c 1
 154.002929688 123.999023438 l 1
 156.002929688 117.999023438 l 2
 167.3359375 93.33203125 182.3359375 75.33203125 201.002929688 63.9990234375 c 0
 215.669921875 54.666015625 233.002929688 49.9990234375 253.002929688 49.9990234375 c 0
 269.669921875 49.9990234375 284.834960938 51.666015625 298.501953125 54.9990234375 c 0
EndSplineSet
EndChar

StartChar: one
Encoding: 49 49 18
Width: 544
GlyphClass: 2
Flags: MW
HStem: 1 64.9961<453.999 455.999 453.666 462.333> 520.999 21G
VStem: 239.998 70 250.998 61
LayerCount: 2
Fore
SplineSet
487 59 m 0xe0
 493 53 496 45 496 35 c 0
 496 25 493.166992188 16.8330078125 487.5 10.5 c 0
 481.833007812 4.1669921875 470.666015625 1 453.999023438 1 c 0
 230.666015625 3 106.666015625 4 81.9990234375 4 c 0
 69.9990234375 4 61.4990234375 7.1669921875 56.4990234375 13.5 c 0
 51.4990234375 19.8330078125 48.9990234375 28 48.9990234375 38 c 2
 48.9990234375 41 l 2
 48.9990234375 50.3330078125 51.4990234375 58.3330078125 56.4990234375 65 c 0
 61.4990234375 71.6669921875 70.33203125 75 82.9990234375 75 c 0
 112.33203125 75 164.665039062 74.3330078125 239.998046875 73 c 1
 239.998046875 83 l 2xe0
 239.998046875 109 239.665039062 127.666992188 238.998046875 139 c 0
 238.331054688 150.333007812 237.998046875 160.666015625 237.998046875 169.999023438 c 0
 237.998046875 180.666015625 238.331054688 212.333007812 238.998046875 265 c 0
 238.998046875 278.333007812 240.498046875 328.666015625 243.498046875 415.999023438 c 0
 246.498046875 503.33203125 248.998046875 567.999023438 250.998046875 609.999023438 c 1
 234.998046875 595.999023438 l 2
 190.998046875 555.999023438 157.998046875 531.666015625 135.998046875 522.999023438 c 0
 132.665039062 521.666015625 129.665039062 520.999023438 126.998046875 520.999023438 c 0
 120.998046875 520.999023438 113.998046875 524.33203125 105.998046875 530.999023438 c 0
 95.3310546875 540.33203125 89.998046875 549.33203125 89.998046875 557.999023438 c 2
 89.998046875 558.999023438 l 1
 89.998046875 559.999023438 l 2
 89.998046875 568.666015625 91.998046875 576.666015625 95.998046875 583.999023438 c 0
 99.998046875 591.33203125 107.331054688 598.999023438 117.998046875 606.999023438 c 0
 137.998046875 622.33203125 158.331054688 638.665039062 178.998046875 655.998046875 c 2
 220.998046875 693.998046875 l 2
 228.998046875 701.331054688 237.165039062 707.6640625 245.498046875 712.997070312 c 0
 253.831054688 718.330078125 260.6640625 720.997070312 265.997070312 720.997070312 c 0
 277.330078125 720.997070312 288.997070312 715.6640625 300.997070312 704.997070312 c 0
 307.6640625 698.997070312 312.331054688 693.6640625 314.998046875 688.997070312 c 0
 316.998046875 686.330078125 317.998046875 683.997070312 317.998046875 681.997070312 c 0
 317.331054688 665.997070312 315.331054688 611.330078125 311.998046875 517.997070312 c 0xd0
 308.665039062 424.6640625 306.998046875 369.997070312 306.998046875 353.997070312 c 0
 306.998046875 237.330078125 307.998046875 142.663085938 309.998046875 69.99609375 c 1
 353.331054688 68.6630859375 387.331054688 67.6630859375 411.998046875 66.99609375 c 0
 436.665039062 66.3291015625 451.33203125 65.99609375 455.999023438 65.99609375 c 0
 457.705078125 66.0703125 459.349609375 66.107421875 460.931640625 66.107421875 c 0
 473.5703125 66.107421875 482.260742188 63.7392578125 487 59 c 0xe0
EndSplineSet
EndChar

StartChar: two
Encoding: 50 50 19
Width: 544
GlyphClass: 2
Flags: MW
HStem: -8 64.0029 -1.99512 68.998 647.002 64.998
VStem: 58 81.0029 392.001 80.002
LayerCount: 2
Fore
SplineSet
258 -8 m 0xb8
 228.666992188 -9.3330078125 199 -10 169 -10 c 0
 135.666992188 -9.3330078125 109.666992188 -8 91 -6 c 0
 85 -5.3330078125 80 -3.166015625 76 0.5009765625 c 0
 72 4.16796875 69 9.0009765625 67 15.0009765625 c 0
 61 30.333984375 58 52.5009765625 58 81.5009765625 c 0
 58 110.500976562 64 140.16796875 76 170.500976562 c 0
 88 200.833984375 105.833007812 230.000976562 129.5 258.000976562 c 0
 153.166992188 286.000976562 179.333984375 308.66796875 208.000976562 326.000976562 c 0
 273.333984375 366.66796875 315.333984375 395.000976562 334.000976562 411.000976562 c 0
 360.66796875 433.66796875 378.000976562 458.334960938 386.000976562 485.001953125 c 0
 390.000976562 499.668945312 392.000976562 517.668945312 392.000976562 539.001953125 c 0
 392.000976562 577.001953125 381.000976562 604.668945312 359.000976562 622.001953125 c 0
 339.000976562 638.668945312 311.000976562 647.001953125 275.000976562 647.001953125 c 0
 249.66796875 647.001953125 225.66796875 638.668945312 203.000976562 622.001953125 c 0
 180.333984375 605.334960938 162.000976562 586.66796875 148.000976562 566.000976562 c 0
 142.000976562 558.000976562 137.000976562 552.16796875 133.000976562 548.500976562 c 0
 129.000976562 544.833984375 125.000976562 542.666992188 121.000976562 542 c 2
 115.500976562 542 l 2
 113.16796875 542 110.334960938 542.333007812 107.001953125 543 c 0
 103.668945312 543.666992188 98.3359375 545.666992188 91.0029296875 549 c 0
 82.3359375 553.666992188 77.0029296875 560 75.0029296875 568 c 2
 75.0029296875 575 l 2
 74.9365234375 575.799804688 74.9033203125 576.623046875 74.9033203125 577.469726562 c 0
 74.9033203125 585.08984375 77.603515625 594.599609375 83.0029296875 606 c 0
 89.0029296875 617.333007812 98.3359375 629.166015625 111.002929688 641.499023438 c 0
 123.669921875 653.83203125 138.336914062 665.33203125 155.00390625 675.999023438 c 0
 171.670898438 686.666015625 190.00390625 695.333007812 210.00390625 702 c 0
 230.00390625 708.666992188 250.336914062 712 271.00390625 712 c 0
 334.336914062 712 383.669921875 696.333007812 419.002929688 665 c 0
 454.3359375 633.666992188 472.002929688 586 472.002929688 522 c 0
 472.002929688 469.333007812 458.669921875 427 432.002929688 395 c 0
 411.3359375 371.666992188 376.3359375 345.333984375 327.002929688 316.000976562 c 0
 311.669921875 306.000976562 291.002929688 293.333984375 265.002929688 278.000976562 c 0
 237.669921875 262.66796875 215.002929688 243.334960938 197.002929688 220.001953125 c 0
 178.3359375 196.668945312 164.502929688 172.8359375 155.502929688 148.502929688 c 0
 146.502929688 124.169921875 141.002929688 98.0029296875 139.002929688 70.0029296875 c 2
 139.002929688 60.0029296875 l 1
 184.3359375 57.3359375 225.002929688 56.0029296875 261.002929688 56.0029296875 c 0xb8
 287.002929688 56.0029296875 308.3359375 56.669921875 325.002929688 58.0029296875 c 0
 341.669921875 59.3359375 363.669921875 61.0029296875 391.002929688 63.0029296875 c 0
 419.669921875 65.0029296875 438.002929688 66.3359375 446.002929688 67.0029296875 c 2
 456.002929688 67.0029296875 l 2
 459.115234375 67.2255859375 461.8203125 67.3369140625 464.1171875 67.3369140625 c 0
 468.708007812 67.3369140625 471.669921875 66.892578125 473.002929688 66.00390625 c 0
 475.002929688 65.3369140625 477.3359375 64.00390625 480.002929688 62.00390625 c 0
 482.002929688 60.6708984375 483.3359375 59.337890625 484.002929688 58.0048828125 c 0
 486.002929688 54.0048828125 487.002929688 48.337890625 487.002929688 41.0048828125 c 0
 487.002929688 26.337890625 483.3359375 14.337890625 476.002929688 5.0048828125 c 0
 472.669921875 0.337890625 468.336914062 -1.9951171875 463.00390625 -1.9951171875 c 0x78
 415.00390625 -1.9951171875 346.666992188 -4 258 -8 c 0xb8
EndSplineSet
EndChar

StartChar: three
Encoding: 51 51 20
Width: 544
GlyphClass: 2
Flags: MW
HStem: -14.998 64.998 328.002 81.002 647.004 65.001
VStem: 377.997 81 400.996 80.002
LayerCount: 2
Fore
SplineSet
458 532 m 0xf0
 458.666992188 530.666992188 458.997070312 529.333984375 458.997070312 528.000976562 c 0xf0
 458.997070312 511.333984375 456.5 495.833984375 451.5 481.500976562 c 0
 446.5 467.16796875 440 455.16796875 432 445.500976562 c 0
 424 435.833984375 414.166992188 427.000976562 402.5 419.000976562 c 0
 390.833007812 411.000976562 378.666015625 404.66796875 365.999023438 400.000976562 c 0
 354.666015625 395.333984375 342.666015625 391.666992188 329.999023438 389 c 2
 287.999023438 380 l 1
 329.999023438 370 l 2
 353.999023438 364.666992188 375.166015625 357.833984375 393.499023438 349.500976562 c 0
 411.83203125 341.16796875 427.665039062 330.500976562 440.998046875 317.500976562 c 0
 454.331054688 304.500976562 464.331054688 288.333984375 470.998046875 269.000976562 c 0
 477.665039062 249.66796875 480.998046875 226.334960938 480.998046875 199.001953125 c 0
 480.998046875 133.668945312 460.665039062 81.6689453125 419.998046875 43.001953125 c 0
 379.998046875 4.3349609375 326.998046875 -14.998046875 260.998046875 -14.998046875 c 0
 240.998046875 -14.998046875 220.998046875 -11.6650390625 200.998046875 -4.998046875 c 0
 179.665039062 2.3349609375 160.498046875 11.16796875 143.498046875 21.5009765625 c 0
 126.498046875 31.833984375 111.831054688 43.1669921875 99.498046875 55.5 c 0
 87.1650390625 67.8330078125 77.998046875 80 71.998046875 92 c 0
 66.6650390625 102 63.998046875 111.333007812 63.998046875 120 c 0
 63.998046875 122.666992188 64.3310546875 125.333984375 64.998046875 128.000976562 c 0
 66.998046875 137.333984375 71.998046875 144.000976562 79.998046875 148.000976562 c 0
 87.3310546875 152.000976562 94.3310546875 154.000976562 100.998046875 154.000976562 c 0
 103.665039062 154.000976562 106.33203125 153.66796875 108.999023438 153.000976562 c 0
 118.33203125 150.333984375 127.665039062 143.000976562 136.998046875 131.000976562 c 0
 152.331054688 110.333984375 171.6640625 91.6669921875 194.997070312 75 c 0
 216.330078125 58.3330078125 239.663085938 50 264.99609375 50 c 0
 302.99609375 50 334.329101562 62.3330078125 358.99609375 87 c 0
 386.99609375 111.666992188 400.99609375 143.333984375 400.99609375 182.000976562 c 0xe8
 400.99609375 204.66796875 397.329101562 224.834960938 389.99609375 242.501953125 c 0
 382.663085938 260.168945312 371.330078125 275.668945312 355.997070312 289.001953125 c 0
 327.997070312 315.001953125 280.997070312 328.001953125 214.997070312 328.001953125 c 0
 204.997070312 328.001953125 196.330078125 332.334960938 188.997070312 341.001953125 c 0
 181.6640625 349.668945312 177.997070312 359.8359375 177.997070312 371.502929688 c 0
 177.997070312 383.169921875 180.6640625 392.336914062 185.997070312 399.00390625 c 0
 190.6640625 405.670898438 197.997070312 409.00390625 207.997070312 409.00390625 c 0
 259.997070312 409.00390625 300.997070312 420.670898438 330.997070312 444.00390625 c 0
 362.330078125 467.336914062 377.997070312 501.00390625 377.997070312 545.00390625 c 2
 377.997070312 549.00390625 l 1
 377.997070312 553.00390625 l 2
 378.016601562 553.899414062 378.026367188 554.7890625 378.026367188 555.671875 c 0
 378.026367188 585.68359375 367.016601562 608.4609375 344.997070312 624.00390625 c 0
 323.6640625 639.336914062 293.6640625 647.00390625 254.997070312 647.00390625 c 0
 242.330078125 647.00390625 228.997070312 644.670898438 214.997070312 640.00390625 c 0
 210.330078125 638.00390625 205.330078125 634.670898438 199.997070312 630.00390625 c 0
 194.6640625 625.336914062 190.331054688 621.669921875 186.998046875 619.002929688 c 0
 183.665039062 616.3359375 179.498046875 611.8359375 174.498046875 605.502929688 c 0
 169.498046875 599.169921875 165.998046875 594.836914062 163.998046875 592.50390625 c 0
 161.998046875 590.170898438 158.665039062 585.337890625 153.998046875 578.004882812 c 0
 144.665039062 565.337890625 135.665039062 558.004882812 126.998046875 556.004882812 c 0
 124.331054688 555.337890625 121.6640625 555.004882812 118.997070312 555.004882812 c 0
 112.330078125 555.004882812 104.997070312 557.004882812 96.9970703125 561.004882812 c 0
 88.9970703125 565.004882812 83.9970703125 571.671875 81.9970703125 581.004882812 c 0
 81.330078125 583.004882812 80.9970703125 585.337890625 80.9970703125 588.004882812 c 0
 80.9970703125 596.671875 83.6640625 606.338867188 88.9970703125 617.005859375 c 0
 101.6640625 642.338867188 120.997070312 664.005859375 146.997070312 682.005859375 c 0
 160.330078125 691.338867188 176.330078125 698.671875 194.997070312 704.004882812 c 0
 212.330078125 709.337890625 230.997070312 712.004882812 250.997070312 712.004882812 c 0
 389.6640625 712.004882812 458.997070312 653.337890625 458.997070312 536.004882812 c 0
 458.330078125 534.671875 458 533.333007812 458 532 c 0xf0
EndSplineSet
EndChar

StartChar: four
Encoding: 52 52 21
Width: 544
GlyphClass: 2
Flags: MW
HStem: -13.998 21G 234 61.002 696.001 20G
VStem: 342.002 65.499 349 67.001 349 75.001
LayerCount: 2
Fore
SplineSet
364 -1 m 0xf0
 354.666992188 7 349.666992188 14.6669921875 349 22 c 2
 349 60 l 1xe4
 349 233 l 1xe8
 327.666992188 233.666992188 310 234 296 234 c 0
 208 233.333007812 143.333007812 228.666015625 102 219.999023438 c 0
 98 219.33203125 94 218.999023438 90 218.999023438 c 0
 86 218.999023438 82 219.666015625 78 220.999023438 c 0
 72 223.666015625 67 227.333007812 63 232 c 0
 53.6669921875 244 49 258.333007812 49 275 c 0
 49 283 50.3330078125 291 53 299 c 0
 59.6669921875 317.666992188 77.333984375 347.833984375 106.000976562 389.500976562 c 0
 134.66796875 431.16796875 170.66796875 483.000976562 214.000976562 545.000976562 c 0
 256.66796875 607.000976562 287.000976562 652.333984375 305.000976562 681.000976562 c 0
 312.333984375 692.333984375 320.333984375 700.833984375 329.000976562 706.500976562 c 0
 337.66796875 712.16796875 345.66796875 715.000976562 353.000976562 715.000976562 c 0
 355.000976562 715.66796875 357.000976562 716.000976562 359.000976562 716.000976562 c 0
 367.000976562 716.000976562 375.000976562 713.66796875 383.000976562 709.000976562 c 0
 391.000976562 704.333984375 396.000976562 696.333984375 398.000976562 685.000976562 c 0
 402.000976562 662.333984375 405.16796875 626.833984375 407.500976562 578.500976562 c 0xf0
 409.833984375 530.16796875 411.333984375 489.334960938 412.000976562 456.001953125 c 2
 415.000976562 294.001953125 l 1
 432.333984375 292.668945312 447.833984375 292.001953125 461.500976562 292.001953125 c 0
 475.16796875 292.001953125 484.16796875 289.501953125 488.500976562 284.501953125 c 0
 492.833984375 279.501953125 495.333984375 272.668945312 496.000976562 264.001953125 c 0
 496.000976562 253.334960938 494.000976562 245.334960938 490.000976562 240.001953125 c 0
 484.66796875 233.334960938 475.500976562 230.001953125 462.500976562 230.001953125 c 0
 449.500976562 230.001953125 434.000976562 230.668945312 416.000976562 232.001953125 c 1xe8
 416.66796875 126.668945312 418.66796875 67.001953125 422.000976562 53.001953125 c 0
 423.333984375 45.6689453125 424.000976562 39.001953125 424.000976562 33.001953125 c 0xe4
 424.66796875 22.3349609375 422.66796875 12.66796875 418.000976562 4.0009765625 c 0
 415.333984375 -1.33203125 411.833984375 -5.6650390625 407.500976562 -8.998046875 c 0
 403.16796875 -12.3310546875 398.000976562 -13.998046875 392.000976562 -13.998046875 c 0
 382.66796875 -13.3310546875 373.333007812 -9 364 -1 c 0xf0
342.001953125 603.001953125 m 2xf0
 341.001953125 629.001953125 l 1
 326.001953125 608.001953125 l 2
 235.334960938 478.001953125 173.001953125 377.001953125 139.001953125 305.001953125 c 2
 132.001953125 290.001953125 l 1
 148.001953125 291.001953125 l 2
 183.334960938 293.668945312 226.001953125 295.001953125 276.001953125 295.001953125 c 0
 296.001953125 295.001953125 320.334960938 294.668945312 349.001953125 294.001953125 c 1
 349.001953125 304.001953125 l 2
 349.001953125 429.334960938 346.668945312 529.001953125 342.001953125 603.001953125 c 2xf0
EndSplineSet
EndChar

StartChar: five
Encoding: 53 53 22
Width: 544
GlyphClass: 2
Flags: MW
HStem: -7.99902 64.999 430 69.9971 628.997 69.002 639.996 60.0029
VStem: 64 73.999 72 67.999 410.999 80
LayerCount: 2
Fore
SplineSet
473 166 m 0xd6
 461 127.333007812 444.166992188 95.3330078125 422.5 70 c 0
 400.833007812 44.6669921875 376 25.333984375 348 12.0009765625 c 0
 320.666992188 -1.33203125 290.666992188 -7.9990234375 258 -7.9990234375 c 0
 232.666992188 -7.9990234375 209 -4.9990234375 187 1.0009765625 c 0
 163.666992188 7.0009765625 144 14.833984375 128 24.5009765625 c 0
 112 34.16796875 98.6669921875 44.66796875 88 56.0009765625 c 0
 77.3330078125 67.333984375 68.666015625 79.0009765625 61.9990234375 91.0009765625 c 0
 56.666015625 103.66796875 53.9990234375 114.000976562 53.9990234375 122.000976562 c 0
 53.9990234375 133.333984375 59.666015625 141.666992188 70.9990234375 147 c 0
 82.33203125 152.333007812 90.33203125 155 94.9990234375 155 c 0
 96.9990234375 154.333007812 98.666015625 154 99.9990234375 154 c 0
 103.999023438 154 107.999023438 152 111.999023438 148 c 0
 115.999023438 144 120.999023438 138 126.999023438 130 c 0
 159.666015625 81.3330078125 200.666015625 57 249.999023438 57 c 0
 297.999023438 57 336.33203125 78 364.999023438 120 c 0
 395.666015625 161.333007812 410.999023438 216.333007812 410.999023438 285 c 0
 410.999023438 328.333007812 400.999023438 363 380.999023438 389 c 0
 361.666015625 416.333007812 333.333007812 430 296 430 c 0
 280 430 263.333007812 428 246 424 c 0
 236.666992188 421.333007812 224.333984375 415.666015625 209.000976562 406.999023438 c 0
 205.000976562 404.999023438 199.833984375 401.166015625 193.500976562 395.499023438 c 0
 187.16796875 389.83203125 183.000976562 385.999023438 181.000976562 383.999023438 c 0
 171.000976562 374.666015625 162.66796875 366.666015625 156.000976562 359.999023438 c 0
 145.333984375 350.666015625 132.333984375 345.333007812 117.000976562 344 c 2
 113.000976562 344 l 2
 106.333984375 344 100.000976562 345.333007812 94.0009765625 348 c 0
 85.333984375 351.333007812 78.6669921875 359.666015625 74 372.999023438 c 0
 68.6669921875 388.33203125 65.6669921875 407.33203125 65 429.999023438 c 0
 64.3330078125 440.666015625 64 450.999023438 64 460.999023438 c 0xda
 64 485.666015625 65.6669921875 520.666015625 69 565.999023438 c 0
 71 590.666015625 72 607.999023438 72 617.999023438 c 2
 72 620.999023438 l 1
 70 622.999023438 l 2
 64 632.999023438 61 644.999023438 61 658.999023438 c 0
 61 674.33203125 65.3330078125 686.33203125 74 694.999023438 c 0
 79.3330078125 700.33203125 85.3330078125 702.999023438 92 702.999023438 c 0
 116.666992188 702.33203125 172 701.33203125 258 699.999023438 c 0xd6
 342.666992188 698.666015625 409 697.999023438 457 697.999023438 c 0
 461.666992188 697.999023438 466 695.666015625 470 690.999023438 c 0
 474.666992188 684.999023438 477.666992188 677.83203125 479 669.499023438 c 0
 480.333007812 661.166015625 480.666015625 653.666015625 479.999023438 646.999023438 c 0
 479.33203125 640.33203125 477.499023438 636.165039062 474.499023438 634.498046875 c 0
 471.499023438 632.831054688 469.166015625 631.6640625 467.499023438 630.997070312 c 0
 465.83203125 630.330078125 462.999023438 629.830078125 458.999023438 629.497070312 c 0
 454.999023438 629.1640625 452.166015625 628.997070312 450.499023438 628.997070312 c 0xe6
 448.83203125 628.997070312 445.165039062 629.1640625 439.498046875 629.497070312 c 0
 433.831054688 629.830078125 428.498046875 630.163085938 423.498046875 630.49609375 c 0
 418.498046875 630.829101562 403.998046875 631.99609375 379.998046875 633.99609375 c 0
 357.998046875 635.99609375 338.331054688 637.49609375 320.998046875 638.49609375 c 0
 303.665039062 639.49609375 279.83203125 639.99609375 249.499023438 639.99609375 c 0
 219.166015625 639.99609375 183.666015625 638.663085938 142.999023438 635.99609375 c 1
 142.33203125 623.329101562 141.33203125 600.99609375 139.999023438 568.99609375 c 0xd6
 138.666015625 536.99609375 137.999023438 516.663085938 137.999023438 507.99609375 c 0xda
 137.999023438 499.329101562 138.166015625 490.829101562 138.499023438 482.49609375 c 0
 138.83203125 474.163085938 139.33203125 451.330078125 139.999023438 413.997070312 c 1
 155.999023438 431.997070312 l 2
 173.33203125 451.330078125 195.83203125 467.497070312 223.499023438 480.497070312 c 0
 251.166015625 493.497070312 282.999023438 499.997070312 318.999023438 499.997070312 c 0
 344.999023438 499.997070312 368.666015625 494.6640625 389.999023438 483.997070312 c 0
 412.666015625 473.330078125 431.166015625 458.997070312 445.499023438 440.997070312 c 0
 459.83203125 422.997070312 470.999023438 401.497070312 478.999023438 376.497070312 c 0
 486.999023438 351.497070312 490.999023438 324.6640625 490.999023438 295.997070312 c 0
 490.999023438 247.997070312 485 204.666992188 473 166 c 0xd6
EndSplineSet
EndChar

StartChar: six
Encoding: 54 54 23
Width: 544
GlyphClass: 2
Flags: MW
HStem: -13 64.998 401.999 69.999
VStem: 52.001 69.999 415 78.002
LayerCount: 2
Fore
SplineSet
475 144 m 0
 463 112 446.833007812 84.5 426.5 61.5 c 0
 406.166992188 38.5 382.333984375 20.3330078125 355.000976562 7 c 0
 329.000976562 -6.3330078125 301.66796875 -13 273.000976562 -13 c 0
 237.000976562 -13 205.66796875 -5.3330078125 179.000976562 10 c 0
 149.66796875 25.3330078125 125.66796875 47.166015625 107.000976562 75.4990234375 c 0
 88.333984375 103.83203125 74.5009765625 137.499023438 65.5009765625 176.499023438 c 0
 56.5009765625 215.499023438 52.0009765625 258.666015625 52.0009765625 305.999023438 c 0
 52.0009765625 365.999023438 57.66796875 419.999023438 69.0009765625 467.999023438 c 0
 79.66796875 512.666015625 94.16796875 550.333007812 112.500976562 581 c 0
 130.833984375 611.666992188 153.333984375 637.333984375 180.000976562 658.000976562 c 0
 204.66796875 679.333984375 231.334960938 695.333984375 260.001953125 706.000976562 c 0
 288.668945312 716.66796875 320.668945312 723.66796875 356.001953125 727.000976562 c 2
 362.001953125 727.000976562 l 2
 372.001953125 727.000976562 381.001953125 725.000976562 389.001953125 721.000976562 c 0
 397.001953125 717.000976562 401.668945312 710.333984375 403.001953125 701.000976562 c 2
 403.001953125 700.000976562 l 2
 403.001953125 695.333984375 400.001953125 689.666992188 394.001953125 683 c 0
 386.668945312 674.333007812 378.668945312 668.666015625 370.001953125 665.999023438 c 0
 363.334960938 663.999023438 353.001953125 661.499023438 339.001953125 658.499023438 c 0
 325.001953125 655.499023438 313.001953125 652.33203125 303.001953125 648.999023438 c 0
 293.001953125 645.666015625 281.334960938 640.999023438 268.001953125 634.999023438 c 0
 241.334960938 622.33203125 214.334960938 598.999023438 187.001953125 564.999023438 c 0
 172.334960938 546.33203125 158.66796875 521.665039062 146.000976562 490.998046875 c 0
 133.333984375 460.331054688 125.333984375 432.998046875 122.000976562 408.998046875 c 2
 118.000976562 375.998046875 l 1
 139.000976562 400.998046875 l 2
 159.000976562 424.331054688 183.66796875 441.998046875 213.000976562 453.998046875 c 0
 241.66796875 465.998046875 274.000976562 471.998046875 310.000976562 471.998046875 c 0
 336.66796875 471.331054688 360.66796875 466.998046875 382.000976562 458.998046875 c 0
 404.66796875 450.998046875 424.334960938 438.165039062 441.001953125 420.498046875 c 0
 457.668945312 402.831054688 470.501953125 379.498046875 479.501953125 350.498046875 c 0
 488.501953125 321.498046875 493.001953125 286.665039062 493.001953125 245.998046875 c 0
 493.001953125 209.998046875 487 176 475 144 c 0
124.001953125 228.998046875 m 0
 126.668945312 196.331054688 136.668945312 164.998046875 154.001953125 134.998046875 c 0
 162.668945312 118.998046875 172.668945312 104.998046875 184.001953125 92.998046875 c 0
 194.668945312 80.3310546875 207.668945312 70.3310546875 223.001953125 62.998046875 c 0
 238.334960938 55.6650390625 254.66796875 51.998046875 272.000976562 51.998046875 c 2
 274.000976562 51.998046875 l 2
 298.66796875 51.998046875 321.66796875 61.3310546875 343.000976562 79.998046875 c 0
 364.333984375 97.998046875 381.666992188 120.998046875 395 148.998046875 c 0
 408.333007812 176.998046875 415 205.331054688 415 233.998046875 c 0
 415 266.665039062 412 294.165039062 406 316.498046875 c 0
 400 338.831054688 390.666992188 356.331054688 378 368.998046875 c 0
 366 381.665039062 352.666992188 390.33203125 338 394.999023438 c 0
 323.333007812 399.666015625 306 401.999023438 286 401.999023438 c 0
 254 401.999023438 224 392.999023438 196 374.999023438 c 0
 167.333007812 356.999023438 143.333007812 333.999023438 124 305.999023438 c 1
 122 303.999023438 l 1
 122 300.999023438 l 2
 122 269.666015625 122.668945312 245.665039062 124.001953125 228.998046875 c 0
EndSplineSet
EndChar

StartChar: seven
Encoding: 55 55 24
Width: 544
GlyphClass: 2
Flags: MW
HStem: -14 21G<119.669 125.003> 632.8 71.2011
LayerCount: 2
Fore
SplineSet
469.5 693.5 m 0
 475.166992188 691.166992188 480.333984375 687.333984375 485.000976562 682.000976562 c 0
 489.66796875 676.66796875 492.000976562 669.66796875 492.000976562 661.000976562 c 0
 492.000976562 652.333984375 489.333984375 641.666992188 484.000976562 629 c 0
 474.66796875 609 457.834960938 579 433.501953125 539 c 0
 409.168945312 499 384.3359375 457.666992188 359.002929688 415 c 0
 335.002929688 373 305.669921875 316.833007812 271.002929688 246.5 c 0
 236.3359375 176.166992188 203.668945312 104 173.001953125 30 c 0
 165.668945312 14 156.3359375 2.3330078125 145.002929688 -5 c 0
 137.002929688 -11 129.002929688 -14 121.002929688 -14 c 0
 118.3359375 -14 116.002929688 -13.6669921875 114.002929688 -13 c 0
 103.3359375 -10.3330078125 95.6689453125 -3.8330078125 91.001953125 6.5 c 0
 88.9599609375 11.0205078125 87.939453125 15.701171875 87.939453125 20.541015625 c 0
 87.939453125 26.763671875 89.626953125 33.25 93.001953125 40 c 0
 127.668945312 108 163.3359375 176 200.002929688 244 c 0
 235.3359375 312 264.502929688 366.166992188 287.502929688 406.5 c 0
 310.502929688 446.833007812 332.002929688 486.333007812 352.002929688 525 c 0
 372.669921875 563 387.002929688 594 395.002929688 618 c 2
 399.002929688 631 l 1
 361.803710938 632.200195312 324.96484375 632.799804688 288.485351562 632.799804688 c 0
 264.165039062 632.799804688 240.00390625 632.533203125 216.002929688 632 c 0
 152.002929688 630 109.669921875 626.333007812 89.0029296875 621 c 0
 87.0029296875 620.333007812 84.669921875 620 82.0029296875 620 c 0
 79.3359375 620 76.6689453125 620.666992188 74.001953125 622 c 0
 69.3349609375 623.333007812 65.66796875 626 63.0009765625 630 c 0
 57.0009765625 638.666992188 53.66796875 648.666992188 53.0009765625 660 c 0
 53.0009765625 669.333007812 55.16796875 676.833007812 59.5009765625 682.5 c 0
 63.833984375 688.166992188 73.0009765625 692.333984375 87.0009765625 695.000976562 c 0
 122.333984375 701.000976562 178.333984375 704.000976562 255.000976562 704.000976562 c 0
 279.000976562 704.000976562 326.000976562 702.333984375 396.000976562 699.000976562 c 0
 431.333984375 697.66796875 450.333984375 697.000976562 453.000976562 697.000976562 c 0
 458.333984375 697.000976562 463.833007812 695.833007812 469.5 693.5 c 0
EndSplineSet
EndChar

StartChar: eight
Encoding: 56 56 25
Width: 544
GlyphClass: 2
Flags: MW
HStem: -17.999 66.001 656.002 52.001
VStem: 46.002 66.9971 73.0029 73.9971 385.002 70 425 74.002
LayerCount: 2
Fore
SplineSet
491 142.5 m 0xc4
 485.666992188 122.166992188 476.5 102.333984375 463.5 83.0009765625 c 0
 450.5 63.66796875 434.833007812 46.66796875 416.5 32.0009765625 c 0
 398.166992188 17.333984375 375.333984375 5.333984375 348.000976562 -3.9990234375 c 0
 322.000976562 -13.33203125 293.333984375 -17.9990234375 262.000976562 -17.9990234375 c 0
 230.66796875 -17.9990234375 203.000976562 -13.666015625 179.000976562 -4.9990234375 c 0
 153.66796875 3.66796875 133.000976562 15.0009765625 117.000976562 29.0009765625 c 0
 101.000976562 43.0009765625 87.333984375 59.5009765625 76.0009765625 78.5009765625 c 0
 64.66796875 97.5009765625 56.8349609375 116.66796875 52.501953125 136.000976562 c 0
 48.1689453125 155.333984375 46.001953125 175.500976562 46.001953125 196.500976562 c 0xe4
 46.001953125 217.500976562 51.501953125 240.333984375 62.501953125 265.000976562 c 0
 73.501953125 289.66796875 89.3349609375 312.66796875 110.001953125 334.000976562 c 0
 130.668945312 355.333984375 153.001953125 370.000976562 177.001953125 378.000976562 c 2
 199.001953125 386.000976562 l 1
 178.001953125 396.000976562 l 2
 144.668945312 412.000976562 118.8359375 432.66796875 100.502929688 458.000976562 c 0
 82.169921875 483.333984375 73.0029296875 509.000976562 73.0029296875 535.000976562 c 0
 73.0029296875 542.333984375 73.5029296875 550.333984375 74.5029296875 559.000976562 c 0
 75.5029296875 567.66796875 78.0029296875 577.834960938 82.0029296875 589.501953125 c 0
 86.0029296875 601.168945312 90.8359375 612.3359375 96.5029296875 623.002929688 c 0
 102.169921875 633.669921875 110.169921875 644.169921875 120.502929688 654.502929688 c 0
 130.8359375 664.8359375 142.668945312 674.002929688 156.001953125 682.002929688 c 0
 168.668945312 689.3359375 184.168945312 695.502929688 202.501953125 700.502929688 c 0
 220.834960938 705.502929688 241.334960938 708.002929688 264.001953125 708.002929688 c 0
 286.668945312 708.002929688 307.168945312 705.669921875 325.501953125 701.002929688 c 0
 343.834960938 696.3359375 359.334960938 690.002929688 372.001953125 682.002929688 c 0
 385.334960938 674.002929688 397.16796875 664.8359375 407.500976562 654.502929688 c 0
 417.833984375 644.169921875 425.833984375 633.669921875 431.500976562 623.002929688 c 0
 437.16796875 612.3359375 441.834960938 601.002929688 445.501953125 589.002929688 c 0
 449.168945312 577.002929688 451.668945312 566.502929688 453.001953125 557.502929688 c 0
 454.334960938 548.502929688 455.001953125 540.002929688 455.001953125 532.002929688 c 0xd8
 455.001953125 524.002929688 454.001953125 516.502929688 452.001953125 509.502929688 c 0
 450.001953125 502.502929688 447.668945312 496.169921875 445.001953125 490.502929688 c 0
 442.334960938 484.8359375 438.501953125 479.002929688 433.501953125 473.002929688 c 0
 428.501953125 467.002929688 423.668945312 461.669921875 419.001953125 457.002929688 c 0
 411.001953125 448.3359375 397.334960938 437.3359375 378.001953125 424.002929688 c 0
 370.001953125 418.002929688 357.001953125 408.3359375 339.001953125 395.002929688 c 1
 354.001953125 388.002929688 l 2
 376.668945312 378.002929688 397.001953125 366.502929688 415.001953125 353.502929688 c 0
 433.001953125 340.502929688 447.168945312 327.669921875 457.501953125 315.002929688 c 0
 467.834960938 302.3359375 476.334960938 289.168945312 483.001953125 275.501953125 c 0
 489.668945312 261.834960938 494.001953125 249.501953125 496.001953125 238.501953125 c 0
 498.001953125 227.501953125 499.001953125 216.001953125 499.001953125 204.001953125 c 0
 499.001953125 183.334960938 496.333007812 162.833007812 491 142.5 c 0xc4
180.001953125 472.001953125 m 0
 199.334960938 454.001953125 231.001953125 436.334960938 275.001953125 419.001953125 c 1
 278.001953125 417.001953125 l 1
 282.001953125 419.001953125 l 2
 308.001953125 430.334960938 331.334960938 446.334960938 352.001953125 467.001953125 c 0
 374.001953125 488.334960938 385.001953125 509.001953125 385.001953125 529.001953125 c 0
 385.001953125 549.001953125 379.668945312 568.668945312 369.001953125 588.001953125 c 0
 358.334960938 607.334960938 343.66796875 623.501953125 325.000976562 636.501953125 c 0
 306.333984375 649.501953125 286.333984375 656.001953125 265.000976562 656.001953125 c 2
 263.000976562 656.001953125 l 2
 232.333984375 655.334960938 205.666992188 643.001953125 183 619.001953125 c 0
 159 595.001953125 147 568.001953125 147 538.001953125 c 0xd8
 147 513.334960938 158.001953125 491.334960938 180.001953125 472.001953125 c 0
137 113.501953125 m 0
 153 91.8349609375 172.333007812 75.3349609375 195 64.001953125 c 0
 217 53.3349609375 240.666992188 48.001953125 266 48.001953125 c 0
 284 48.001953125 302 51.001953125 320 57.001953125 c 0
 338 63.001953125 354.666992188 71.6689453125 370 83.001953125 c 0
 386 95.001953125 399.166992188 110.168945312 409.5 128.501953125 c 0
 419.833007812 146.834960938 425 166.66796875 425 188.000976562 c 0
 425 200.000976562 424.166992188 211.16796875 422.5 221.500976562 c 0
 420.833007812 231.833984375 416.666015625 243.666992188 409.999023438 257 c 0
 403.33203125 270.333007812 394.33203125 282.666015625 382.999023438 293.999023438 c 0
 372.33203125 305.33203125 358.165039062 316.83203125 340.498046875 328.499023438 c 0
 322.831054688 340.166015625 300.998046875 351.333007812 274.998046875 362 c 1
 271.998046875 361 l 2
 226.665039062 347.666992188 189.33203125 324.666992188 159.999023438 292 c 0
 128.666015625 259.333007812 112.999023438 224 112.999023438 186 c 0xe4
 112.999023438 159.333007812 121 135.168945312 137 113.501953125 c 0
EndSplineSet
EndChar

StartChar: nine
Encoding: 57 57 26
Width: 544
GlyphClass: 2
Flags: MW
HStem: -13 21G<155.001 160.001 160.001 168.001> 244.999 69 664.999 64.002
VStem: 52 78<464 497> 423.999 69.001
LayerCount: 2
Fore
SplineSet
474 238 m 0
 462 196 445.666992188 160.333007812 425 131 c 0
 404.333007812 101.666992188 380 76.6669921875 352 56 c 0
 325.333007812 35.3330078125 296.833007812 19.5 266.5 8.5 c 0
 236.166992188 -2.5 203.333984375 -9.6669921875 168.000976562 -13 c 2
 160.000976562 -13 l 2
 150.000976562 -13 140.833984375 -10.8330078125 132.500976562 -6.5 c 0
 124.16796875 -2.1669921875 119.334960938 4.3330078125 118.001953125 13 c 2
 118.001953125 14 l 2
 118.001953125 19.3330078125 121.001953125 25.3330078125 127.001953125 32 c 0
 134.334960938 40 142.66796875 45.3330078125 152.000976562 48 c 0
 159.333984375 50.6669921875 170.666992188 53.6669921875 186 57 c 0
 201.333007812 60.3330078125 215 63.666015625 227 66.9990234375 c 0
 239 70.33203125 252.666992188 75.1650390625 268 81.498046875 c 0
 283.333007812 87.8310546875 298.166015625 96.498046875 312.499023438 107.498046875 c 0
 326.83203125 118.498046875 340.33203125 131.665039062 352.999023438 146.998046875 c 0
 368.999023438 167.665039062 383.666015625 190.998046875 396.999023438 216.998046875 c 0
 410.33203125 242.998046875 419.33203125 266.998046875 423.999023438 288.998046875 c 2
 430.999023438 324.998046875 l 1
 406.999023438 296.998046875 l 2
 389.666015625 277.665039062 368.333007812 264.33203125 343 256.999023438 c 0
 318.333007812 248.999023438 286.666015625 244.999023438 247.999023438 244.999023438 c 0
 222.666015625 244.999023438 198.333007812 251.666015625 175 264.999023438 c 0
 150.333007812 277.666015625 129 294.833007812 111 316.5 c 0
 93 338.166992188 78.6669921875 363.166992188 68 391.5 c 0
 57.3330078125 419.833007812 52 449 52 479 c 0
 52 515 58 548.666992188 70 580 c 0
 82 611.333007812 98 637.833007812 118 659.5 c 0
 138 681.166992188 161.666992188 698.333984375 189 711.000976562 c 0
 215 723.000976562 242.666992188 729.000976562 272 729.000976562 c 0
 343.333007812 729.000976562 398 699.66796875 436 641.000976562 c 0
 474 582.333984375 493 498.666992188 493 390 c 0
 493 333.333007812 486.666992188 282.666992188 474 238 c 0
168 359.999023438 m 0
 191.333007812 329.33203125 225.666015625 313.999023438 270.999023438 313.999023438 c 0
 298.999023438 313.999023438 326.33203125 320.999023438 352.999023438 334.999023438 c 0
 381.666015625 348.999023438 404.666015625 368.33203125 421.999023438 392.999023438 c 2
 423.999023438 395.999023438 l 1
 423.999023438 411.999023438 l 2
 423.999023438 430.666015625 422.999023438 455.666015625 420.999023438 486.999023438 c 2
 420.999023438 487.999023438 l 2
 417.666015625 520.666015625 407.666015625 551.999023438 390.999023438 581.999023438 c 0
 382.33203125 597.999023438 372.33203125 611.999023438 360.999023438 623.999023438 c 0
 350.33203125 635.999023438 337.33203125 645.83203125 321.999023438 653.499023438 c 0
 306.666015625 661.166015625 290.333007812 664.999023438 273 664.999023438 c 2
 271 664.999023438 l 2
 247 664.33203125 224.333007812 655.665039062 203 638.998046875 c 0
 181.666992188 622.331054688 164.166992188 600.6640625 150.5 573.997070312 c 0
 136.833007812 547.330078125 130 519.663085938 130 490.99609375 c 0
 130 434.329101562 142.666992188 390.666015625 168 359.999023438 c 0
EndSplineSet
EndChar

StartChar: colon
Encoding: 58 58 27
Width: 544
GlyphClass: 2
Flags: MW
HStem: 49.001 136.124 317 135.143
VStem: 217.997 110.001
LayerCount: 2
Fore
SplineSet
276 317 m 2
 273 317 l 2
 257 317.666992188 244.333007812 320.666992188 235 326 c 0
 225 332 219.333007812 341.333007812 218 354 c 0
 217.333007812 365.333007812 217 377 217 389 c 0
 216.666015625 394.666015625 216.499023438 400.249023438 216.499023438 405.749023438 c 0
 216.499023438 411.249023438 216.666015625 416.666015625 217 422 c 0
 217.666992188 428.666992188 219.666992188 434 223 438 c 0
 226.333007812 442 230.666015625 445 235.999023438 447 c 0
 246.284179688 450.428710938 257.059570312 452.143554688 268.32421875 452.143554688 c 0
 270.202148438 452.143554688 272.09375 452.095703125 273.999023438 452 c 0
 279.33203125 452 284.665039062 451.333007812 289.998046875 450 c 0
 303.998046875 447.333007812 313.665039062 442 318.998046875 434 c 0
 322.331054688 429.333007812 324.331054688 423.333007812 324.998046875 416 c 0
 325.665039062 412 325.998046875 408 325.998046875 404 c 0
 325.998046875 386.666992188 323.331054688 368.333984375 317.998046875 349.000976562 c 0
 315.331054688 338.333984375 309.6640625 330.333984375 300.997070312 325.000976562 c 0
 292.330078125 319.66796875 284 317 276 317 c 2
272.997070312 49.0009765625 m 0
 260.330078125 49.0009765625 247.997070312 53.0009765625 235.997070312 61.0009765625 c 0
 225.997070312 67.0009765625 220.330078125 75.333984375 218.997070312 86.0009765625 c 0
 218.330078125 104.000976562 217.997070312 114.000976562 217.997070312 116.000976562 c 0
 217.997070312 118.000976562 218.330078125 123.66796875 218.997070312 133.000976562 c 0
 219.6640625 142.333984375 220.331054688 149.666992188 220.998046875 155 c 0
 220.998046875 161 222.665039062 166 225.998046875 170 c 0
 228.665039062 174 232.665039062 177 237.998046875 179 c 0
 249.6640625 183.083007812 260.564453125 185.125 270.69921875 185.125 c 0
 272.147460938 185.125 273.580078125 185.083007812 274.997070312 185 c 0
 281.6640625 185 288.331054688 184 294.998046875 182 c 0
 302.331054688 180 308.998046875 176 314.998046875 170 c 0
 320.998046875 164 324.665039062 157 325.998046875 149 c 0
 327.331054688 140.333007812 327.998046875 132 327.998046875 124 c 0
 327.998046875 110 325.998046875 95.6669921875 321.998046875 81 c 0
 319.331054688 70.3330078125 312.6640625 62.3330078125 301.997070312 57 c 0
 291.997070312 51.6669921875 282.330078125 49.0009765625 272.997070312 49.0009765625 c 0
EndSplineSet
EndChar

StartChar: semicolon
Encoding: 59 59 28
Width: 544
GlyphClass: 2
Flags: MW
HStem: 275.002 136.001
VStem: 246.336 109.666
LayerCount: 2
Fore
SplineSet
336.000976562 79.001953125 m 0
 336.000976562 62.3349609375 314.333984375 -25.33203125 271.000976562 -183.999023438 c 0
 267.66796875 -195.999023438 262.334960938 -204.33203125 255.001953125 -208.999023438 c 0
 247.668945312 -213.666015625 240.001953125 -215.999023438 232.001953125 -215.999023438 c 2
 230.001953125 -215.999023438 l 2
 218.668945312 -215.33203125 208.3359375 -211.665039062 199.002929688 -204.998046875 c 0
 192.3359375 -200.331054688 189.002929688 -193.6640625 189.002929688 -184.997070312 c 0
 189.002929688 -173.6640625 196.002929688 -133.331054688 210.002929688 -63.998046875 c 0
 222.669921875 -2.6650390625 233.002929688 44.3349609375 241.002929688 77.001953125 c 0
 243.002929688 85.6689453125 245.502929688 92.3359375 248.502929688 97.0029296875 c 0
 251.502929688 101.669921875 254.3359375 104.669921875 257.002929688 106.002929688 c 0
 263.669921875 108.669921875 270.002929688 110.002929688 276.002929688 110.002929688 c 0
 278.002929688 110.002929688 280.3359375 109.669921875 283.002929688 109.002929688 c 2
 284.002929688 109.002929688 l 2
 295.3359375 109.002929688 307.002929688 106.3359375 319.002929688 101.002929688 c 0
 325.002929688 98.3359375 329.669921875 94.6689453125 333.002929688 90.001953125 c 0
 335.002929688 87.3349609375 336.000976562 83.6689453125 336.000976562 79.001953125 c 0
304.002929688 275.001953125 m 2
 296.669921875 275.668945312 288.833984375 277.333984375 280.500976562 280.000976562 c 0
 272.16796875 282.66796875 264.834960938 286.834960938 258.501953125 292.501953125 c 0
 252.168945312 298.168945312 248.668945312 304.668945312 248.001953125 312.001953125 c 0
 247.334960938 323.334960938 246.834960938 334.834960938 246.501953125 346.501953125 c 0
 246.390625 350.38671875 246.334960938 354.216796875 246.334960938 357.991210938 c 0
 246.334960938 365.55078125 246.557617188 372.887695312 247.002929688 380.002929688 c 0
 247.669921875 386.002929688 249.669921875 391.169921875 253.002929688 395.502929688 c 0
 256.3359375 399.8359375 261.002929688 403.002929688 267.002929688 405.002929688 c 0
 273.002929688 407.002929688 278.8359375 408.502929688 284.502929688 409.502929688 c 0
 290.169921875 410.502929688 294.502929688 411.002929688 297.502929688 411.002929688 c 2
 304.002929688 411.002929688 l 2
 315.3359375 410.3359375 326.000976562 407.668945312 336.000976562 403.001953125 c 0
 341.333984375 401.001953125 345.668945312 397.501953125 349.001953125 392.501953125 c 0
 352.334960938 387.501953125 354.334960938 381.668945312 355.001953125 375.001953125 c 0
 355.668945312 371.001953125 356.001953125 367.001953125 356.001953125 363.001953125 c 0
 356.001953125 345.001953125 353.334960938 326.334960938 348.001953125 307.001953125 c 0
 345.334960938 296.334960938 339.66796875 288.334960938 331.000976562 283.001953125 c 0
 322.333984375 277.668945312 314.000976562 275.001953125 306.000976562 275.001953125 c 2
 304.500976562 275.001953125 l 1
 304.002929688 275.001953125 l 2
EndSplineSet
EndChar

StartChar: less
Encoding: 60 60 29
Width: 544
GlyphClass: 2
Flags: MW
HStem: 683 20G<459.667 467.001>
LayerCount: 2
Fore
SplineSet
501 648 m 0
 494.333007812 637.333007812 480.333007812 624.333007812 459 609 c 0
 421.666992188 583 365 540.333007812 289 481 c 0
 212.333007812 421 160.333007812 380.666992188 133 360 c 1
 144 353 l 2
 169.333007812 333 198 308.666992188 230 280 c 0
 262 251.333007812 290 225.666015625 314 202.999023438 c 0
 338 179.666015625 364 155.999023438 392 131.999023438 c 0
 420.666992188 107.999023438 445.333984375 89.33203125 466.000976562 75.9990234375 c 0
 487.333984375 61.9990234375 501.000976562 50.33203125 507.000976562 40.9990234375 c 0
 509.66796875 36.9990234375 511.000976562 32.666015625 511.000976562 27.9990234375 c 0
 511.000976562 25.9990234375 510.333984375 22.666015625 509.000976562 17.9990234375 c 0
 507.000976562 12.666015625 503.333984375 8.3330078125 498.000976562 5 c 0
 492.66796875 1.6669921875 485.000976562 -0.666015625 475.000976562 -1.9990234375 c 0
 472.333984375 -2.666015625 470.000976562 -2.9990234375 468.000976562 -2.9990234375 c 0
 459.333984375 -2.9990234375 449.666992188 -0.9990234375 439 3.0009765625 c 0
 422.333007812 8.333984375 402.333007812 19.6669921875 379 37 c 0
 355 54.3330078125 329 75.666015625 301 100.999023438 c 0
 273 126.33203125 245 151.999023438 217 177.999023438 c 0
 189 203.999023438 159.333007812 230.666015625 128 257.999023438 c 0
 96.6669921875 285.33203125 70 306.999023438 48 322.999023438 c 0
 41.3330078125 328.33203125 37 335.665039062 35 344.998046875 c 0
 34.3330078125 349.665039062 34 354.33203125 34 358.999023438 c 0
 34 363.666015625 34.6669921875 368.333007812 36 373 c 0
 38.6669921875 381.666992188 43 388 49 392 c 0
 87 420 131.666992188 455.333007812 183 498 c 0
 234.333007812 540.666992188 281 579 323 613 c 0
 365.666992188 647 403.333984375 673.666992188 436.000976562 693 c 0
 446.000976562 699.666992188 455.333984375 703 464.000976562 703 c 0
 470.000976562 703 475.000976562 701.666992188 479.000976562 699 c 0
 490.333984375 693 498.333984375 684.666992188 503.000976562 674 c 0
 505.000976562 669.333007812 506.000976562 665 506.000976562 661 c 0
 505.333984375 657 503.666992188 652.666992188 501 648 c 0
EndSplineSet
EndChar

StartChar: equal
Encoding: 61 61 30
Width: 544
GlyphClass: 2
Flags: MW
HStem: 256.909 63.091 452.907 66.0929
LayerCount: 2
Fore
SplineSet
126 519 m 2
 129 519 l 2
 167 517.666992188 206 517 246 517 c 0
 286.666992188 517 324.333984375 517.333007812 359.000976562 518 c 0
 393.66796875 518.666992188 414.66796875 519 422.000976562 519 c 0
 434.66796875 518.333007812 443.000976562 515.666015625 447.000976562 510.999023438 c 0
 451.66796875 506.33203125 454.334960938 499.665039062 455.001953125 490.998046875 c 0
 454.334960938 473.665039062 449.334960938 462.998046875 440.001953125 458.998046875 c 0
 437.334960938 457.665039062 434.334960938 456.998046875 431.001953125 456.998046875 c 2
 423.001953125 456.998046875 l 2
 407.668945312 457.665039062 393.668945312 457.998046875 381.001953125 457.998046875 c 2
 346.001953125 457.998046875 l 1
 236.001953125 454.998046875 l 2
 190.001953125 453.665039062 156.001953125 452.998046875 134.001953125 452.998046875 c 0
 132.66796875 452.9375 131.364257812 452.907226562 130.090820312 452.907226562 c 0
 117.364257812 452.907226562 107.66796875 455.9375 101.001953125 461.998046875 c 0
 93.6689453125 467.998046875 90.001953125 475.331054688 90.001953125 483.998046875 c 2
 90.001953125 486.998046875 l 2
 90.6689453125 495.665039062 93.6689453125 502.998046875 99.001953125 508.998046875 c 0
 105.001953125 515.665039062 114 519 126 519 c 2
132.001953125 319.998046875 m 2
 153.334960938 319.331054688 178.66796875 318.998046875 208.000976562 318.998046875 c 0
 238.000976562 319.665039062 274.000976562 320.33203125 316.000976562 320.999023438 c 2
 422.000976562 322.999023438 l 2
 434.66796875 322.999023438 443.000976562 320.666015625 447.000976562 315.999023438 c 0
 451.66796875 310.666015625 454.334960938 303.666015625 455.001953125 294.999023438 c 0
 455.001953125 284.33203125 453.001953125 275.999023438 449.001953125 269.999023438 c 0
 446.334960938 266.666015625 443.334960938 264.333007812 440.001953125 263 c 0
 437.334960938 261.666992188 434.334960938 261 431.001953125 261 c 2
 423.001953125 261 l 2
 406.334960938 261.666992188 387.66796875 262 367.000976562 262 c 0
 346.333984375 262 301.666992188 261 233 259 c 0
 185.666992188 257.666992188 151.333984375 257 130.000976562 257 c 0
 128.727539062 256.939453125 127.487304688 256.909179688 126.280273438 256.909179688 c 0
 114.21484375 256.909179688 105.455078125 259.939453125 100.000976562 266 c 0
 93.333984375 272.666992188 90.0009765625 280.666992188 90.0009765625 290 c 2
 90.0009765625 292 l 2
 90.66796875 300 94.0009765625 306.666992188 100.000976562 312 c 0
 106.000976562 317.333007812 116.000976562 320 130.000976562 320 c 2
 132.001953125 319.998046875 l 2
EndSplineSet
EndChar

StartChar: greater
Encoding: 62 62 31
Width: 544
GlyphClass: 2
Flags: MW
HStem: 690 20G<75.998 81.3315>
LayerCount: 2
Fore
SplineSet
509 334 m 0
 506.333007812 325.333007812 502 319 496 315 c 0
 458 287 413.333007812 251.666992188 362 209 c 0
 310.666992188 166.333007812 264 128 222 94 c 0
 179.333007812 60.6669921875 141.666015625 34 108.999023438 14 c 0
 98.9990234375 7.3330078125 89.33203125 4 79.9990234375 4 c 0
 74.666015625 4 69.9990234375 5.3330078125 65.9990234375 8 c 0
 54.666015625 14 46.666015625 22.3330078125 41.9990234375 33 c 0
 39.9990234375 37.6669921875 38.9990234375 42 38.9990234375 46 c 0
 38.9990234375 50 40.33203125 54.3330078125 42.9990234375 59 c 0
 49.666015625 69.6669921875 63.9990234375 82.6669921875 85.9990234375 98 c 0
 123.33203125 124 179.999023438 166.666992188 255.999023438 226 c 0
 331.999023438 286 380.666015625 323.666992188 401.999023438 339 c 2
 411.999023438 347 l 1
 401.999023438 354 l 2
 375.999023438 374 346.999023438 398.333007812 314.999023438 427 c 0
 282.999023438 455.666992188 254.999023438 481.333984375 230.999023438 504.000976562 c 0
 206.999023438 527.333984375 180.999023438 551.000976562 152.999023438 575.000976562 c 0
 124.33203125 599.000976562 99.6650390625 617.66796875 78.998046875 631.000976562 c 0
 57.6650390625 645.000976562 43.998046875 656.66796875 37.998046875 666.000976562 c 0
 35.3310546875 670.66796875 33.998046875 675.334960938 33.998046875 680.001953125 c 0
 33.998046875 681.334960938 34.6650390625 684.334960938 35.998046875 689.001953125 c 0
 37.998046875 694.334960938 41.6650390625 698.66796875 46.998046875 702.000976562 c 0
 52.3310546875 705.333984375 59.998046875 707.666992188 69.998046875 709 c 0
 72.6650390625 709.666992188 74.998046875 710 76.998046875 710 c 0
 85.6650390625 710 95.33203125 708 105.999023438 704 c 0
 121.999023438 698.666992188 141.999023438 687.333984375 165.999023438 670.000976562 c 0
 189.999023438 652.66796875 215.999023438 631.334960938 243.999023438 606.001953125 c 0
 271.999023438 580.668945312 299.999023438 555.001953125 327.999023438 529.001953125 c 0
 355.999023438 503.001953125 385.666015625 476.334960938 416.999023438 449.001953125 c 0
 447.666015625 421.668945312 474.333007812 400.001953125 497 384.001953125 c 0
 503.666992188 378.668945312 508 371.3359375 510 362.002929688 c 0
 510.666992188 357.3359375 511 352.668945312 511 348.001953125 c 0
 511 343.334960938 510.333007812 338.666992188 509 334 c 0
EndSplineSet
EndChar

StartChar: question
Encoding: 63 63 32
Width: 544
GlyphClass: 2
Flags: MW
HStem: -4.00195 134.053 646.999 64.999
VStem: 178.999 143 389.999 80.001
LayerCount: 2
Fore
SplineSet
470 522 m 0
 470 505.333007812 467.333007812 490 462 476 c 0
 456.666992188 462.666992188 449.666992188 451 441 441 c 0
 432.333007812 431 422.333007812 421.333007812 411 412 c 0
 399 403.333007812 387 394.333007812 375 385 c 0
 363 375.666992188 351.333007812 365.666992188 340 355 c 0
 329.333007812 343.666992188 319.666015625 330.333984375 310.999023438 315.000976562 c 0
 302.33203125 299.66796875 296.665039062 282.66796875 293.998046875 264.000976562 c 0
 291.331054688 248.66796875 285.998046875 237.000976562 277.998046875 229.000976562 c 0
 273.331054688 225.000976562 266.998046875 223.000976562 258.998046875 223.000976562 c 0
 254.998046875 222.333984375 250.665039062 222.666992188 245.998046875 224 c 0
 230.665039062 228 220.665039062 235 215.998046875 245 c 0
 213.331054688 250.333007812 211.998046875 256.666015625 211.998046875 263.999023438 c 0
 211.998046875 271.999023438 212.998046875 280.666015625 214.998046875 289.999023438 c 0
 219.665039062 306.666015625 226.33203125 322.666015625 234.999023438 337.999023438 c 0
 243.666015625 353.33203125 252.999023438 366.33203125 262.999023438 376.999023438 c 0
 273.666015625 388.33203125 284.666015625 398.999023438 295.999023438 408.999023438 c 0
 307.33203125 418.999023438 318.33203125 428.666015625 328.999023438 437.999023438 c 0
 339.666015625 447.33203125 349.666015625 456.999023438 358.999023438 466.999023438 c 0
 367.666015625 476.999023438 374.999023438 487.999023438 380.999023438 499.999023438 c 0
 386.999023438 511.999023438 389.999023438 524.999023438 389.999023438 538.999023438 c 0
 389.999023438 576.999023438 378.666015625 604.666015625 355.999023438 621.999023438 c 0
 334.666015625 638.666015625 303.999023438 646.999023438 263.999023438 646.999023438 c 0
 253.33203125 646.999023438 242.665039062 644.666015625 231.998046875 639.999023438 c 0
 221.331054688 635.999023438 212.331054688 630.999023438 204.998046875 624.999023438 c 0
 197.665039062 618.999023438 189.998046875 611.33203125 181.998046875 601.999023438 c 0
 173.331054688 591.999023438 166.998046875 583.999023438 162.998046875 577.999023438 c 0
 158.998046875 571.999023438 153.998046875 564.666015625 147.998046875 555.999023438 c 0
 141.998046875 547.33203125 136.998046875 540.999023438 132.998046875 536.999023438 c 0
 128.998046875 533.666015625 124.998046875 531.666015625 120.998046875 530.999023438 c 2
 114.998046875 530.999023438 l 2
 112.998046875 530.999023438 110.331054688 531.33203125 106.998046875 531.999023438 c 0
 103.665039062 532.666015625 98.33203125 534.666015625 90.9990234375 537.999023438 c 0
 82.9990234375 542.666015625 77.9990234375 548.999023438 75.9990234375 556.999023438 c 0
 75.318359375 559.040039062 74.8994140625 562.078125 74.8994140625 566.469726562 c 0
 74.8994140625 574.08984375 77.599609375 583.599609375 82.9990234375 594.999023438 c 0
 97.666015625 622.33203125 118.666015625 647.665039062 145.999023438 670.998046875 c 0
 160.666015625 683.665039062 177.999023438 693.665039062 197.999023438 700.998046875 c 0
 217.999023438 708.331054688 238.666015625 711.998046875 259.999023438 711.998046875 c 0
 329.33203125 711.998046875 381.665039062 696.331054688 416.998046875 664.998046875 c 0
 452.331054688 633.665039062 470 586 470 522 c 0
250.998046875 -4.001953125 m 2
 241.999023438 -4.001953125 l 2
 241.0859375 -4.037109375 240.181640625 -4.0546875 239.286132812 -4.0546875 c 0
 223.165039062 -4.0546875 209.736328125 1.6298828125 199 12.998046875 c 0
 185.666992188 27.6650390625 179 44.6650390625 179 63.998046875 c 0
 179 81.3310546875 186.333007812 96.3310546875 201 108.998046875 c 0
 217 122.998046875 235.666992188 129.998046875 257 129.998046875 c 0
 257.947265625 130.033203125 258.88671875 130.05078125 259.817382812 130.05078125 c 0
 276.5703125 130.05078125 290.630859375 124.366210938 301.999023438 112.998046875 c 0
 315.33203125 100.331054688 321.999023438 84.6640625 321.999023438 65.9970703125 c 0
 321.999023438 47.330078125 315.666015625 31.6630859375 302.999023438 18.99609375 c 0
 289.666015625 6.3291015625 272.331054688 -1.3349609375 250.998046875 -4.001953125 c 2
EndSplineSet
EndChar

StartChar: at
Encoding: 64 64 33
Width: 544
GlyphClass: 2
Flags: MW
HStem: -120 66.0049 111.004 59 127.005 61.002 391.008 56.998 623.005 69.9971
VStem: 23.999 67.0049 147.001 58.0029 329.004 61.001 467.005 53.9971
LayerCount: 2
Fore
SplineSet
471 9 m 0xdf80
 467.666992188 -0.3330078125 464 -8.3330078125 460 -15 c 0
 456.666992188 -22.3330078125 452 -30.666015625 446 -39.9990234375 c 0
 440 -49.9990234375 433.666992188 -58.33203125 427 -64.9990234375 c 0
 420.333007812 -71.666015625 411.666015625 -78.666015625 400.999023438 -85.9990234375 c 0
 390.999023438 -93.33203125 379.666015625 -99.33203125 366.999023438 -103.999023438 c 0
 354.33203125 -108.666015625 339.665039062 -112.333007812 322.998046875 -115 c 0
 306.331054688 -118.333007812 288.998046875 -120 270.998046875 -120 c 2
 264.998046875 -120 l 2
 231.665039062 -120 200.33203125 -111.666992188 170.999023438 -95 c 0
 140.999023438 -78.3330078125 115.33203125 -55 93.9990234375 -25 c 0
 72.666015625 5 55.666015625 41.6669921875 42.9990234375 85 c 0
 30.33203125 129 23.9990234375 176.666992188 23.9990234375 228 c 0
 24.666015625 286 29.3330078125 340 38 390 c 0
 47.3330078125 440.666992188 60 484.333984375 76 521.000976562 c 0
 92 557.66796875 111 589.000976562 133 615.000976562 c 0
 154.333007812 641.66796875 178 661.334960938 204 674.001953125 c 0
 230 686.668945312 257.333007812 693.001953125 286 693.001953125 c 0
 308 693.001953125 327.666992188 691.334960938 345 688.001953125 c 0
 363 684.668945312 380 679.001953125 396 671.001953125 c 0
 412 663.001953125 426 652.334960938 438 639.001953125 c 0
 450.666992188 625.668945312 462.333984375 609.001953125 473.000976562 589.001953125 c 0
 483.66796875 569.001953125 492.334960938 545.334960938 499.001953125 518.001953125 c 0
 513.668945312 458.668945312 521.001953125 383.3359375 521.001953125 292.002929688 c 0
 520.334960938 244.669921875 513.334960938 203.336914062 500.001953125 168.00390625 c 0
 493.334960938 150.00390625 484.001953125 136.00390625 472.001953125 126.00390625 c 0
 460.668945312 116.00390625 447.001953125 111.00390625 431.001953125 111.00390625 c 0xdf80
 407.668945312 111.670898438 390.001953125 119.337890625 378.001953125 134.004882812 c 0
 368.001953125 146.004882812 361.668945312 163.671875 359.001953125 187.004882812 c 2
 355.001953125 232.004882812 l 1
 340.001953125 189.00390625 l 2
 333.334960938 170.336914062 324.66796875 156.004882812 314.000976562 146.004882812 c 0
 301.333984375 133.337890625 284.333984375 127.004882812 263.000976562 127.004882812 c 0
 226.333984375 127.671875 198.000976562 139.338867188 178.000976562 162.005859375 c 0
 157.333984375 184.672851562 147.000976562 220.005859375 147.000976562 268.005859375 c 0
 147.000976562 292.005859375 149.66796875 314.338867188 155.000976562 335.005859375 c 0
 160.333984375 355.672851562 167.666992188 373.005859375 177 387.005859375 c 0
 186.333007812 400.338867188 197 412.005859375 209 422.005859375 c 0
 221.666992188 432.005859375 234.333984375 439.005859375 247.000976562 443.005859375 c 0
 259.66796875 446.338867188 272.334960938 448.005859375 285.001953125 448.005859375 c 0
 303.001953125 448.005859375 320.334960938 444.672851562 337.001953125 438.005859375 c 0
 351.001953125 432.672851562 362.001953125 425.672851562 370.001953125 417.005859375 c 0
 374.668945312 411.672851562 377.001953125 407.33984375 377.001953125 404.006835938 c 0
 377.001953125 402.673828125 376.668945312 401.340820312 376.001953125 400.0078125 c 0
 372.001953125 392.0078125 367.001953125 387.0078125 361.001953125 385.0078125 c 0
 354.334960938 383.0078125 349.334960938 382.0078125 346.001953125 382.0078125 c 0
 340.668945312 382.674804688 333.3359375 384.0078125 324.002929688 386.0078125 c 2
 309.002929688 389.0078125 l 2
 303.002929688 390.340820312 297.3359375 391.0078125 292.002929688 391.0078125 c 2
 280.002929688 391.0078125 l 2
 270.669921875 390.340820312 261.336914062 387.0078125 252.00390625 381.0078125 c 0
 242.670898438 375.0078125 234.670898438 367.674804688 228.00390625 359.0078125 c 0
 220.670898438 351.0078125 215.00390625 340.005859375 211.00390625 326.005859375 c 0
 207.00390625 312.005859375 205.00390625 296.674804688 205.00390625 280.0078125 c 0
 205.00390625 271.340820312 205.670898438 262.673828125 207.00390625 254.006835938 c 0
 207.670898438 246.006835938 209.670898438 236.670898438 213.00390625 226.00390625 c 0
 216.336914062 215.336914062 222.00390625 206.33984375 230.00390625 199.006835938 c 0
 238.00390625 191.673828125 248.00390625 188.006835938 260.00390625 188.006835938 c 0xbf80
 284.670898438 188.006835938 302.337890625 198.006835938 313.004882812 218.006835938 c 0
 322.337890625 235.33984375 327.670898438 263.672851562 329.00390625 303.005859375 c 0
 329.670898438 309.672851562 336.337890625 315.672851562 349.004882812 321.005859375 c 0
 359.004882812 324.338867188 367.671875 326.005859375 375.004882812 326.005859375 c 0
 379.671875 326.005859375 384.002929688 325.338867188 388.002929688 324.005859375 c 0
 392.002929688 322.005859375 394.004882812 319.672851562 394.004882812 317.005859375 c 2
 394.004882812 315.005859375 l 2
 391.337890625 290.338867188 390.004882812 269.671875 390.004882812 253.004882812 c 0
 390.004882812 244.337890625 390.337890625 236.670898438 391.004882812 230.00390625 c 0
 393.671875 208.670898438 397.671875 193.670898438 403.004882812 185.00390625 c 0
 409.671875 175.00390625 419.001953125 170.00390625 431.001953125 170.00390625 c 0
 441.001953125 170.00390625 448.671875 176.336914062 454.004882812 189.00390625 c 0
 458.004882812 199.00390625 461.004882812 211.336914062 463.004882812 226.00390625 c 0
 465.671875 250.670898438 467.004882812 273.670898438 467.004882812 295.00390625 c 0
 467.004882812 329.670898438 465.671875 361.333007812 463.004882812 390 c 0
 459.671875 419.333007812 455.670898438 444.337890625 451.00390625 465.004882812 c 0
 446.336914062 486.337890625 440.336914062 505.337890625 433.00390625 522.004882812 c 0
 425.670898438 539.337890625 418.338867188 553.337890625 411.005859375 564.004882812 c 0
 403.672851562 574.671875 395.005859375 584.004882812 385.005859375 592.004882812 c 0
 375.005859375 599.337890625 366.334960938 605.004882812 359.001953125 609.004882812 c 0
 351.668945312 613.671875 343.005859375 617.004882812 333.005859375 619.004882812 c 0
 323.005859375 621.004882812 315.672851562 622.004882812 311.005859375 622.004882812 c 0
 306.338867188 622.671875 300.671875 623.004882812 294.004882812 623.004882812 c 0
 265.337890625 622.337890625 238.670898438 613.337890625 214.00390625 596.004882812 c 0
 189.336914062 578.671875 168.00390625 554.671875 150.00390625 524.004882812 c 0
 132.00390625 492.671875 117.670898438 454.671875 107.00390625 410.004882812 c 0
 96.3369140625 365.337890625 91.00390625 316.670898438 91.00390625 264.00390625 c 0
 91.6708984375 218.00390625 95.337890625 176.670898438 102.004882812 140.00390625 c 0
 109.337890625 102.670898438 118.670898438 72.337890625 130.00390625 49.0048828125 c 0
 141.336914062 25.671875 154.999023438 6.0048828125 170.999023438 -9.9951171875 c 0
 186.33203125 -25.9951171875 202.336914062 -37.328125 219.00390625 -43.9951171875 c 0
 235.670898438 -50.662109375 252.998046875 -53.9951171875 270.998046875 -53.9951171875 c 0
 288.331054688 -53.9951171875 304.669921875 -52.328125 320.002929688 -48.9951171875 c 0
 335.3359375 -45.662109375 348.002929688 -41.3291015625 358.002929688 -35.99609375 c 0
 368.669921875 -30.6630859375 378.669921875 -23.6669921875 388.002929688 -15 c 0
 396.669921875 -7 403.669921875 0.6708984375 409.002929688 8.00390625 c 0
 413.669921875 15.3369140625 419.336914062 24.3369140625 426.00390625 35.00390625 c 0
 428.670898438 39.6708984375 431.00390625 43.337890625 433.00390625 46.0048828125 c 0
 435.00390625 48.0048828125 437.00390625 50.671875 439.00390625 54.0048828125 c 0
 441.670898438 57.337890625 443.670898438 59.6708984375 445.00390625 61.00390625 c 2
 451.00390625 64.00390625 l 2
 453.670898438 66.00390625 457.337890625 66.00390625 462.004882812 64.00390625 c 0
 469.337890625 61.3369140625 474.337890625 57.00390625 477.004882812 51.00390625 c 0
 478.337890625 48.3369140625 479.004882812 45.669921875 479.004882812 43.0029296875 c 0
 479.004882812 34.3359375 476.333007812 23 471 9 c 0xdf80
EndSplineSet
EndChar

StartChar: A
Encoding: 65 65 34
Width: 544
GlyphClass: 2
Flags: MW
HStem: 271 50.998
VStem: 24.999 72.001
LayerCount: 2
Fore
SplineSet
308.000976562 606.997070312 m 2
 280.66796875 561.6640625 241.66796875 466.331054688 191.000976562 320.998046875 c 2
 186.000976562 305.998046875 l 1
 200.000976562 307.998046875 l 2
 262.66796875 315.998046875 318.334960938 320.665039062 367.001953125 321.998046875 c 2
 378.001953125 321.998046875 l 1
 320.001953125 626.998046875 l 1
 308.000976562 606.997070312 l 2
440 53.9990234375 m 0
 432 74.666015625 415 147 389 271 c 0
 387 277.666992188 384.666992188 277.666992188 382 271 c 1
 302.666992188 267 229.666992188 259.33203125 163 247.999023438 c 1
 141 189.33203125 119 124.333007812 97 53 c 0
 91.6669921875 35 84 23.330078125 74 17.9970703125 c 0
 68.6669921875 15.330078125 63.6669921875 13.9970703125 59 13.9970703125 c 0
 54.3330078125 13.9970703125 49.666015625 14.9970703125 44.9990234375 16.9970703125 c 0
 31.666015625 22.330078125 24.9990234375 34.3330078125 24.9990234375 53 c 0
 24.9990234375 61 26.33203125 70.3330078125 28.9990234375 81 c 0
 33.666015625 104.333007812 53.666015625 158.666015625 88.9990234375 243.999023438 c 1
 86.33203125 251.999023438 83.9990234375 253.33203125 81.9990234375 247.999023438 c 1
 73.33203125 253.999023438 68.9990234375 260.999023438 68.9990234375 268.999023438 c 2
 68.9990234375 269.999023438 l 2
 68.33203125 275.999023438 71.33203125 281.999023438 77.9990234375 287.999023438 c 0
 86.666015625 295.33203125 97.3330078125 300.999023438 110 304.999023438 c 1
 111.333007812 311.666015625 112.666015625 311.998046875 113.999023438 305.998046875 c 1
 192.666015625 499.331054688 252.333007812 627.665039062 293 690.998046875 c 0
 301.666992188 703.665039062 308.833984375 712.498046875 314.500976562 717.498046875 c 0
 320.16796875 722.498046875 326.334960938 724.998046875 333.001953125 724.998046875 c 2
 334.001953125 724.998046875 l 1
 340.001953125 724.998046875 l 2
 347.334960938 724.998046875 354.334960938 722.998046875 361.001953125 718.998046875 c 0
 367.668945312 714.998046875 372.001953125 706.998046875 374.001953125 694.998046875 c 0
 387.334960938 612.331054688 410.334960938 494.998046875 443.001953125 342.998046875 c 0
 475.668945312 190.331054688 498.668945312 102.331054688 512.001953125 78.998046875 c 0
 517.334960938 69.6650390625 520.001953125 61.33203125 520.001953125 53.9990234375 c 0
 519.334960938 53.33203125 519.001953125 52.33203125 519.001953125 50.9990234375 c 0
 518.334960938 42.33203125 515.834960938 35.1650390625 511.501953125 29.498046875 c 0
 507.168945312 23.8310546875 502.001953125 19.6640625 496.001953125 16.9970703125 c 0
 491.334960938 14.9970703125 486.66796875 13.9970703125 482.000976562 13.9970703125 c 0
 476.66796875 13.9970703125 471.334960938 15.330078125 466.001953125 17.9970703125 c 0
 455.334960938 23.330078125 446.666992188 35.33203125 440 53.9990234375 c 0
EndSplineSet
EndChar

StartChar: B
Encoding: 66 66 35
Width: 544
GlyphClass: 2
Flags: MW
HStem: -20.3672 79.3672 307 51.999 640.002 49.998
VStem: 48.998 77.7998 52.998 82.999 383.998 72.001 418 79.998
LayerCount: 2
Fore
SplineSet
369.995117188 260.001953125 m 0xea
 355.995117188 269.334960938 336.828125 278.16796875 312.495117188 286.500976562 c 0
 288.162109375 294.833984375 260.329101562 301.666992188 228.99609375 307 c 1
 227.99609375 307 l 2
 182.663085938 307 149.330078125 306.666992188 127.997070312 306 c 1
 131.330078125 192 133.997070312 109 135.997070312 57 c 1
 149.330078125 58.3330078125 163.997070312 59 179.997070312 59 c 0
 195.997070312 59.6669921875 207.997070312 60 215.997070312 60 c 0
 244.6640625 61.3330078125 271.831054688 66.666015625 297.498046875 75.9990234375 c 0
 323.165039062 85.33203125 344.33203125 96.9990234375 360.999023438 110.999023438 c 0
 377.666015625 124.33203125 391.333007812 138.83203125 402 154.499023438 c 0
 412.666992188 170.166015625 418 184.999023438 418 198.999023438 c 0
 418 219.666015625 401.995117188 240.001953125 369.995117188 260.001953125 c 0xea
138.998046875 626.999023438 m 2
 131.998046875 624.999023438 l 1
 131.998046875 607.666015625 131.331054688 584.999023438 129.998046875 556.999023438 c 0
 127.864257812 503.668945312 126.797851562 451.40625 126.797851562 400.209960938 c 0
 126.797851562 387.40625 126.864257812 374.668945312 126.998046875 361.999023438 c 1
 162.998046875 359.999023438 193.998046875 358.999023438 219.998046875 358.999023438 c 0
 239.331054688 358.999023438 256.831054688 360.83203125 272.498046875 364.499023438 c 0
 288.165039062 368.166015625 301.665039062 372.833007812 312.998046875 378.5 c 0
 324.331054688 384.166992188 334.331054688 391.166992188 342.998046875 399.5 c 0
 351.665039062 407.833007812 358.331054688 416.333007812 362.998046875 425 c 0
 367.665039062 433.666992188 371.666015625 443 374.999023438 453 c 0
 378.33203125 463 380.665039062 472.333007812 381.998046875 481 c 0
 383.331054688 489.666992188 383.998046875 498.333984375 383.998046875 507.000976562 c 0xf4
 383.331054688 525.66796875 379.6640625 543.000976562 372.997070312 559.000976562 c 0
 366.330078125 575.000976562 357.663085938 587.833984375 346.99609375 597.500976562 c 0
 336.329101562 607.16796875 324.662109375 615.334960938 311.995117188 622.001953125 c 0
 289.328125 634.001953125 265.328125 640.001953125 239.995117188 640.001953125 c 0
 205.995117188 640.001953125 172.331054688 635.666015625 138.998046875 626.999023438 c 2
479.5 130 m 0
 467.166992188 106.666992188 449.1640625 84.833984375 425.497070312 64.5009765625 c 0
 401.830078125 44.16796875 372.665039062 27.0009765625 337.998046875 13.0009765625 c 0
 303.998046875 -0.9990234375 266.331054688 -9.9990234375 224.998046875 -13.9990234375 c 1
 205.314453125 -20.3671875 l 2
 200.54296875 -20.3671875 195.771484375 -19.244140625 191 -16.9990234375 c 2
 172.47265625 -23.3671875 l 2
 167.981445312 -23.3671875 163.490234375 -22.244140625 158.999023438 -19.9990234375 c 0
 138.999023438 -21.9990234375 123.33203125 -22.9990234375 111.999023438 -22.9990234375 c 0
 104.666015625 -22.9990234375 97.666015625 -22.33203125 90.9990234375 -20.9990234375 c 2
 86.9990234375 -20.9990234375 l 2
 76.33203125 -21.666015625 67.6650390625 -18.3330078125 60.998046875 -11 c 0
 55.6650390625 -5 52.998046875 3.3330078125 52.998046875 14 c 2
 52.998046875 19 l 2xea
 54.3310546875 39.6669921875 54.998046875 74.333984375 54.998046875 123.000976562 c 0
 54.998046875 213.66796875 52.998046875 314.000976562 48.998046875 424.000976562 c 0
 47.6650390625 468.66796875 46.998046875 498.500976562 46.998046875 513.500976562 c 0
 46.998046875 528.500976562 47.6650390625 549.000976562 48.998046875 575.000976562 c 0
 50.3310546875 601.000976562 50.998046875 619.000976562 50.998046875 629.000976562 c 0
 51.6650390625 644.333984375 55.83203125 655.666992188 63.4990234375 663 c 0
 71.166015625 670.333007812 80.33203125 674 90.9990234375 674 c 2
 95 674 l 1
 96 674 l 2
 107.333007812 677.333007812 118.665039062 680 129.998046875 682 c 0
 151.998046875 686 171.999023438 688.333007812 189.999023438 689 c 0
 199.999023438 689.666992188 207.666015625 690 212.999023438 690 c 2
 231.999023438 690 l 1
 241.999023438 690 l 2
 281.999023438 690 317.33203125 682 347.999023438 666 c 0
 379.999023438 650 405.999023438 626.833007812 425.999023438 596.5 c 0
 445.999023438 566.166992188 455.999023438 530 455.999023438 488 c 0xf4
 455.999023438 452.666992188 447.666015625 422.333984375 430.999023438 397.000976562 c 0
 414.33203125 371.66796875 391.665039062 353.000976562 362.998046875 341.000976562 c 1
 354.998046875 331.000976562 347.331054688 327.66796875 339.998046875 331.000976562 c 1
 347.998046875 321.000976562 355.665039062 318.000976562 362.998046875 322.000976562 c 1
 383.665039062 314.66796875 404.498046875 304.16796875 425.498046875 290.500976562 c 0
 446.498046875 276.833984375 463.831054688 261.666992188 477.498046875 245 c 0
 491.165039062 228.333007812 497.998046875 213.666015625 497.998046875 200.999023438 c 2
 497.998046875 198.999023438 l 2xe2
 497.998046875 176.33203125 491.833007812 153.333007812 479.5 130 c 0
EndSplineSet
EndChar

StartChar: C
Encoding: 67 67 36
Width: 544
GlyphClass: 2
Flags: MW
HStem: -30.999 72.001 650.002 62.999
VStem: 33.999 80.999 427 83.001
LayerCount: 2
Fore
SplineSet
497 553.5 m 0
 488.333007812 541.166992188 480 534.333984375 472 533.000976562 c 2
 466 533.000976562 l 2
 458 533.000976562 449.666992188 535.66796875 441 541.000976562 c 0
 431.666992188 547.66796875 427 556.334960938 427 567.001953125 c 0
 427 572.334960938 427.666992188 588.334960938 429 615.001953125 c 1
 413.666992188 625.668945312 404.666992188 632.001953125 402 634.001953125 c 0
 399.333007812 636.001953125 395.333007812 638.334960938 390 641.001953125 c 0
 380 647.001953125 369.666992188 650.001953125 359 650.001953125 c 0
 338.333007812 650.001953125 316.5 642.668945312 293.5 628.001953125 c 0
 270.5 613.334960938 248.666992188 593.001953125 228 567.001953125 c 0
 207.333007812 541.001953125 188.666015625 511.334960938 171.999023438 478.001953125 c 0
 155.33203125 444.001953125 141.665039062 406.001953125 130.998046875 364.001953125 c 0
 120.331054688 322.001953125 114.998046875 279.668945312 114.998046875 237.001953125 c 0
 114.998046875 205.001953125 120.998046875 174.168945312 132.998046875 144.501953125 c 0
 144.998046875 114.834960938 161.665039062 90.001953125 182.998046875 70.001953125 c 0
 203.665039062 50.6689453125 226.665039062 41.001953125 251.998046875 41.001953125 c 0
 272.665039062 41.001953125 292.665039062 43.3349609375 311.998046875 48.001953125 c 0
 331.331054688 52.6689453125 348.831054688 58.8359375 364.498046875 66.5029296875 c 0
 380.165039062 74.169921875 393.998046875 81.669921875 405.998046875 89.0029296875 c 0
 417.331054688 96.3359375 428.331054688 104.3359375 438.998046875 113.002929688 c 0
 446.998046875 118.3359375 453.831054688 122.3359375 459.498046875 125.002929688 c 0
 465.165039062 127.669921875 470.998046875 129.002929688 476.998046875 129.002929688 c 0
 482.331054688 129.002929688 487.331054688 127.3359375 491.998046875 124.002929688 c 0
 500.665039062 117.3359375 504.998046875 109.668945312 504.998046875 101.001953125 c 0
 504.998046875 90.3349609375 498.665039062 77.66796875 485.998046875 63.0009765625 c 0
 431.998046875 0.333984375 352.998046875 -30.9990234375 248.998046875 -30.9990234375 c 2
 240.998046875 -30.9990234375 l 2
 216.998046875 -30.9990234375 194.331054688 -26.666015625 172.998046875 -17.9990234375 c 0
 150.998046875 -8.666015625 131.665039062 3.6669921875 114.998046875 19 c 0
 98.3310546875 34.3330078125 83.8310546875 52 71.498046875 72 c 0
 59.1650390625 92 49.83203125 113.333007812 43.4990234375 136 c 0
 37.166015625 158.666992188 33.9990234375 181.333984375 33.9990234375 204.000976562 c 0
 33.9990234375 252.66796875 38.9990234375 300.16796875 48.9990234375 346.500976562 c 0
 58.9990234375 392.833984375 72.33203125 434.333984375 88.9990234375 471.000976562 c 0
 105.666015625 507.66796875 125.333007812 541.334960938 148 572.001953125 c 0
 168.666992188 603.334960938 190.5 629.16796875 213.5 649.500976562 c 0
 236.5 669.833984375 259.833007812 685.500976562 283.5 696.500976562 c 0
 307.166992188 707.500976562 330 713.000976562 352 713.000976562 c 0
 374 713.000976562 394.666992188 710.333984375 414 705.000976562 c 1
 416.666992188 710.333984375 419.666992188 709.333984375 423 702.000976562 c 1
 424.333007812 712.000976562 425.333007812 715.333984375 426 712.000976562 c 1
 428 720.000976562 432 726.66796875 438 732.000976562 c 0
 444 736.66796875 450.666992188 739.334960938 458 740.001953125 c 0
 461.333007812 740.668945312 463.333007812 741.001953125 464 741.001953125 c 0
 470.666992188 741.001953125 477.666992188 738.668945312 485 734.001953125 c 0
 493.666992188 728.668945312 499.333984375 720.3359375 502.000976562 709.002929688 c 0
 507.333984375 683.669921875 510.000976562 656.668945312 510.000976562 628.001953125 c 2
 510.000976562 591.002929688 l 2
 510.000976562 578.3359375 505.666992188 565.833007812 497 553.5 c 0
EndSplineSet
EndChar

StartChar: D
Encoding: 68 68 37
Width: 544
GlyphClass: 2
Flags: MW
HStem: -31 75.999 675 20G<69.3315 85.6646>
VStem: 31.999 77.7113 436.001 76.9953
LayerCount: 2
Fore
SplineSet
286.99609375 551 m 0
 252.99609375 574.333007812 203.99609375 598.666015625 139.99609375 623.999023438 c 1
 138.99609375 624.999023438 l 1
 137.99609375 624.999023438 l 1
 136.99609375 625.999023438 l 1
 135.99609375 625.999023438 l 1
 134.99609375 625.999023438 l 1
 134.99609375 626.999023438 l 1
 133.99609375 626.999023438 l 1
 132.99609375 626.999023438 l 1
 131.99609375 626.999023438 l 1
 131.99609375 627.999023438 l 1
 130.99609375 627.999023438 l 1
 129.99609375 627.999023438 l 1
 128.99609375 627.999023438 l 1
 128.99609375 628.999023438 l 1
 127.99609375 628.999023438 l 1
 126.99609375 628.999023438 l 1
 125.994140625 629.999023438 l 1
 124.99609375 629.999023438 l 1
 111.99609375 643.999023438 l 1
 110.99609375 620.999023438 l 2
 110.138671875 583.283203125 109.709960938 546.118164062 109.709960938 509.50390625 c 0
 109.709960938 460.689453125 110.471679688 412.854492188 111.99609375 365.999023438 c 0
 113.329101562 324.666015625 114.662109375 275.166015625 115.995117188 217.499023438 c 0
 117.328125 159.83203125 118.661132812 114.33203125 119.994140625 80.9990234375 c 1
 125.994140625 78.9990234375 l 2
 153.327148438 66.33203125 180.994140625 57.4990234375 208.994140625 52.4990234375 c 0
 236.994140625 47.4990234375 268.994140625 44.9990234375 304.994140625 44.9990234375 c 0
 324.327148438 44.9990234375 342.327148438 51.83203125 358.994140625 65.4990234375 c 0
 375.661132812 79.166015625 389.328125 96.3330078125 399.995117188 117 c 0
 411.328125 137.666992188 420.161132812 160.166992188 426.494140625 184.5 c 0
 435.956054688 220.85546875 436.000976562 247.245117188 436.000976562 258.552734375 c 0
 436.000976562 385.967773438 386.333984375 483.450195312 286.99609375 551 c 0
504 152.5 m 0
 498 128.833007812 488.666992188 106 476 84 c 0
 463.333007812 62 448.666015625 42.5 431.999023438 25.5 c 0
 415.33203125 8.5 395.999023438 -5.3330078125 373.999023438 -16 c 0
 352.666015625 -26 329.999023438 -31 305.999023438 -31 c 2
 296.999023438 -31 l 2
 269.666015625 -31 242.166015625 -29.6669921875 214.499023438 -27 c 0
 186.83203125 -24.3330078125 164.33203125 -21 146.999023438 -17 c 0
 128.999023438 -12.3330078125 112.83203125 -8.3330078125 98.4990234375 -5 c 0
 84.166015625 -1.6669921875 75.3330078125 0 72 0 c 0
 61.3330078125 0 52.666015625 3.3330078125 45.9990234375 10 c 0
 39.9990234375 16 36.9990234375 24.3330078125 36.9990234375 35 c 2
 36.9990234375 41 l 2
 38.9990234375 65 39.9990234375 102.333007812 39.9990234375 153 c 0
 39.33203125 243.666992188 36.9990234375 351.666992188 32.9990234375 477 c 0
 32.33203125 514.333007812 31.9990234375 538.833007812 31.9990234375 550.5 c 0
 31.9990234375 562.166992188 32.4990234375 580.333984375 33.4990234375 605.000976562 c 0
 34.4990234375 629.66796875 34.9990234375 644.66796875 34.9990234375 650.000976562 c 0
 35.666015625 665.333984375 39.666015625 676.666992188 46.9990234375 684 c 0
 54.33203125 691.333007812 63.6650390625 695 74.998046875 695 c 0
 96.3310546875 695 123.6640625 691.666992188 156.997070312 685 c 0
 176.330078125 681 195.997070312 675.5 215.997070312 668.5 c 0
 235.997070312 661.5 257.6640625 651.833007812 280.997070312 639.5 c 0
 304.330078125 627.166992188 326.330078125 612.666992188 346.997070312 596 c 0
 367.6640625 579.333007812 387.997070312 559 407.997070312 535 c 0
 429.330078125 511 447.663085938 484.5 462.99609375 455.5 c 0
 478.329101562 426.5 490.49609375 391.833007812 499.49609375 351.5 c 0
 508.49609375 311.166992188 512.99609375 267.666992188 512.99609375 221 c 0
 512.99609375 199 510 176.166992188 504 152.5 c 0
EndSplineSet
EndChar

StartChar: E
Encoding: 69 69 38
Width: 544
GlyphClass: 2
Flags: MW
HStem: -20 68.0039<153.666 214.338> -6 71.0039<440.333 472.338 448 472.338> 312.004 65.998 332.004 61.999 615.002 63.999
VStem: 45.999 76.0039
LayerCount: 2
Fore
SplineSet
461 -6 m 2x4c
 448 -6 l 2x4c
 432.666992188 -6 407.666992188 -7 373 -9 c 0
 272.333007812 -16.3330078125 202.666015625 -20 163.999023438 -20 c 0
 143.33203125 -20 125.999023438 -19.3330078125 111.999023438 -18 c 0
 98.666015625 -17.3330078125 85.166015625 -10.666015625 71.4990234375 2.0009765625 c 0
 57.83203125 14.66796875 49.9990234375 30.00390625 47.9990234375 48.00390625 c 0
 45.9990234375 64.00390625 44.9990234375 91.333984375 44.9990234375 130.000976562 c 0
 44.9990234375 168.66796875 45.33203125 210.66796875 45.9990234375 256.000976562 c 2
 45.9990234375 343.500976562 l 2
 45.9990234375 370.500976562 45.33203125 408.000976562 43.9990234375 456.000976562 c 0
 43.33203125 496.000976562 42.9990234375 522.333984375 42.9990234375 535.000976562 c 0
 42.9990234375 547.66796875 43.4990234375 566.500976562 44.4990234375 591.500976562 c 0
 45.4990234375 616.500976562 45.9990234375 632.333984375 45.9990234375 639.000976562 c 0
 46.666015625 654.333984375 50.8330078125 665.833984375 58.5 673.500976562 c 0
 66.1669921875 681.16796875 75.333984375 685.000976562 86.0009765625 685.000976562 c 1
 86.66796875 678.333984375 87.66796875 678.333984375 89.0009765625 685.000976562 c 1
 101.66796875 684.333984375 111.334960938 679.666992188 118.001953125 671 c 0
 119.334960938 663.666992188 120.669921875 662.333984375 122.002929688 667.000976562 c 1
 124.002929688 661.000976562 126.000976562 661.333984375 128.000976562 668.000976562 c 1
 178.66796875 675.333984375 242.334960938 679.000976562 319.001953125 679.000976562 c 0
 340.334960938 679.000976562 359.334960938 678.66796875 376.001953125 678.000976562 c 0
 414.668945312 676.000976562 445.3359375 673.666992188 468.002929688 671 c 0
 482.002929688 669.666992188 491.169921875 666.834960938 495.502929688 662.501953125 c 0
 499.8359375 658.168945312 502.002929688 652.001953125 502.002929688 644.001953125 c 0
 502.002929688 626.668945312 497.3359375 616.001953125 488.002929688 612.001953125 c 0
 484.002929688 610.001953125 480.502929688 609.168945312 477.502929688 609.501953125 c 0
 474.502929688 609.834960938 472.002929688 610.001953125 470.002929688 610.001953125 c 0
 423.3359375 613.334960938 378.002929688 615.001953125 334.002929688 615.001953125 c 0
 318.669921875 615.001953125 303.336914062 614.668945312 288.00390625 614.001953125 c 0
 230.00390625 612.668945312 179.00390625 608.668945312 135.00390625 602.001953125 c 1
 132.336914062 595.334960938 129.669921875 595.001953125 127.002929688 601.001953125 c 1
 123.669921875 525.668945312 122.002929688 454.668945312 122.002929688 388.001953125 c 2
 122.002929688 378.001953125 l 1xac
 175.3359375 378.668945312 240.668945312 381.3359375 318.001953125 386.002929688 c 0
 398.001953125 391.3359375 443.001953125 394.002929688 453.001953125 394.002929688 c 0
 465.668945312 394.002929688 474.3359375 391.502929688 479.002929688 386.502929688 c 0
 483.669921875 381.502929688 486.002929688 374.669921875 486.002929688 366.002929688 c 0
 486.002929688 354.669921875 484.002929688 346.336914062 480.002929688 341.00390625 c 0
 474.669921875 335.00390625 465.836914062 332.00390625 453.50390625 332.00390625 c 0x1c
 441.170898438 332.00390625 392.00390625 328.670898438 306.00390625 322.00390625 c 0
 222.00390625 315.336914062 164.00390625 312.00390625 132.00390625 312.00390625 c 1
 129.336914062 304.670898438 126.336914062 304.337890625 123.00390625 311.004882812 c 1
 123.00390625 284.337890625 123.336914062 247.670898438 124.00390625 201.00390625 c 0
 124.00390625 172.336914062 124.336914062 149.00390625 125.00390625 131.00390625 c 0
 126.336914062 93.00390625 129.00390625 68.6708984375 133.00390625 58.00390625 c 0
 133.670898438 50.00390625 134.336914062 48.6708984375 135.00390625 54.00390625 c 1
 137.00390625 47.3369140625 138.671875 47.00390625 140.004882812 53.00390625 c 1
 150.671875 49.6708984375 171.671875 48.00390625 203.004882812 48.00390625 c 0xac
 225.671875 48.00390625 254.00390625 48.6708984375 288.00390625 50.00390625 c 0
 369.336914062 54.00390625 422.666992188 58.3369140625 448 63.00390625 c 0
 456.666992188 64.3369140625 463.837890625 65.00390625 469.504882812 65.00390625 c 0x4c
 475.171875 65.00390625 480.004882812 64.00390625 484.004882812 62.00390625 c 0
 488.004882812 60.00390625 491.004882812 58.00390625 493.004882812 56.00390625 c 0
 495.004882812 54.00390625 496.671875 51.3369140625 498.004882812 48.00390625 c 0x8c
 499.337890625 44.6708984375 500.337890625 41.837890625 501.004882812 39.5048828125 c 0
 501.671875 37.171875 502.002929688 34.3388671875 502.002929688 31.005859375 c 0
 502.669921875 20.3388671875 499.338867188 11.005859375 492.005859375 3.005859375 c 0
 486.672851562 -3.6611328125 478.33984375 -6.994140625 467.006835938 -6.994140625 c 0
 465.006835938 -6.3271484375 463 -6 461 -6 c 2x4c
EndSplineSet
EndChar

StartChar: F
Encoding: 70 70 39
Width: 544
GlyphClass: 2
Flags: MW
HStem: 310.003 62 323.003 64.999 619.002 67.998 675.001 20G
VStem: 43.9951 77.8028 47.9951 84.001
LayerCount: 2
Fore
SplineSet
469 682 m 0x28
 482.333007812 680.666992188 491 677.833007812 495 673.5 c 0
 499 669.166992188 501.333007812 662.666992188 502 654 c 0
 502 644.666992188 499 636.333984375 493 629.000976562 c 0
 488.333007812 622.333984375 479.666015625 619.000976562 466.999023438 619.000976562 c 2
 465.999023438 619.000976562 l 2
 429.33203125 621.000976562 392.33203125 622.000976562 354.999023438 622.000976562 c 0
 286.33203125 622.000976562 210.33203125 618.333984375 126.999023438 611.000976562 c 1
 126.33203125 594.333984375 125.665039062 573.333984375 124.998046875 548.000976562 c 0
 122.864257812 502.670898438 121.797851562 458.194335938 121.797851562 414.571289062 c 0
 121.797851562 403.661132812 121.864257812 392.8046875 121.998046875 382.001953125 c 0
 125.998046875 376.001953125 129.665039062 376.334960938 132.998046875 383.001953125 c 1
 160.331054688 386.334960938 189.6640625 388.001953125 220.997070312 388.001953125 c 2
 242.997070312 388.001953125 l 2x68
 282.997070312 386.668945312 318.997070312 384.668945312 350.997070312 382.001953125 c 0
 383.6640625 378.668945312 410.331054688 375.3359375 430.998046875 372.002929688 c 0
 445.665039062 369.3359375 454.998046875 366.002929688 458.998046875 362.002929688 c 0
 462.998046875 358.002929688 465.331054688 352.002929688 465.998046875 344.002929688 c 0
 465.998046875 334.002929688 463.665039062 325.3359375 458.998046875 318.002929688 c 0
 456.331054688 312.669921875 449.6640625 310.002929688 438.997070312 310.002929688 c 2
 433.997070312 310.002929688 l 2x88
 413.330078125 313.3359375 384.997070312 316.3359375 348.997070312 319.002929688 c 0
 314.997070312 321.669921875 276.6640625 323.002929688 233.997070312 323.002929688 c 0
 193.330078125 322.3359375 158.997070312 320.002929688 130.997070312 316.002929688 c 1
 128.330078125 309.3359375 125.663085938 309.002929688 122.99609375 315.002929688 c 1
 125.663085938 208.3359375 128.663085938 108.3359375 131.99609375 15.0029296875 c 0
 130.663085938 3.669921875 125.49609375 -5.330078125 116.49609375 -11.9970703125 c 0
 107.49609375 -18.6640625 97.3291015625 -21.9970703125 85.99609375 -21.9970703125 c 1
 85.3291015625 -27.9970703125 84.3291015625 -27.6640625 82.99609375 -20.9970703125 c 1
 72.3291015625 -21.6640625 63.662109375 -18.3310546875 56.9951171875 -10.998046875 c 0
 50.9951171875 -4.998046875 47.9951171875 3.3349609375 47.9951171875 14.001953125 c 2
 47.9951171875 19.001953125 l 2x44
 49.9951171875 41.001953125 50.9951171875 77.6689453125 50.9951171875 129.001953125 c 0
 50.328125 223.668945312 47.9951171875 329.001953125 43.9951171875 445.001953125 c 0
 42.662109375 489.668945312 41.9951171875 519.668945312 41.9951171875 535.001953125 c 0
 41.9951171875 550.334960938 42.662109375 570.834960938 43.9951171875 596.501953125 c 0
 45.328125 622.168945312 45.9951171875 640.001953125 45.9951171875 650.001953125 c 0
 46.662109375 665.334960938 50.662109375 676.66796875 57.9951171875 684.000976562 c 0
 65.328125 691.333984375 74.6611328125 695.000976562 85.994140625 695.000976562 c 1
 87.994140625 688.333984375 89.6611328125 688.333984375 90.994140625 695.000976562 c 1x58
 103.661132812 695.000976562 113.328125 690.66796875 119.995117188 682.000976562 c 1
 120.662109375 673.333984375 121.662109375 671.666992188 122.995117188 677 c 1
 202.995117188 683.666992188 277.995117188 687 347.995117188 687 c 0
 394.662109375 687 435 685.333007812 469 682 c 0x28
EndSplineSet
EndChar

StartChar: G
Encoding: 71 71 40
Width: 544
GlyphClass: 2
Flags: MW
HStem: -31.002 72.002 248.5 74.501 285.998 64.5022 661 62.998
VStem: 33.0029 79.998
LayerCount: 2
Fore
SplineSet
437 705 m 0xb8
 470.333007812 692.333007812 491.333007812 681.333007812 500 672 c 0
 508 664 512 654.666992188 512 644 c 0
 512.666992188 638 511.666992188 631.333007812 509 624 c 0
 507.666992188 618 503.333984375 613.666992188 496.000976562 611 c 0
 491.333984375 609.666992188 487.500976562 609 484.500976562 609 c 0
 481.500976562 609 477.333984375 609.666992188 472.000976562 611 c 0
 468.000976562 612.333007812 458.833984375 617.333007812 444.500976562 626 c 0
 430.16796875 634.666992188 415.000976562 642.666992188 399.000976562 650 c 0
 383.66796875 657.333007812 369.66796875 661 357.000976562 661 c 0
 336.333984375 661 314.500976562 653.5 291.500976562 638.5 c 0
 268.500976562 623.5 246.833984375 602.5 226.500976562 575.5 c 0
 206.16796875 548.5 187.66796875 518 171.000976562 484 c 0
 153.66796875 449.333007812 139.66796875 410.5 129.000976562 367.5 c 0
 118.333984375 324.5 113.000976562 281 113.000976562 237 c 0
 113.000976562 205 119.000976562 174.166992188 131.000976562 144.5 c 0
 143.000976562 114.833007812 159.66796875 90 181.000976562 70 c 0
 201.66796875 50.6669921875 224.66796875 41 250.000976562 41 c 0
 266.66796875 41 283.334960938 46.6669921875 300.001953125 58 c 0
 316.668945312 69.3330078125 331.501953125 83.666015625 344.501953125 100.999023438 c 0
 357.501953125 118.33203125 369.668945312 137.33203125 381.001953125 157.999023438 c 0
 392.334960938 178.666015625 402.001953125 198.999023438 410.001953125 218.999023438 c 0
 418.001953125 238.999023438 424.334960938 257.33203125 429.001953125 273.999023438 c 0
 430.334960938 276.666015625 431.66796875 280.999023438 433.000976562 286.999023438 c 1
 428.333984375 285.666015625 423.666992188 285.333007812 419 286 c 0
 379 284 340 280.166992188 302 274.5 c 0
 264 268.833007812 237.333007812 261.333007812 222 252 c 0
 218.666992188 250 215.333984375 248.833007812 212.000976562 248.5 c 0
 208.66796875 248.166992188 205.334960938 249.333984375 202.001953125 252.000976562 c 0
 194.668945312 257.333984375 190.3359375 264.333984375 189.002929688 273.000976562 c 2
 189.002929688 281.000976562 l 2
 189.002929688 298.333984375 199.3359375 312.333984375 220.002929688 323.000976562 c 0xd8
 236.002929688 332.333984375 272.3359375 339.666992188 329.002929688 345 c 0
 371.002929688 348.333007812 407.669921875 350 439.002929688 350 c 0
 445.002929688 350.333984375 450.669921875 350.500976562 456.002929688 350.500976562 c 0
 461.3359375 350.500976562 466.3359375 350.333984375 471.002929688 350 c 0
 485.669921875 348.666992188 495.336914062 346 500.00390625 342 c 0
 506.00390625 337.333007812 509.00390625 328.666015625 509.00390625 315.999023438 c 0
 509.00390625 309.33203125 507.836914062 303.665039062 505.50390625 298.998046875 c 0
 503.170898438 294.331054688 499.00390625 290.998046875 493.00390625 288.998046875 c 0
 491.00390625 286.331054688 489.00390625 285.331054688 487.00390625 285.998046875 c 1
 487.00390625 278.998046875 l 2
 487.00390625 276.998046875 486.50390625 271.665039062 485.50390625 262.998046875 c 0
 484.50390625 254.331054688 483.670898438 247.331054688 483.00390625 241.998046875 c 0
 481.670898438 227.998046875 477.670898438 211.831054688 471.00390625 193.498046875 c 0
 464.336914062 175.165039062 455.50390625 155.498046875 444.50390625 134.498046875 c 0
 433.50390625 113.498046875 420.336914062 92.998046875 405.00390625 72.998046875 c 0
 390.336914062 53.6650390625 374.669921875 35.998046875 358.002929688 19.998046875 c 0
 341.3359375 3.998046875 323.002929688 -8.6689453125 303.002929688 -18.001953125 c 0
 283.002929688 -26.6689453125 262.669921875 -31.001953125 242.002929688 -31.001953125 c 2
 240.002929688 -31.001953125 l 1
 239.002929688 -31.001953125 l 2
 215.002929688 -31.001953125 192.3359375 -26.6689453125 171.002929688 -18.001953125 c 0
 149.002929688 -8.6689453125 129.669921875 3.6640625 113.002929688 18.9970703125 c 0
 96.3359375 34.330078125 81.8359375 51.9970703125 69.5029296875 71.9970703125 c 0
 57.169921875 91.9970703125 48.0029296875 113.330078125 42.0029296875 135.997070312 c 0
 36.0029296875 158.6640625 33.0029296875 181.331054688 33.0029296875 203.998046875 c 0
 33.0029296875 253.998046875 37.8359375 302.665039062 47.5029296875 349.998046875 c 0
 57.169921875 397.331054688 70.3369140625 439.831054688 87.00390625 477.498046875 c 0
 103.670898438 515.165039062 123.337890625 549.665039062 146.004882812 580.998046875 c 0
 166.671875 612.331054688 188.504882812 638.331054688 211.504882812 658.998046875 c 0
 234.504882812 679.665039062 258.004882812 695.665039062 282.004882812 706.998046875 c 0
 306.004882812 718.331054688 329.004882812 723.998046875 351.004882812 723.998046875 c 0
 375.004882812 723.998046875 403.666992188 717.666992188 437 705 c 0xb8
EndSplineSet
EndChar

StartChar: H
Encoding: 72 72 41
Width: 544
GlyphClass: 2
Flags: MW
HStem: 311.994 66.002 674.994 20G
VStem: 60.502 79.499 402 83.001 411 80.001
LayerCount: 2
Fore
SplineSet
137.5 292 m 0xe8
 137.166992188 287.333007812 137 284 137 282 c 0
 135 248.666992188 134 209.833984375 134 165.500976562 c 0
 134 121.16796875 135 70.9951171875 137 14.9951171875 c 0
 135.666992188 3.662109375 130.333984375 -5.337890625 121.000976562 -12.0048828125 c 0
 111.66796875 -18.671875 101.334960938 -22.0048828125 90.001953125 -22.0048828125 c 1
 89.3349609375 -28.0048828125 88.3349609375 -27.671875 87.001953125 -21.0048828125 c 1
 77.001953125 -21.671875 68.6689453125 -18.3388671875 62.001953125 -11.005859375 c 0
 56.001953125 -5.005859375 53.001953125 3 53.001953125 13 c 0
 53.6689453125 15 54.001953125 16.994140625 54.001953125 18.994140625 c 0
 55.3349609375 38.3271484375 56.001953125 81.3330078125 56.001953125 148 c 0
 56.001953125 182.666992188 56.3349609375 214 57.001953125 242 c 2
 57.001953125 243 l 2
 57.001953125 265 57.501953125 297.166992188 58.501953125 339.5 c 0
 59.501953125 381.833007812 60.1689453125 409.166015625 60.501953125 421.499023438 c 0
 60.8349609375 433.83203125 61.001953125 446.165039062 61.001953125 458.498046875 c 0
 61.001953125 470.831054688 60.6689453125 490.998046875 60.001953125 518.998046875 c 0
 59.3349609375 546.998046875 59.001953125 565.498046875 59.001953125 574.498046875 c 0
 59.001953125 583.498046875 60.001953125 608.662109375 62.001953125 649.995117188 c 0
 62.6689453125 665.328125 66.6689453125 676.661132812 74.001953125 683.994140625 c 0
 81.3349609375 691.327148438 90.66796875 694.994140625 102.000976562 694.994140625 c 2
 105.000976562 694.994140625 l 2
 115.66796875 694.994140625 124.66796875 691.827148438 132.000976562 685.494140625 c 0
 139.333984375 679.161132812 143.000976562 668.328125 143.000976562 652.995117188 c 0
 143.000976562 646.328125 142.16796875 632.1640625 140.500976562 610.497070312 c 0
 138.833984375 588.830078125 138 568.830078125 138 550.497070312 c 0
 138 532.1640625 138.333984375 505.1640625 139.000976562 469.497070312 c 0
 139.66796875 433.830078125 140.000976562 406.663085938 140.000976562 387.99609375 c 2
 140.000976562 377.99609375 l 2
 142.66796875 371.329101562 145.66796875 371.329101562 149.000976562 377.99609375 c 1
 202.333984375 379.329101562 266.333984375 385.662109375 341.000976562 396.995117188 c 0
 369.66796875 400.995117188 392.66796875 403.662109375 410.000976562 404.995117188 c 1
 410.000976562 413.995117188 l 2
 410.000976562 418.662109375 409.66796875 425.662109375 409.000976562 434.995117188 c 0
 408.333984375 444.328125 408.000976562 451.328125 408.000976562 455.995117188 c 0
 407.333984375 497.328125 407.000976562 524.495117188 407.000976562 537.495117188 c 0
 407.000976562 550.495117188 407.66796875 570.995117188 409.000976562 598.995117188 c 0
 410.333984375 626.995117188 411 643.995117188 411 649.995117188 c 0
 411 665.328125 414.833984375 676.661132812 422.500976562 683.994140625 c 0
 430.16796875 691.327148438 439.334960938 694.994140625 450.001953125 694.994140625 c 2
 453.001953125 694.994140625 l 2
 464.334960938 694.994140625 473.66796875 691.827148438 481.000976562 685.494140625 c 0
 488.333984375 679.161132812 492.000976562 668.328125 492.000976562 652.995117188 c 0
 492.000976562 640.328125 491.500976562 614.495117188 490.500976562 575.495117188 c 0
 489.500976562 536.495117188 489.000976562 501.995117188 489.000976562 471.995117188 c 0
 489.000976562 441.995117188 489.333984375 398.995117188 490.000976562 342.995117188 c 0
 490.66796875 327.662109375 491.000976562 305.995117188 491.000976562 277.995117188 c 0xe8
 491.000976562 249.995117188 490.000976562 206.495117188 488.000976562 147.495117188 c 0
 486.000976562 88.4951171875 485.000976562 46.9951171875 485.000976562 22.9951171875 c 2
 485.000976562 16.9951171875 l 1
 485.000976562 14.9951171875 l 2
 485.000976562 4.328125 479.66796875 -4.671875 469.000976562 -12.0048828125 c 0
 460.333984375 -18.671875 450.333984375 -22.0048828125 439.000976562 -22.0048828125 c 1
 438.333984375 -28.0048828125 437.333984375 -27.671875 436.000976562 -21.0048828125 c 1
 425.333984375 -21.671875 416.66796875 -18.3388671875 410.000976562 -11.005859375 c 0
 404.66796875 -5.005859375 402 3.3271484375 402 13.994140625 c 2
 402 18.994140625 l 1xf0
 408 103.661132812 411 197.661132812 411 300.994140625 c 2
 411 342.995117188 l 1
 407 336.328125 403.333007812 335.994140625 400 341.994140625 c 1
 388.666992188 341.327148438 350.666992188 335.994140625 286 325.994140625 c 0
 222 316.661132812 175.666992188 311.994140625 147 311.994140625 c 2
 138 311.994140625 l 1
 138 301.994140625 l 2
 138 299.994140625 137.833007812 296.666992188 137.5 292 c 0xe8
EndSplineSet
EndChar

StartChar: I
Encoding: 73 73 42
Width: 544
GlyphClass: 2
Flags: MW
HStem: -6.40211 58.3992 612 69.001 624 64.001
VStem: 230.998 76.001 237.998 75.001
LayerCount: 2
Fore
SplineSet
234.999023438 540 m 2xc8
 234.999023438 546.666992188 235.665039062 560.001953125 236.998046875 580.001953125 c 0
 238.331054688 600.001953125 238.999023438 611.668945312 238.999023438 615.001953125 c 2
 238.999023438 624.001953125 l 1
 204.999023438 624.668945312 176.666015625 625.001953125 153.999023438 625.001953125 c 0
 129.33203125 625.001953125 112.33203125 624.834960938 102.999023438 624.501953125 c 0
 93.666015625 624.168945312 88.666015625 624.001953125 87.9990234375 624.001953125 c 0
 74.666015625 624.001953125 64.8330078125 626.834960938 58.5 632.501953125 c 0
 52.1669921875 638.168945312 49 645.3359375 49 654.002929688 c 2
 49 657.002929688 l 2
 49 665.002929688 52 672.169921875 58 678.502929688 c 0
 64 684.8359375 74.3330078125 688.002929688 89 688.002929688 c 0xa8
 144.333007812 690.002929688 193.997070312 691.002929688 237.997070312 691.002929688 c 0
 325.997070312 691.002929688 401.666015625 687.669921875 464.999023438 681.002929688 c 0
 476.33203125 679.669921875 485 677.002929688 491 673.002929688 c 0
 497.666992188 668.3359375 501.333984375 660.668945312 502.000976562 650.001953125 c 0
 502.000976562 640.001953125 499.000976562 630.668945312 493.000976562 622.001953125 c 0
 490.333984375 618.001953125 486.666992188 615.001953125 482 613.001953125 c 0
 478.666992188 611.668945312 475.666992188 611.001953125 473 611.001953125 c 0
 470.333007812 611.001953125 467.666015625 611.334960938 464.999023438 612.001953125 c 0
 444.33203125 615.334960938 393.665039062 619.001953125 312.998046875 623.001953125 c 1
 312.998046875 613.001953125 l 2
 312.998046875 607.668945312 312.665039062 590.168945312 311.998046875 560.501953125 c 0
 311.331054688 530.834960938 310.998046875 504.66796875 310.998046875 482.000976562 c 2
 310.998046875 436.000976562 l 2
 310.998046875 415.333984375 311.331054688 394.166992188 311.998046875 372.5 c 0
 312.665039062 350.833007812 312.998046875 326.166015625 312.998046875 298.499023438 c 0xc8
 312.998046875 270.83203125 311.998046875 227.999023438 309.998046875 169.999023438 c 0
 307.998046875 111.999023438 306.998046875 75.9990234375 306.998046875 61.9990234375 c 2
 306.998046875 51.9990234375 l 1
 315.998046875 51.9990234375 l 2
 339.998046875 51.9990234375 391.331054688 51.666015625 469.998046875 50.9990234375 c 0
 483.331054688 50.9990234375 492.1640625 48.4990234375 496.497070312 43.4990234375 c 0
 500.830078125 38.4990234375 503.330078125 31.666015625 503.997070312 22.9990234375 c 0
 503.997070312 17.666015625 503.497070312 12.9990234375 502.497070312 8.9990234375 c 0
 501.497070312 4.9990234375 499.6640625 0.9990234375 496.997070312 -3.0009765625 c 0
 495.6640625 -6.333984375 493.331054688 -8.5009765625 489.998046875 -9.5009765625 c 0
 486.665039062 -10.5009765625 483.498046875 -11.16796875 480.498046875 -11.5009765625 c 0
 477.498046875 -11.833984375 474.665039062 -11.6669921875 471.998046875 -11 c 0
 453.998046875 -8.3330078125 425.331054688 -7 385.998046875 -7 c 0
 381.331054688 -7 369.998046875 -6.8330078125 351.998046875 -6.5 c 0
 348.400390625 -6.43359375 344.549804688 -6.400390625 340.446289062 -6.400390625 c 0
 324.018554688 -6.400390625 303.536132812 -6.93359375 278.999023438 -8 c 2
 212.999023438 -15.2001953125 l 2
 198.33203125 -15.2001953125 183.665039062 -14.1337890625 168.998046875 -12.0009765625 c 0
 127.665039062 -13.333984375 99.1650390625 -14.0009765625 83.498046875 -14.0009765625 c 0
 67.8310546875 -14.0009765625 56.8310546875 -11.5009765625 50.498046875 -6.5009765625 c 0
 44.1650390625 -1.5009765625 40.998046875 4.9990234375 40.998046875 12.9990234375 c 2
 40.998046875 14.9990234375 l 2
 40.998046875 22.9990234375 43.998046875 30.166015625 49.998046875 36.4990234375 c 0
 55.998046875 42.83203125 66.3310546875 46.33203125 80.998046875 46.9990234375 c 0
 108.998046875 47.666015625 158.998046875 48.998046875 230.998046875 50.998046875 c 1xd0
 235.665039062 133.665039062 237.998046875 215.999023438 237.998046875 297.999023438 c 0
 238.220703125 311.783203125 238.33203125 325.641601562 238.33203125 339.57421875 c 0
 238.33203125 367.418945312 237.887695312 395.560546875 236.999023438 423.998046875 c 0
 235.666015625 453.331054688 234.999023438 484.998046875 234.999023438 518.998046875 c 2
 234.999023438 540 l 2xc8
EndSplineSet
EndChar

StartChar: J
Encoding: 74 74 43
Width: 544
GlyphClass: 2
Flags: MW
HStem: -34.999 82.001 626 65.001
VStem: 38.999 70 292.999 64.001
LayerCount: 2
Fore
SplineSet
177 626 m 0
 145.666992188 626 123.999023438 625.666015625 111.999023438 624.999023438 c 0
 99.9990234375 624.33203125 93.666015625 623.999023438 92.9990234375 623.999023438 c 0
 79.666015625 623.999023438 69.666015625 626.83203125 62.9990234375 632.499023438 c 0
 56.33203125 638.166015625 52.9990234375 645.333007812 52.9990234375 654 c 2
 52.9990234375 657 l 2
 52.9990234375 665 56.166015625 672.166992188 62.4990234375 678.5 c 0
 68.83203125 684.833007812 79.33203125 688 93.9990234375 688 c 0
 148.666015625 690 197.999023438 691 241.999023438 691 c 0
 329.999023438 691 405.666015625 687.666992188 468.999023438 681 c 0
 480.33203125 680.333007812 488.999023438 677.666015625 494.999023438 672.999023438 c 0
 501.666015625 668.33203125 505.333007812 660.665039062 506 649.998046875 c 0
 506 639.998046875 503 630.665039062 497 621.998046875 c 0
 494.333007812 617.998046875 490.666015625 614.998046875 485.999023438 612.998046875 c 0
 483.33203125 611.665039062 480.499023438 610.998046875 477.499023438 610.998046875 c 0
 474.499023438 610.998046875 471.666015625 611.331054688 468.999023438 611.998046875 c 0
 448.999023438 615.331054688 410.33203125 618.331054688 352.999023438 620.998046875 c 1
 352.999023438 610.998046875 l 2
 352.999023438 591.665039062 353.666015625 562.33203125 354.999023438 522.999023438 c 0
 355.666015625 480.999023438 356.666015625 445.33203125 357.999023438 415.999023438 c 0
 359.33203125 387.999023438 359.999023438 353.83203125 359.999023438 313.499023438 c 0
 359.999023438 273.166015625 358.999023438 237.333007812 356.999023438 206 c 0
 352.33203125 146 345.165039062 98 335.498046875 62 c 0
 325.831054688 26 314.6640625 0.8330078125 301.997070312 -13.5 c 0
 289.330078125 -27.8330078125 274.330078125 -35 256.997070312 -35 c 0
 237.6640625 -35 218.331054688 -31.1669921875 198.998046875 -23.5 c 0
 179.665039062 -15.8330078125 162.665039062 -5.666015625 147.998046875 7.0009765625 c 0
 132.665039062 19.66796875 118.165039062 33.66796875 104.498046875 49.0009765625 c 0
 90.8310546875 64.333984375 79.498046875 79.5009765625 70.498046875 94.5009765625 c 0
 61.498046875 109.500976562 54.3310546875 123.000976562 48.998046875 135.000976562 c 0
 43.6650390625 147.000976562 40.6650390625 156.66796875 39.998046875 164.000976562 c 0
 39.3310546875 167.333984375 38.998046875 171.000976562 38.998046875 175.000976562 c 0
 38.998046875 183.000976562 40.3310546875 192.000976562 42.998046875 202.000976562 c 0
 44.3310546875 208.66796875 47.498046875 214.16796875 52.498046875 218.500976562 c 0
 57.498046875 222.833984375 63.998046875 225.666992188 71.998046875 227 c 2
 79.998046875 227 l 2
 87.998046875 227.666992188 94.3310546875 225.666992188 98.998046875 221 c 0
 105.665039062 214.333007812 108.998046875 206 108.998046875 196 c 0
 108.998046875 176.666992188 114.998046875 154.333984375 126.998046875 129.000976562 c 0
 133.665039062 115.000976562 142.33203125 102.000976562 152.999023438 90.0009765625 c 0
 162.33203125 78.0009765625 175.165039062 67.833984375 191.498046875 59.5009765625 c 0
 207.831054688 51.16796875 225.998046875 47.0009765625 245.998046875 47.0009765625 c 0
 260.665039062 47.0009765625 271.665039062 60.66796875 278.998046875 88.0009765625 c 0
 286.331054688 117.333984375 290.998046875 164.666992188 292.998046875 230 c 2
 292.998046875 254 l 2
 292.998046875 267.333007812 292.498046875 310 291.498046875 382 c 0
 290.8984375 425.202148438 290.598632812 471.404296875 290.598632812 520.606445312 c 0
 290.598632812 553.404296875 290.732421875 587.536132812 290.999023438 623.000976562 c 1
 244.999023438 625.000976562 207 626 177 626 c 0
EndSplineSet
EndChar

StartChar: K
Encoding: 75 75 44
Width: 544
GlyphClass: 2
Flags: MW
HStem: -21.0341 21G 694.001 21G
VStem: 46 79.002 50.002 83
LayerCount: 2
Fore
SplineSet
44 541.5 m 0xe0
 44 556.5 44.66796875 578.333007812 46.0009765625 607 c 0
 47.333984375 635 48.0009765625 652.666992188 48.0009765625 660 c 0
 48.66796875 678.666992188 52.66796875 692.333984375 60.0009765625 701.000976562 c 0
 67.333984375 709.66796875 76.6669921875 714.000976562 88 714.000976562 c 2
 91 714.000976562 l 2
 101.666992188 714.66796875 110.666992188 711.000976562 118 703.000976562 c 0
 125.333007812 695.66796875 129 682.334960938 129 663.001953125 c 0
 129 647.668945312 128.333007812 613.001953125 127 559.001953125 c 0
 125.666992188 505.001953125 124.666992188 452.334960938 124 401.001953125 c 1
 158 437.001953125 197.333007812 480.001953125 242 530.001953125 c 0
 331.333007812 625.334960938 384 680.001953125 400 694.001953125 c 0
 408 703.334960938 415.666992188 709.334960938 423 712.001953125 c 0
 427.666992188 714.001953125 431.666992188 715.001953125 435 715.001953125 c 0
 441.666992188 715.001953125 448 711.000976562 454 703.000976562 c 0
 459.333007812 694.333984375 462 685.334960938 462 676.001953125 c 0
 462 667.334960938 456 657.334960938 444 646.001953125 c 0
 434 634.001953125 400 597.668945312 342 537.001953125 c 0
 286.666992188 473.668945312 235.333984375 416.001953125 188.000976562 364.001953125 c 1
 194.000976562 357.001953125 l 2
 215.333984375 333.668945312 251.000976562 296.3359375 301.000976562 245.002929688 c 0
 401.66796875 142.3359375 462.000976562 79.3359375 482.000976562 56.0029296875 c 0
 490.66796875 46.0029296875 496.000976562 39.3359375 498.000976562 36.0029296875 c 0
 500.000976562 32.669921875 501.000976562 29.3369140625 501.000976562 26.00390625 c 0
 501.000976562 20.00390625 500.333984375 14.6708984375 499.000976562 10.00390625 c 0
 495.66796875 0.00390625 490.66796875 -7.6630859375 484.000976562 -12.99609375 c 0
 477.333984375 -18.3291015625 471.000976562 -20.9970703125 465.000976562 -20.9970703125 c 0
 464.60546875 -21.021484375 464.208984375 -21.0341796875 463.811523438 -21.0341796875 c 0
 453.4921875 -21.0341796875 442.555664062 -12.6875 431 4.0029296875 c 0
 423.666992188 13.3359375 400 36.3359375 360 73.0029296875 c 0
 322.666992188 110.3359375 282.333984375 151.3359375 239.000976562 196.002929688 c 0
 195.66796875 244.002929688 163.334960938 282.002929688 142.001953125 310.002929688 c 2
 125.001953125 331.002929688 l 1
 125.001953125 284.002929688 l 1xe0
 133.001953125 24.001953125 l 2
 132.334960938 9.3349609375 127.33203125 -1.9970703125 117.999023438 -9.9970703125 c 0
 108.666015625 -17.9970703125 98.3359375 -21.9970703125 87.0029296875 -21.9970703125 c 1
 86.3359375 -27.9970703125 85.3359375 -27.6640625 84.0029296875 -20.9970703125 c 1
 73.3359375 -21.6640625 64.6689453125 -17.3310546875 58.001953125 -7.998046875 c 0
 52.6689453125 0.001953125 50.001953125 10.6689453125 50.001953125 24.001953125 c 2
 50.001953125 28.001953125 l 2xd0
 52.001953125 50.001953125 53.001953125 86.6689453125 53.001953125 138.001953125 c 0
 52.3349609375 233.334960938 50 339.001953125 46 455.001953125 c 0
 44.6669921875 497.668945312 44 526.5 44 541.5 c 0xe0
EndSplineSet
EndChar

StartChar: L
Encoding: 76 76 45
Width: 544
GlyphClass: 2
Flags: MW
HStem: -15 67.001
VStem: 73.998 72.0039
LayerCount: 2
Fore
SplineSet
490.5 72.5 m 0
 493.5 68.1669921875 496 63.5 498 58.5 c 0
 500 53.5 501 48.6669921875 501 44 c 0
 501 34 498.833007812 26.5 494.5 21.5 c 0
 490.166992188 16.5 480.666992188 12.6669921875 466 10 c 0
 421.333007812 1.3330078125 356.333007812 -5 271 -9 c 0
 185 -13 120.666992188 -15 78 -15 c 0
 68 -15.6669921875 59.6669921875 -12.333984375 53 -5.0009765625 c 0
 47 0.9990234375 44 9.33203125 44 19.9990234375 c 0
 44 21.9990234375 44.1669921875 24.9990234375 44.5 28.9990234375 c 0
 44.8330078125 32.9990234375 48.666015625 69.9990234375 55.9990234375 139.999023438 c 0
 63.33203125 211.33203125 68.6650390625 279.999023438 71.998046875 345.999023438 c 0
 73.3310546875 363.999023438 73.998046875 388.166015625 73.998046875 418.499023438 c 0
 73.998046875 448.83203125 73.8310546875 471.83203125 73.498046875 487.499023438 c 0
 73.1650390625 503.166015625 72.33203125 554.333007812 70.9990234375 641 c 0
 71.666015625 657 75.8330078125 668.666992188 83.5 676 c 0
 91.1669921875 683.333007812 100.333984375 687 111.000976562 687 c 2
 114.000976562 687 l 2
 124.66796875 687 133.66796875 683.666992188 141.000976562 677 c 0
 148.333984375 670.333007812 152.000976562 659.666015625 152.000976562 644.999023438 c 0
 152.223632812 638.7734375 152.334960938 631.732421875 152.334960938 623.875976562 c 0
 152.334960938 608.174804688 151.890625 589.215820312 151.001953125 566.999023438 c 0
 149.001953125 517.666015625 147.334960938 475.333007812 146.001953125 440 c 0
 144.001953125 389.333007812 142.333984375 345.333007812 141.000976562 308 c 0
 140.333984375 280.666992188 138.001953125 240.333984375 134.001953125 187.000976562 c 0
 130.001953125 133.66796875 128.001953125 92.0009765625 128.001953125 62.0009765625 c 2
 128.001953125 52.0009765625 l 1
 152.000976562 52.0009765625 l 2
 201.333984375 52.66796875 258.66796875 56.3349609375 324.000976562 63.001953125 c 0
 392.000976562 69.6689453125 438.66796875 76.001953125 464.000976562 82.001953125 c 0
 466.66796875 82.6689453125 469.16796875 83.001953125 471.500976562 83.001953125 c 0
 473.833984375 83.001953125 476.333984375 82.6689453125 479.000976562 82.001953125 c 0
 483.66796875 80.001953125 487.5 76.8330078125 490.5 72.5 c 0
EndSplineSet
EndChar

StartChar: M
Encoding: 77 77 46
Width: 544
GlyphClass: 2
Flags: MW
HStem: -10 21G<51 56.3335> 684.001 20G
VStem: 22 68.001 228.001 85.999
LayerCount: 2
Fore
SplineSet
79 5 m 0
 71 -5 61.6669921875 -10 51 -10 c 0
 31.6669921875 -9.3330078125 22 13.333984375 22 58.0009765625 c 0
 22 66.0009765625 22.8330078125 79.833984375 24.5 99.5009765625 c 0
 26.1669921875 119.16796875 28.6669921875 145.000976562 32 177.000976562 c 0
 35.3330078125 209.000976562 38 237.000976562 40 261.000976562 c 0
 46 342.333984375 50 394.000976562 52 416.000976562 c 0
 54.6669921875 444.66796875 58 480.000976562 62 522.000976562 c 0
 70 603.333984375 78.3330078125 652.333984375 87 669.000976562 c 0
 93.6669921875 681.000976562 103 690.000976562 115 696.000976562 c 0
 126.333007812 701.333984375 137 704.000976562 147 704.000976562 c 2
 151 704.000976562 l 2
 162.333007812 704.000976562 171.666015625 702.000976562 178.999023438 698.000976562 c 0
 187.666015625 692.66796875 193.333007812 684.334960938 196 673.001953125 c 0
 203.333007812 643.668945312 211.5 595.3359375 220.5 528.002929688 c 0
 229.5 460.669921875 238.666992188 383.502929688 248 296.502929688 c 0
 257.333007812 209.502929688 264.000976562 152.002929688 268.000976562 124.002929688 c 0
 270.66796875 106.669921875 273.666992188 84 277 56 c 1
 279 83.3330078125 280.666992188 106.002929688 282 124.002929688 c 0
 288 218.669921875 295 303.669921875 303 379.002929688 c 0
 309 434.3359375 316.833007812 489.668945312 326.5 545.001953125 c 0
 336.166992188 600.334960938 344.666992188 643.001953125 352 673.001953125 c 0
 354 681.001953125 358.5 687.668945312 365.5 693.001953125 c 0
 372.5 698.334960938 379.666992188 701.66796875 387 703.000976562 c 0
 392.333007812 703.66796875 397 704.000976562 401 704.000976562 c 2
 411 704.000976562 l 1
 415 704.000976562 l 1
 428 704.000976562 l 2
 431.333007812 704.000976562 435.833007812 703.333984375 441.5 702.000976562 c 0
 447.166992188 700.66796875 451.333984375 698.834960938 454.000976562 696.501953125 c 0
 456.66796875 694.168945312 459.500976562 690.668945312 462.500976562 686.001953125 c 0
 465.500976562 681.334960938 467.66796875 675.334960938 469.000976562 668.001953125 c 0
 471.66796875 647.334960938 479.500976562 547.501953125 492.500976562 368.501953125 c 0
 505.500976562 189.501953125 514.66796875 88.001953125 520.000976562 64.001953125 c 0
 522.000976562 53.3349609375 523.000976562 43.66796875 523.000976562 35.0009765625 c 0
 523.000976562 15.0009765625 516.000976562 1.66796875 502.000976562 -4.9990234375 c 0
 497.333984375 -6.9990234375 492.500976562 -7.9990234375 487.500976562 -7.9990234375 c 0
 482.500976562 -7.9990234375 477.000976562 -6.33203125 471.000976562 -2.9990234375 c 0
 461.000976562 2.333984375 453.000976562 14.333984375 447.000976562 33.0009765625 c 0
 433.000976562 77.0009765625 420.66796875 271.000976562 410.000976562 615.000976562 c 0
 409.333984375 631.66796875 408.666992188 653.000976562 408 679.000976562 c 1
 404 653.66796875 400 633.000976562 396 617.000976562 c 0
 377.333007812 520.333984375 365.333007812 432.333984375 360 353.000976562 c 0
 354.666992188 277.000976562 347.166992188 205.000976562 337.5 137.000976562 c 0
 327.833007812 69.0009765625 320 27.66796875 314 13.0009765625 c 0
 308.666992188 -0.33203125 293.333984375 -6.9990234375 268.000976562 -6.9990234375 c 2
 264.000976562 -6.9990234375 l 2
 254.66796875 -6.9990234375 246.66796875 -5.166015625 240.000976562 -1.4990234375 c 0
 233.333984375 2.16796875 229.333984375 7.3349609375 228.000976562 14.001953125 c 0
 220.66796875 46.001953125 208.334960938 119.168945312 191.001953125 233.501953125 c 0
 173.668945312 347.834960938 157.668945312 458.001953125 143.001953125 564.001953125 c 0
 139.668945312 579.334960938 136.668945312 599.66796875 134.001953125 625.000976562 c 1
 132.001953125 599.66796875 130.001953125 579.334960938 128.001953125 564.001953125 c 0
 123.334960938 505.334960938 119.66796875 457.66796875 117.000976562 421.000976562 c 0
 115.000976562 387.000976562 113.000976562 358.000976562 111.000976562 334.000976562 c 0
 109.000976562 300.66796875 107.000976562 271.66796875 105.000976562 247.000976562 c 0
 103.000976562 219.000976562 100.66796875 190.000976562 98.0009765625 160.000976562 c 0
 96.0009765625 131.333984375 94.0009765625 107.666992188 92.0009765625 89 c 0
 90.66796875 75 90.0009765625 64 90.0009765625 56 c 0
 90.66796875 48 91.0009765625 46 91.0009765625 46 c 2
 91.0009765625 28.6669921875 87 15 79 5 c 0
EndSplineSet
EndChar

StartChar: N
Encoding: 78 78 47
Width: 544
GlyphClass: 2
Flags: MW
HStem: -11.998 21G 685 20G<93.999 101.999 454 462.333>
VStem: 46 63 53.2501 58.7499 426.001 72.999 436.501 62.4988
LayerCount: 2
Fore
SplineSet
459 705 m 0xc8
 465.666992188 705 470.999023438 704.333007812 474.999023438 703 c 0
 478.999023438 701 481.999023438 699 483.999023438 697 c 0
 485.999023438 695 487.666015625 690.666992188 488.999023438 684 c 0
 490.999023438 680 492.33203125 675.666992188 492.999023438 671 c 0
 493.666015625 666.333007812 494.666015625 659 495.999023438 649 c 0
 497.33203125 639.666992188 498.33203125 586.666992188 498.999023438 490 c 2
 498.999023438 448 l 2
 498.999023438 364 497.999023438 285.666992188 495.999023438 213 c 0
 493.999023438 139.666992188 491.666015625 89.6669921875 488.999023438 63 c 0
 486.33203125 35 483.665039062 17.6669921875 480.998046875 11 c 0
 475.665039062 -5.6669921875 460.33203125 -14 434.999023438 -14 c 1
 432.999023438 -20.6669921875 431.33203125 -20.6669921875 429.999023438 -14 c 1
 421.33203125 -14 413.999023438 -11.6669921875 407.999023438 -7 c 0
 401.999023438 -2.3330078125 397.666015625 4 394.999023438 12 c 0
 390.33203125 22.6669921875 374.999023438 52.333984375 348.999023438 101.000976562 c 2
 274.999023438 247.000976562 l 2
 249.666015625 295.66796875 223.333007812 350.334960938 196 411.001953125 c 0
 168 473.001953125 146.333007812 525.668945312 131 569.001953125 c 0
 123 592.334960938 115.333007812 613.334960938 108 632.001953125 c 1
 109.333007812 610.001953125 110.666015625 586.668945312 111.999023438 562.001953125 c 0
 115.33203125 504.668945312 116.999023438 450.001953125 116.999023438 398.001953125 c 0
 116.999023438 384.668945312 116.666015625 359.3359375 115.999023438 322.002929688 c 0
 115.33203125 284.002929688 113.999023438 237.669921875 111.999023438 183.002929688 c 0xd8
 109.999023438 128.3359375 108.999023438 90.6689453125 108.999023438 70.001953125 c 2
 108.999023438 62.001953125 l 2
 109.666015625 57.3349609375 109.999023438 53.3349609375 109.999023438 50.001953125 c 2
 109.999023438 44.001953125 l 2
 109.999023438 24.6689453125 106.666015625 10.6689453125 99.9990234375 2.001953125 c 0
 93.33203125 -7.3310546875 84.9990234375 -11.998046875 74.9990234375 -11.998046875 c 2
 72.9990234375 -11.998046875 l 2
 68.33203125 -11.998046875 64.33203125 -10.6650390625 60.9990234375 -7.998046875 c 0
 57.666015625 -5.3310546875 54.9990234375 -0.6640625 52.9990234375 6.0029296875 c 0
 48.33203125 16.669921875 45.9990234375 33.0029296875 45.9990234375 55.0029296875 c 0xe0
 45.9990234375 67.669921875 46.9990234375 119.002929688 48.9990234375 209.002929688 c 0
 50.9990234375 299.669921875 52.33203125 378.669921875 52.9990234375 446.002929688 c 0
 53.166015625 462.837890625 53.2490234375 479.505859375 53.2490234375 496.006835938 c 0
 53.2490234375 545.504882812 52.4990234375 593.50390625 50.9990234375 640.002929688 c 2
 50.9990234375 647.002929688 l 2
 51.666015625 657.002929688 53.3330078125 666.002929688 56 674.002929688 c 0
 58.6669921875 682.669921875 62.6669921875 689.336914062 68 694.00390625 c 0
 77.3330078125 701.336914062 87.9990234375 705 99.9990234375 705 c 0
 103.999023438 705 107.666992188 704.670898438 111 704.00390625 c 2
 111.999023438 704.00390625 l 2
 122.666015625 704.00390625 131.666992188 701.666992188 139 697 c 0
 147.666992188 691.666992188 153.666992188 682.00390625 157 668.00390625 c 0
 170.333007812 624.00390625 206.333007812 541.336914062 265 420.00390625 c 0
 323 299.336914062 373.333007812 202.00390625 416 128.00390625 c 0
 421.333007812 115.336914062 426.666015625 106.00390625 431.999023438 100.00390625 c 1
 432.666015625 110.00390625 433.333007812 122.336914062 434 137.00390625 c 0
 435.333007812 179.670898438 436 234.670898438 436 302.00390625 c 0
 436.333984375 318.670898438 436.500976562 336.170898438 436.500976562 354.50390625 c 0xd4
 436.500976562 372.836914062 436.333984375 392.00390625 436.000976562 412.00390625 c 0
 434.000976562 532.670898438 430.66796875 612.337890625 426.000976562 651.004882812 c 1
 426.000976562 657.004882812 l 2
 426.000976562 669.671875 428.66796875 680.338867188 434.000976562 689.005859375 c 0
 440.66796875 699.672851562 449 705 459 705 c 0xc8
EndSplineSet
EndChar

StartChar: O
Encoding: 79 79 48
Width: 544
GlyphClass: 2
Flags: MW
HStem: -23.998 73.999 646.508 71.4923
VStem: 46.999 77.002 421 76.999
LayerCount: 2
Fore
SplineSet
376.999023438 120.001953125 m 0
 389.666015625 137.334960938 399.333007812 157.001953125 406 179.001953125 c 0
 408.666992188 187.668945312 411.5 208.001953125 414.5 240.001953125 c 0
 417.5 272.001953125 419.666992188 309.668945312 421 353.001953125 c 0
 421.666992188 365.668945312 422 378.3359375 422 391.002929688 c 0
 422 422.3359375 420.666992188 453.002929688 418 483.002929688 c 0
 414 529.002929688 399 567.669921875 373 599.002929688 c 0
 349 630.3359375 319.333007812 646.168945312 284 646.501953125 c 0
 283.594726562 646.505859375 283.189453125 646.5078125 282.78515625 646.5078125 c 0
 247.986328125 646.5078125 218.724609375 632.338867188 195 604.000976562 c 0
 171.666992188 576.000976562 154.333984375 537.66796875 143.000976562 489.000976562 c 0
 130.333984375 437.000976562 124.000976562 377.66796875 124.000976562 311.000976562 c 0
 124.66796875 269.66796875 127.000976562 233.334960938 131.000976562 202.001953125 c 0
 133.000976562 183.334960938 137.000976562 164.66796875 143.000976562 146.000976562 c 0
 149.000976562 127.333984375 156.333984375 111.000976562 165.000976562 97.0009765625 c 0
 173.000976562 83.0009765625 183.66796875 71.66796875 197.000976562 63.0009765625 c 0
 210.333984375 54.333984375 225.33203125 50.0009765625 241.999023438 50.0009765625 c 0
 277.33203125 50.0009765625 309.000976562 59.66796875 337.000976562 79.0009765625 c 0
 351.66796875 89.0009765625 364.999023438 102.668945312 376.999023438 120.001953125 c 0
46.9990234375 261 m 2
 46.9990234375 291.666992188 47.3330078125 316.166992188 48 334.5 c 0
 48.6669921875 352.833007812 50 377.333007812 52 408 c 0
 56 467.333007812 67 522 85 572 c 0
 101.666992188 614.666992188 130 649.666992188 170 677 c 0
 206.666992188 704.333007812 248.333984375 718 295.000976562 718 c 0
 318.333984375 718 340.666992188 713 362 703 c 0
 384 693 404.333007812 678.5 423 659.5 c 0
 441.666992188 640.5 457.166992188 616.166992188 469.5 586.5 c 0
 481.833007812 556.833007812 489.666015625 523.333007812 492.999023438 486 c 0
 496.33203125 444.666992188 497.999023438 402.333984375 497.999023438 359.000976562 c 0
 497.999023438 325.66796875 496.83203125 290.834960938 494.499023438 254.501953125 c 0
 492.166015625 218.168945312 487.999023438 188.668945312 481.999023438 166.001953125 c 0
 473.33203125 134.668945312 462.83203125 107.668945312 450.499023438 85.001953125 c 0
 438.166015625 62.3349609375 424.833007812 44.001953125 410.5 30.001953125 c 0
 396.166992188 16.001953125 379.666992188 5.001953125 361 -2.998046875 c 0
 343.666992188 -10.998046875 325.666992188 -16.6650390625 307 -19.998046875 c 0
 288.333007812 -22.6650390625 266.666015625 -23.998046875 241.999023438 -23.998046875 c 0
 206.666015625 -23.998046875 173.999023438 -11.998046875 143.999023438 12.001953125 c 0
 112.666015625 36.001953125 88.666015625 68.001953125 71.9990234375 108.001953125 c 0
 55.33203125 148.001953125 46.9990234375 191.334960938 46.9990234375 238.001953125 c 2
 46.9990234375 243.001953125 l 1
 46.9990234375 261 l 2
EndSplineSet
EndChar

StartChar: P
Encoding: 80 80 49
Width: 544
GlyphClass: 2
Flags: MW
HStem: -19 21G<103.001 109.001 109.001 112.001> 230 71.998 639.996 52.0029
VStem: 66.001 75 73.2011 81.7989 416 73<470.999 514.997>
LayerCount: 2
Fore
SplineSet
144.000976562 630.998046875 m 1xf4
 141.000976562 547.998046875 l 2
 138.8671875 480.26953125 137.80078125 417.874023438 137.80078125 360.810546875 c 0
 137.80078125 346.5390625 137.8671875 332.6015625 138.000976562 318.998046875 c 1
 145.000976562 316.998046875 l 2
 172.333984375 306.998046875 203.000976562 301.998046875 237.000976562 301.998046875 c 0
 255.000976562 301.998046875 271.500976562 303.498046875 286.500976562 306.498046875 c 0
 301.500976562 309.498046875 314.66796875 313.498046875 326.000976562 318.498046875 c 0
 337.333984375 323.498046875 347.333984375 329.998046875 356.000976562 337.998046875 c 0
 365.333984375 345.998046875 373.333984375 354.165039062 380.000976562 362.498046875 c 0
 386.66796875 370.831054688 392.334960938 380.331054688 397.001953125 390.998046875 c 0
 401.668945312 401.665039062 405.168945312 411.498046875 407.501953125 420.498046875 c 0
 409.834960938 429.498046875 411.66796875 439.665039062 413.000976562 450.998046875 c 0
 414.333984375 462.331054688 415.166992188 471.6640625 415.5 478.997070312 c 0
 415.833007812 486.330078125 416 494.997070312 416 504.997070312 c 0
 416 524.997070312 412.333007812 543.1640625 405 559.497070312 c 0
 397.666992188 575.830078125 388.333007812 588.997070312 377 598.997070312 c 0
 366.333007812 608.330078125 354.500976562 616.163085938 341.500976562 622.49609375 c 0
 328.500976562 628.829101562 316.16796875 633.329101562 304.500976562 635.99609375 c 0
 292.833984375 638.663085938 281.333007812 639.99609375 270 639.99609375 c 0
 249.333007812 639.99609375 207.333984375 636.998046875 144.000976562 630.998046875 c 1xf4
65 626 m 1
 63.6669921875 621.333007812 62 622.998046875 60 630.998046875 c 0
 57.3330078125 635.665039062 56 640 56 644 c 0
 56.6669921875 644.666992188 57 645.666992188 57 647 c 0
 57.6669921875 653.666992188 60.1669921875 659.5 64.5 664.5 c 0
 68.8330078125 669.5 73.3330078125 672.666992188 78 674 c 0
 101.333007812 679.333007812 136 683.666015625 182 686.999023438 c 0
 224 690.33203125 253.333007812 691.999023438 270 691.999023438 c 0
 310 691.999023438 345.666992188 684.33203125 377 668.999023438 c 0
 411 653.666015625 438 630.666015625 458 599.999023438 c 0
 478 569.33203125 488.333007812 532.33203125 489 488.999023438 c 0
 489 452.999023438 483.166992188 419.166015625 471.5 387.499023438 c 0
 459.833007812 355.83203125 443.833007812 328.33203125 423.5 304.999023438 c 0
 403.166992188 281.666015625 379 263.333007812 351 250 c 0
 324.333007812 236.666992188 295.333007812 230 264 230 c 0
 217.333007812 230 180 233.333007812 152 240 c 1
 147.333007812 234.666992188 143 235.666992188 139 243 c 1
 141.666992188 189.666992188 145.666992188 130.666992188 151 66 c 0
 153.666992188 35.3330078125 155 17.666015625 155 12.9990234375 c 2
 155 11.9990234375 l 2
 155 2.666015625 151 -4.6669921875 143 -10 c 0
 133.666992188 -16 123.333984375 -19 112.000976562 -19 c 2
 109.000976562 -19 l 2
 97.0009765625 -19 87.333984375 -15.6669921875 80.0009765625 -9 c 0
 74.66796875 -3.6669921875 72.0009765625 3.666015625 72.0009765625 12.9990234375 c 0
 72.0009765625 14.9990234375 72.16796875 20.166015625 72.5009765625 28.4990234375 c 0
 72.833984375 36.83203125 73.0009765625 55.6650390625 73.0009765625 84.998046875 c 0
 73.134765625 91.7998046875 73.201171875 100.109375 73.201171875 109.926757812 c 0xec
 73.201171875 149.180664062 72.134765625 212.538085938 70.0009765625 299.998046875 c 0
 68.0009765625 371.998046875 67.0009765625 420.998046875 67.0009765625 446.998046875 c 0
 66.333984375 462.998046875 66.0009765625 484.498046875 66.0009765625 511.498046875 c 0
 66.0009765625 538.498046875 66.66796875 575.665039062 68.0009765625 622.998046875 c 1
 66.66796875 617.665039062 65.6669921875 618.666992188 65 626 c 1
EndSplineSet
EndChar

StartChar: Q
Encoding: 81 81 50
Width: 544
GlyphClass: 2
Flags: MW
HStem: -24.0667 74.0667 646.001 71.999
VStem: 42.999 75.998 239.994 51.0039 420.997 74.002
LayerCount: 2
Fore
SplineSet
190 -11 m 0
 168 -1.6669921875 147.999023438 11.166015625 129.999023438 27.4990234375 c 0
 111.999023438 43.83203125 96.666015625 63.33203125 83.9990234375 85.9990234375 c 0
 59.33203125 129.999023438 45.6650390625 182.666015625 42.998046875 243.999023438 c 2
 42.998046875 295.999023438 l 2
 42.9814453125 298.634765625 42.9736328125 301.259765625 42.9736328125 303.874023438 c 0
 42.9736328125 408.397460938 55.9814453125 496.10546875 81.998046875 566.999023438 c 0
 97.3310546875 609.666015625 125.331054688 645.333007812 165.998046875 674 c 0
 203.998046875 703.333007812 245.998046875 718 291.998046875 718 c 0
 339.998046875 717.333007812 381.998046875 699.333007812 417.998046875 664 c 0
 435.998046875 646.666992188 451.331054688 622.833984375 463.998046875 592.500976562 c 0
 476.665039062 562.16796875 484.998046875 527.66796875 488.998046875 489.000976562 c 0
 492.998046875 450.333984375 494.998046875 406.000976562 494.998046875 356.000976562 c 0
 494.998046875 269.333984375 490.665039062 204.000976562 481.998046875 160.000976562 c 0
 467.998046875 89.333984375 436.665039062 39.0009765625 387.998046875 9.0009765625 c 0
 384.665039062 2.333984375 381.665039062 0.6669921875 378.998046875 4 c 1
 396.331054688 -21.3330078125 412.6640625 -44.3330078125 427.997070312 -65 c 0
 442.6640625 -85 453.497070312 -99.5 460.497070312 -108.5 c 0
 467.497070312 -117.5 479.997070312 -133.666992188 497.997070312 -157 c 0
 500.6640625 -160.333007812 501.997070312 -164.333007812 501.997070312 -169 c 2
 501.997070312 -173 l 2
 500.6640625 -180.333007812 498.1640625 -187.166015625 494.497070312 -193.499023438 c 0
 490.830078125 -199.83203125 486.997070312 -204.33203125 482.997070312 -206.999023438 c 0
 477.6640625 -210.33203125 471.997070312 -211.999023438 465.997070312 -211.999023438 c 0
 463.330078125 -211.999023438 460.330078125 -211.666015625 456.997070312 -210.999023438 c 0
 446.997070312 -207.666015625 437.997070312 -201.333007812 429.997070312 -192 c 0
 419.997070312 -180.666992188 403.997070312 -158.666992188 381.997070312 -126 c 0
 361.997070312 -93.3330078125 340.997070312 -58 318.997070312 -20 c 1
 316.997070312 -26.6669921875 314.997070312 -27 312.997070312 -21 c 1
 297.6640625 -23 280.6640625 -24 261.997070312 -24 c 0
 260.263671875 -24.044921875 258.5390625 -24.0673828125 256.823242188 -24.0673828125 c 0
 232.806640625 -24.0673828125 210.533203125 -19.7109375 190 -11 c 0
278.997070312 208.999023438 m 0
 283.6640625 205.666015625 287.6640625 199.333007812 290.997070312 190 c 0
 301.6640625 156.666992188 317.6640625 120.333984375 338.997070312 81.0009765625 c 2
 343.997070312 71.0009765625 l 1
 351.997070312 77.0009765625 l 2
 381.330078125 98.333984375 400.663085938 131.333984375 409.99609375 176.000976562 c 0
 411.99609375 185.333984375 414.329101562 205.666992188 416.99609375 237 c 0
 418.99609375 267.666992188 420.329101562 306 420.99609375 352 c 2
 420.99609375 368 l 2
 421.079101562 373.084960938 421.12109375 378.138671875 421.12109375 383.161132812 c 0
 421.12109375 418.305664062 419.079101562 451.918945312 414.99609375 484.000976562 c 0
 408.99609375 532.66796875 393.663085938 572.000976562 368.99609375 602.000976562 c 0
 346.329101562 631.333984375 316.99609375 646.000976562 280.99609375 646.000976562 c 0
 244.99609375 646.000976562 214.99609375 632.333984375 190.99609375 605.000976562 c 0
 166.99609375 577.66796875 149.329101562 539.66796875 137.99609375 491.000976562 c 0
 125.329101562 439.000976562 118.99609375 383.66796875 118.99609375 325.000976562 c 2
 118.99609375 321.000976562 l 2
 119.663085938 302.333984375 120.663085938 282.666992188 121.99609375 262 c 0
 124.663085938 221.333007812 132.163085938 185.5 144.49609375 154.5 c 0
 156.829101562 123.5 173.162109375 98.3330078125 193.495117188 79 c 0
 213.828125 59.6669921875 236.661132812 50 261.994140625 50 c 2
 270.994140625 50 l 1
 285.994140625 50 l 1
 278.994140625 65 l 2
 264.327148438 94.3330078125 254.16015625 116.833007812 248.493164062 132.5 c 0
 242.826171875 148.166992188 239.993164062 161.666992188 239.993164062 173 c 0
 239.993164062 187 244.66015625 198 253.993164062 206 c 0
 259.326171875 210.666992188 264.326171875 213 268.993164062 213 c 0
 272.326171875 213 275.6640625 211.666015625 278.997070312 208.999023438 c 0
EndSplineSet
EndChar

StartChar: R
Encoding: 82 82 51
Width: 544
GlyphClass: 2
Flags: MW
HStem: -18.998 21G 280.633 68.3692 675.001 20G
VStem: 47.999 76.001 52 83.998 56.6663 59.3317 57.499 70.5 413.997 72.0029
LayerCount: 2
Fore
SplineSet
392 504.000976562 m 0xe3
 377.333007812 522.66796875 359.999023438 538.834960938 339.999023438 552.501953125 c 0
 319.999023438 566.168945312 297.666015625 578.668945312 272.999023438 590.001953125 c 0
 226.33203125 610.668945312 180.33203125 625.001953125 134.999023438 633.001953125 c 2
 123.999023438 635.001953125 l 1xf1
 125.33203125 578.334960938 126.665039062 532.334960938 127.998046875 497.001953125 c 0
 127.998046875 485.001953125 126.997070312 465.334960938 124.997070312 438.001953125 c 0
 124.330078125 429.334960938 121.6640625 400.334960938 116.997070312 351.001953125 c 1
 124.997070312 350.001953125 l 2
 133.758789062 348.477539062 144.479492188 347.715820312 157.159179688 347.715820312 c 0
 166.669921875 347.715820312 177.282226562 348.14453125 188.997070312 349.001953125 c 0
 266.997070312 352.334960938 320.330078125 359.334960938 348.997070312 370.001953125 c 0
 360.330078125 374.001953125 370.997070312 379.334960938 380.997070312 386.001953125 c 0
 402.997070312 400.001953125 413.997070312 419.668945312 413.997070312 445.001953125 c 0
 413.997070312 465.668945312 406.666992188 485.333984375 392 504.000976562 c 0xe3
426.999023438 3 m 0
 416.33203125 17 400.994140625 34.66796875 380.994140625 56.0009765625 c 0
 362.994140625 76.66796875 341.1640625 99.5009765625 315.497070312 124.500976562 c 0
 289.830078125 149.500976562 260.663085938 174.333984375 227.99609375 199.000976562 c 0
 195.329101562 223.66796875 162.329101562 243.334960938 128.99609375 258.001953125 c 1
 124.329101562 253.334960938 119.662109375 255.334960938 114.995117188 264.001953125 c 1
 115.662109375 252.668945312 115.995117188 249.001953125 115.995117188 249.001953125 c 2xe5
 117.328125 210.334960938 120.995117188 163.001953125 126.995117188 107.001953125 c 0
 132.995117188 51.001953125 135.995117188 19.3349609375 135.995117188 12.001953125 c 0
 135.328125 2.6689453125 130.995117188 -4.6640625 122.995117188 -9.9970703125 c 0
 113.662109375 -15.9970703125 103.329101562 -18.9970703125 91.99609375 -18.9970703125 c 2
 88.99609375 -18.9970703125 l 2
 77.6630859375 -18.9970703125 68.330078125 -15.6640625 60.9970703125 -8.9970703125 c 0
 54.9970703125 -3.6640625 51.9970703125 3.6689453125 51.9970703125 13.001953125 c 0xe9
 52.6640625 14.3349609375 52.9970703125 16.3349609375 52.9970703125 19.001953125 c 0
 54.9970703125 53.6689453125 56.1640625 83.501953125 56.4970703125 108.501953125 c 0
 56.6083984375 116.827148438 56.6640625 129.051757812 56.6640625 145.176757812 c 0xe5
 56.6640625 177.473632812 56.44140625 225.415039062 55.99609375 289.000976562 c 2
 55.99609375 305.500976562 l 2
 55.99609375 314.500976562 56.49609375 333.000976562 57.49609375 361.000976562 c 0xe3
 58.49609375 389.000976562 58.99609375 412.833984375 58.99609375 432.500976562 c 0
 58.99609375 452.16796875 58.6630859375 472.000976562 57.99609375 492.000976562 c 0
 57.3291015625 512.000976562 55.49609375 541.500976562 52.49609375 580.500976562 c 0
 49.49609375 619.500976562 47.99609375 642.66796875 47.99609375 650.000976562 c 2
 47.99609375 656.000976562 l 1
 47.99609375 659.000976562 l 2xf1
 47.99609375 667.000976562 51.6630859375 674.66796875 58.99609375 682.000976562 c 0
 65.6630859375 690.66796875 75.330078125 695.000976562 87.9970703125 695.000976562 c 0
 98.6640625 695.000976562 106.997070312 692.66796875 112.997070312 688.000976562 c 1
 114.330078125 681.333984375 115.328125 681.000976562 115.995117188 687.000976562 c 1xe5
 169.995117188 684.333984375 217.497070312 677.166992188 258.497070312 665.5 c 0
 299.497070312 653.833007812 333.330078125 639.666015625 359.997070312 622.999023438 c 0
 387.997070312 606.33203125 411.830078125 587.33203125 431.497070312 565.999023438 c 0
 451.1640625 544.666015625 465.1640625 523.499023438 473.497070312 502.499023438 c 0
 481.830078125 481.499023438 485.997070312 460.33203125 485.997070312 438.999023438 c 0
 485.997070312 408.33203125 478.330078125 382.999023438 462.997070312 362.999023438 c 0
 455.6640625 353.666015625 445.997070312 345.166015625 433.997070312 337.499023438 c 0
 421.997070312 329.83203125 408.997070312 323.33203125 394.997070312 317.999023438 c 0
 381.6640625 312.666015625 366.327148438 307.833007812 348.994140625 303.5 c 0
 331.661132812 299.166992188 314.165039062 295.833984375 296.498046875 293.500976562 c 0
 278.831054688 291.16796875 258.998046875 289.000976562 236.998046875 287.000976562 c 0
 231.208984375 282.755859375 225.307617188 280.6328125 219.294921875 280.6328125 c 0
 214.921875 280.6328125 210.490234375 281.755859375 205.999023438 284.000976562 c 1
 213.799804688 273.201171875 221.870117188 267.801757812 230.209960938 267.801757812 c 0
 231.13671875 267.801757812 232.06640625 267.868164062 233 268.000976562 c 0
 293.666992188 234.000976562 347.666015625 194.333984375 394.999023438 149.000976562 c 0
 445.666015625 103.000976562 479 64.333984375 495 33.0009765625 c 0
 496.333007812 28.333984375 497 23.833984375 497 19.5009765625 c 0
 497 15.16796875 496.333007812 11.0009765625 495 7.0009765625 c 0
 491.666992188 -0.33203125 486.666992188 -6.33203125 480 -10.9990234375 c 0
 474 -15.666015625 468 -17.9990234375 462 -17.9990234375 c 0
 449.333007812 -17.9990234375 437.666015625 -11 426.999023438 3 c 0
EndSplineSet
EndChar

StartChar: S
Encoding: 83 83 52
Width: 544
GlyphClass: 2
Flags: MW
HStem: -29.0049 67.0049 664.997 59.1678
VStem: 71.002 81 423.999 80.0039
LayerCount: 2
Fore
SplineSet
42 102 m 0
 44 110.666992188 49.3330078125 117 58 121 c 0
 65.3330078125 124.333007812 70.5 126.333007812 73.5 127 c 0
 76.5 127.666992188 79 128 81 128 c 2
 87 128 l 2
 91 128 95.1669921875 126 99.5 122 c 0
 103.833007812 118 108.666015625 112 113.999023438 104 c 0
 127.33203125 84 144.999023438 68 166.999023438 56 c 0
 187.666015625 44 210.999023438 38 236.999023438 38 c 0
 252.33203125 38 268.499023438 40.3330078125 285.499023438 45 c 0
 302.499023438 49.6669921875 318.999023438 56.6669921875 334.999023438 66 c 0
 350.999023438 75.3330078125 365.33203125 86.666015625 377.999023438 99.9990234375 c 0
 391.33203125 113.33203125 402.33203125 128.999023438 410.999023438 146.999023438 c 0
 419.666015625 164.999023438 423.999023438 183.999023438 423.999023438 203.999023438 c 0
 423.999023438 214.666015625 423.33203125 224.499023438 421.999023438 233.499023438 c 0
 420.666015625 242.499023438 417.833007812 252.166015625 413.5 262.499023438 c 0
 409.166992188 272.83203125 403.666992188 282.33203125 397 290.999023438 c 0
 390.333007812 299.666015625 381.333007812 308.333007812 370 317 c 0
 358.666992188 325.666992188 345.833984375 333 331.500976562 339 c 0
 317.16796875 345 299.500976562 350.666992188 278.500976562 356 c 0
 257.500976562 361.333007812 234.333984375 365.666015625 209.000976562 368.999023438 c 0
 188.333984375 371.666015625 169.333984375 377.666015625 152.000976562 386.999023438 c 0
 133.333984375 396.33203125 118.333984375 407.83203125 107.000976562 421.499023438 c 0
 95.66796875 435.166015625 86.8349609375 449.666015625 80.501953125 464.999023438 c 0
 74.1689453125 480.33203125 71.001953125 495.33203125 71.001953125 509.999023438 c 0
 71.001953125 531.999023438 74.6689453125 553.33203125 82.001953125 573.999023438 c 0
 89.3349609375 594.666015625 100.66796875 614.166015625 116.000976562 632.499023438 c 0
 131.333984375 650.83203125 149.666992188 666.665039062 171 679.998046875 c 0
 191 693.331054688 215.166992188 703.998046875 243.5 711.998046875 c 0
 271.833007812 719.998046875 302.333007812 723.998046875 335 723.998046875 c 0
 337.66796875 724.109375 340.521484375 724.165039062 343.560546875 724.165039062 c 0
 358.745117188 724.165039062 378.55859375 722.776367188 403 719.999023438 c 0
 433.666992188 716.666015625 454.333984375 712.999023438 465.000976562 708.999023438 c 0
 475.66796875 704.999023438 483.000976562 698.999023438 487.000976562 690.999023438 c 0
 491.000976562 684.33203125 493.000976562 677.665039062 493.000976562 670.998046875 c 0
 493.000976562 662.331054688 491.000976562 655.998046875 487.000976562 651.998046875 c 0
 484.333984375 648.665039062 481.000976562 646.83203125 477.000976562 646.499023438 c 0
 473.000976562 646.166015625 469.333984375 645.999023438 466.000976562 645.999023438 c 0
 456.66796875 645.999023438 447.66796875 647.666015625 439.000976562 650.999023438 c 0
 427.000976562 654.33203125 417.333984375 656.665039062 410.000976562 657.998046875 c 0
 402.66796875 659.331054688 391.334960938 660.6640625 376.001953125 661.997070312 c 0
 361.334960938 663.997070312 345.001953125 664.997070312 327.001953125 664.997070312 c 0
 298.334960938 664.997070312 271.001953125 660.330078125 245.001953125 650.997070312 c 0
 218.334960938 640.997070312 196.334960938 625.997070312 179.001953125 605.997070312 c 0
 161.001953125 585.997070312 152.001953125 562.997070312 152.001953125 536.997070312 c 0
 152.668945312 506.997070312 164.668945312 481.997070312 188.001953125 461.997070312 c 0
 210.001953125 441.997070312 240.668945312 430.997070312 280.001953125 428.997070312 c 0
 314.001953125 426.997070312 343.668945312 421.330078125 369.001953125 411.997070312 c 0
 395.668945312 402.6640625 417.3359375 391.331054688 434.002929688 377.998046875 c 0
 450.669921875 364.665039062 464.502929688 348.998046875 475.502929688 330.998046875 c 0
 486.502929688 312.998046875 494.002929688 295.331054688 498.002929688 277.998046875 c 0
 502.002929688 260.665039062 504.002929688 241.998046875 504.002929688 221.998046875 c 0
 504.002929688 191.331054688 499.002929688 162.6640625 489.002929688 135.997070312 c 0
 479.002929688 109.330078125 465.169921875 86.1630859375 447.502929688 66.49609375 c 0
 429.8359375 46.8291015625 409.002929688 29.662109375 385.002929688 14.9951171875 c 0
 363.669921875 0.328125 340.002929688 -10.671875 314.002929688 -18.0048828125 c 0
 288.002929688 -25.337890625 261.3359375 -29.0048828125 234.002929688 -29.0048828125 c 0
 192.002929688 -29.0048828125 154.002929688 -20.0048828125 120.002929688 -2.0048828125 c 0
 86.0029296875 15.9951171875 62.669921875 37.662109375 50.0029296875 62.9951171875 c 0
 44.0029296875 75.662109375 41.0029296875 86.3291015625 41.0029296875 94.99609375 c 0
 41.0029296875 97.6630859375 41.3330078125 100 42 102 c 0
EndSplineSet
EndChar

StartChar: T
Encoding: 84 84 53
Width: 544
GlyphClass: 2
Flags: MW
HStem: 612 69<468.001 470.001 466.001 474.334> 640.499 54.499
VStem: 236 75 246 76.001
LayerCount: 2
Fore
SplineSet
79 694 m 0x60
 116.333007812 688 246.000976562 683.666992188 468.000976562 681 c 0
 480.66796875 681 489.66796875 678 495.000976562 672 c 0
 500.333984375 666 503.333984375 658.666992188 504.000976562 650 c 0
 504.000976562 639.333007812 500.66796875 630 494.000976562 622 c 0
 488.66796875 615.333007812 480.66796875 612 470.000976562 612 c 2
 466.000976562 612 l 2
 447.333984375 610.366210938 428.87109375 609.549804688 410.612304688 609.549804688 c 0
 376.704101562 609.549804688 343.5 612.366210938 311 618 c 1xa0
 311.666992188 475.333007812 315.333984375 277.333007812 322.000976562 24 c 0
 321.333984375 12.6669921875 316.666992188 3.6669921875 308 -3 c 0
 299.333007812 -9.6669921875 290 -13 280 -13 c 1
 278.666992188 -19.6669921875 277.666992188 -19.6669921875 277 -13 c 1
 267 -13 259 -9.3330078125 253 -2 c 0
 248.333007812 3.3330078125 246 11 246 21 c 0x90
 246 23 246.166992188 26.6669921875 246.5 32 c 0
 246.833007812 37.3330078125 247 51.666015625 247 74.9990234375 c 0
 247 122.999023438 245.166992188 208.33203125 241.5 330.999023438 c 0
 237.833007812 453.666015625 236 540.999023438 236 592.999023438 c 2
 236 619.999023438 l 1
 147.333007812 624.666015625 96.3330078125 627.999023438 83 629.999023438 c 0
 69.6669921875 631.999023438 59.333984375 635.499023438 52.0009765625 640.499023438 c 0
 44.66796875 645.499023438 41.0009765625 651.999023438 41.0009765625 659.999023438 c 1
 40.333984375 653.999023438 40.0009765625 654.666015625 40.0009765625 661.999023438 c 0
 40.0009765625 671.33203125 43.333984375 679.665039062 50.0009765625 686.998046875 c 0
 54.66796875 692.331054688 61.3349609375 694.998046875 70.001953125 694.998046875 c 0
 72.6689453125 694.998046875 75.6669921875 694.666992188 79 694 c 0x60
EndSplineSet
EndChar

StartChar: U
Encoding: 85 85 54
Width: 544
GlyphClass: 2
Flags: MW
HStem: -28.999 71 669.52 20G
VStem: 36.0762 73.9219 434.999 74.001
LayerCount: 2
Fore
SplineSet
505 250 m 0
 504.333007812 220.666992188 500.5 193.334960938 493.5 168.001953125 c 0
 486.5 142.668945312 478 120.668945312 468 102.001953125 c 0
 458 83.3349609375 446.166992188 66.501953125 432.5 51.501953125 c 0
 418.833007812 36.501953125 404.333007812 24.001953125 389 14.001953125 c 0
 375 4.001953125 360.333007812 -4.1650390625 345 -10.498046875 c 0
 329.666992188 -16.8310546875 314.666992188 -21.498046875 300 -24.498046875 c 0
 285.333007812 -27.498046875 270.166015625 -28.998046875 254.499023438 -28.998046875 c 0
 238.83203125 -28.998046875 222.33203125 -26.498046875 204.999023438 -21.498046875 c 0
 187.666015625 -16.498046875 169.666015625 -7.6650390625 150.999023438 5.001953125 c 0
 130.999023438 17.6689453125 113.33203125 33.501953125 97.9990234375 52.501953125 c 0
 82.666015625 71.501953125 69.666015625 96.001953125 58.9990234375 126.001953125 c 0
 48.33203125 156.001953125 42.33203125 190.334960938 40.9990234375 229.001953125 c 0
 37.716796875 353.721679688 36.076171875 453.825195312 36.076171875 529.3125 c 0
 36.076171875 576.490234375 36.716796875 614.053710938 37.9990234375 642.001953125 c 0
 37.9990234375 657.334960938 42.166015625 669.16796875 50.4990234375 677.500976562 c 0
 58.51171875 685.513671875 67.9111328125 689.520507812 78.6982421875 689.520507812 c 0
 79.12890625 689.520507812 79.5625 689.513671875 79.998046875 689.500976562 c 0
 91.3310546875 689.16796875 99.3310546875 685.334960938 103.998046875 678.001953125 c 0
 107.998046875 671.334960938 109.998046875 661.334960938 109.998046875 648.001953125 c 0
 110.665039062 422.001953125 112.665039062 285.334960938 115.998046875 238.001953125 c 0
 117.331054688 215.334960938 119.6640625 196.334960938 122.997070312 181.001953125 c 0
 126.330078125 165.668945312 131.997070312 149.168945312 139.997070312 131.501953125 c 0
 147.997070312 113.834960938 157.330078125 98.66796875 167.997070312 86.0009765625 c 0
 178.6640625 73.333984375 192.1640625 62.833984375 208.497070312 54.5009765625 c 0
 224.830078125 46.16796875 243.330078125 42.0009765625 263.997070312 42.0009765625 c 0
 310.6640625 42.66796875 348.331054688 59.66796875 376.998046875 93.0009765625 c 0
 407.665039062 126.333984375 425.33203125 176.666992188 429.999023438 244 c 0
 431.999023438 272.666992188 433.33203125 305.166992188 433.999023438 341.5 c 0
 434.666015625 377.833007812 434.999023438 405 434.999023438 423 c 0
 434.999023438 441 434.83203125 469.833007812 434.499023438 509.5 c 0
 434.166015625 549.166992188 433.999023438 590.666992188 433.999023438 634 c 0
 433.999023438 661.333007812 437.666015625 678 444.999023438 684 c 0
 448.33203125 686.666992188 451.83203125 688.5 455.499023438 689.5 c 0
 459.166015625 690.5 463.999023438 691 469.999023438 691 c 0
 479.33203125 691 487.33203125 687.166992188 493.999023438 679.5 c 0
 500.666015625 671.833007812 504.333007812 660.333007812 505 645 c 0
 507.666992188 593 509 534 509 468 c 0
 509 402 507.666992188 329.333007812 505 250 c 0
EndSplineSet
EndChar

